<?xml version="1.0" standalone="no"?><!DOCTYPE svg PUBLIC "-//W3C//DTD SVG 1.1//EN" "http://www.w3.org/Graphics/SVG/1.1/DTD/svg11.dtd"><svg t="1712289740040" class="icon" viewBox="0 0 1024 1024" version="1.1" xmlns="http://www.w3.org/2000/svg" p-id="5354" xmlns:xlink="http://www.w3.org/1999/xlink" width="128" height="128"><path d="M964.233366 574.588878a47.278829 47.278829 0 0 0-56.394927 34.116683c-46.08 180.149073-196.508098 322.385171-291.465366 325.23239h-0.949073c-14.11122-0.949073-56.419902-0.949073-75.226537-85.341658-56.394927-254.101854-205.898927-237.992585-303.678439-227.552781-40.435512 3.796293-77.099707 8.516683-94.008195-6.643512-9.415805-8.541659-25.400195-35.090732-25.400195-113.788878 0-224.705561 180.523707-405.803707 402.407025-405.803707 177.701463 0 336.596293 120.43239 385.498536 292.039805 8.441756 24.650927 33.841951 38.862049 57.344 31.294439 24.451122-8.541659 38.537366-34.141659 31.019707-57.843513C933.188683 147.905561 737.629659 0 519.517659 0 246.858927 0 24.97561 223.781463 24.97561 498.712976c0 89.137951 16.933463 147.930537 55.470829 182.996292 47.004098 42.683317 109.992585 36.039805 165.48839 30.345366 95.906341-10.414829 164.514341-18.007415 203.051708 154.549073 21.653854 97.654634 81.820098 156.44722 163.615219 157.396293h3.746342c148.554927 0 325.332293-182.04722 380.803122-392.541659a46.404683 46.404683 0 0 0-32.917854-56.869463z" fill="#1296db" p-id="5355"></path><path d="M324.907707 438.971317l64.886634 121.381463h46.055025v-227.577756h-42.308683v91.036098c0 25.6 3.746341 55.945366 5.644488 79.622244h-1.873171l-22.577951-49.301854-65.810732-121.356488H262.843317v227.552781h42.308683v-91.011122c0-26.549073-3.746341-54.996293-5.619512-79.64722h1.873171l23.502048 49.301854zM630.459317 370.712976v-37.937952h-139.139122v227.552781h45.130927v-91.960195h80.846049v-37.937951H536.476098v-59.716683h94.008195zM760.20761 560.327805v-189.614829h63.937561v-37.937952H651.114146v37.937952h63.937561v189.614829h45.130927z" fill="#1296db" p-id="5356"></path></svg>