<?xml version="1.0" standalone="no"?><!DOCTYPE svg PUBLIC "-//W3C//DTD SVG 1.1//EN" "http://www.w3.org/Graphics/SVG/1.1/DTD/svg11.dtd"><svg height="1024" node-id="1" sillyvg="true" template-height="1024" template-width="1024" version="1.1" viewBox="0 0 1024 1024" width="1024" xmlns="http://www.w3.org/2000/svg" xmlns:xlink="http://www.w3.org/1999/xlink"><defs node-id="74"></defs><path d="M 621.90 280.80 C 622.20 284.20 620.30 287.30 616.90 288.60 C 616.60 288.60 616.60 288.90 616.60 289.10 C 616.60 289.40 616.60 289.60 616.60 289.90 C 616.60 290.40 617.10 290.70 617.40 290.70 L 617.70 290.70 C 619.50 290.20 621.30 289.70 623.20 288.90 C 624.80 288.40 626.60 287.90 628.40 287.90 C 642.00 287.10 655.20 285.30 668.30 282.40 C 670.90 281.60 673.80 283.20 674.80 285.80 C 675.60 294.10 674.00 302.50 670.40 310.00 C 664.40 322.00 656.80 333.50 648.00 343.60 C 647.50 344.10 647.50 344.90 648.30 345.40 C 648.60 345.70 648.80 345.70 649.10 345.70 L 651.20 346.00 L 624.90 359.60 L 596.90 377.00 C 596.10 377.30 595.90 378.00 596.40 378.80 L 596.40 379.10 C 596.70 379.40 596.90 379.90 597.40 379.90 C 597.10 380.20 596.90 380.70 596.90 381.20 C 596.90 382.00 596.60 382.20 595.90 381.70 L 553.70 347.00 C 554.20 346.70 554.50 346.70 555.00 346.70 C 555.80 346.70 556.00 346.20 556.00 345.70 C 556.00 345.20 555.70 344.70 555.20 344.40 C 542.20 333.70 528.10 324.30 513.20 316.50 C 488.40 304.20 461.10 297.70 433.40 297.50 C 423.00 297.20 412.80 297.00 403.20 297.00 C 400.90 297.00 398.50 297.50 396.40 298.60 C 392.50 300.40 391.40 299.40 393.00 295.50 C 395.60 289.80 399.00 284.30 403.40 279.60 C 407.00 275.40 407.00 265.50 407.80 261.60 C 410.40 250.70 416.10 240.70 424.20 232.90 C 426.30 231.10 429.40 230.80 431.50 232.60 C 435.40 236.00 439.60 239.40 443.50 242.50 C 451.80 249.30 461.20 253.20 470.90 258.40 C 483.20 264.90 489.10 272.50 497.00 283.90 C 497.50 284.90 498.60 285.50 499.60 286.00 C 500.10 286.30 500.60 286.00 500.90 285.20 C 500.90 284.90 500.90 284.90 500.90 284.70 C 500.60 282.90 500.40 281.10 500.90 279.20 C 501.20 277.90 501.70 277.60 502.70 278.70 C 506.30 281.60 506.90 287.00 504.00 290.70 C 503.50 291.50 503.70 292.50 504.50 292.80 C 504.80 292.80 504.80 293.10 505.00 293.10 L 505.80 293.40 C 506.30 293.40 506.60 293.40 506.80 292.90 C 510.70 284.60 516.20 272.80 523.00 266.80 C 523.80 266.30 524.60 266.30 525.30 266.80 C 529.70 269.90 533.10 274.10 535.70 278.80 C 536.00 279.30 536.70 279.60 537.30 279.30 C 537.60 279.30 537.80 279.00 537.80 278.80 C 543.00 268.60 552.10 259.30 563.30 257.20 C 570.30 255.90 576.90 253.60 583.10 250.20 C 586.00 248.60 589.40 249.70 590.90 252.50 C 593.80 258.00 594.80 264.00 594.30 270.20 C 594.30 271.20 594.80 272.00 595.90 272.30 C 598.80 273.10 601.60 273.30 604.50 273.10 C 611.50 271.90 619.30 273.50 621.90 280.80 Z" fill="#ffc156" fill-rule="nonzero" node-id="78" stroke="none" target-height="151.40001" target-width="284.19998" target-x="391.4" target-y="230.8"></path><path d="M 350.30 313.40 C 349.30 313.10 348.50 313.70 347.70 314.20 C 347.20 314.70 346.70 315.80 346.70 316.50 C 346.40 318.10 345.70 319.60 345.10 321.20 L 338.10 325.60 C 328.50 330.30 319.60 336.80 312.00 344.60 C 311.70 344.30 311.70 343.80 311.50 343.60 C 311.50 343.10 311.00 342.60 310.50 342.60 L 310.50 342.60 L 309.50 342.60 L 322.80 327.20 C 323.30 326.70 323.80 326.20 324.40 326.20 C 326.00 325.70 327.30 324.40 327.80 322.80 C 328.10 321.80 327.80 321.20 326.80 321.20 L 321.60 321.20 C 321.10 321.20 320.60 320.90 320.00 320.70 C 316.10 317.60 311.70 314.70 307.20 312.10 C 303.00 309.50 298.90 306.40 295.20 303.20 C 292.30 300.60 287.60 299.60 285.60 294.90 C 285.30 294.10 284.60 293.90 283.80 294.10 C 283.30 294.40 283.00 294.60 283.00 294.90 C 282.70 295.90 282.50 297.00 282.50 298.00 C 281.50 291.50 281.70 284.70 283.00 278.20 C 283.30 276.60 284.60 275.30 286.40 275.30 C 296.30 275.30 306.20 277.40 315.60 281.30 C 317.70 282.10 320.00 281.30 320.80 279.20 C 321.10 278.90 321.10 278.40 321.10 278.20 C 321.60 270.90 328.10 265.40 335.70 265.90 C 336.20 265.90 337.00 266.20 337.50 266.20 C 345.30 268.00 352.60 270.90 359.70 274.50 C 369.30 279.70 376.10 288.80 382.10 298.00 C 383.10 299.60 382.60 301.40 381.30 302.40 C 381.00 302.70 380.50 302.90 380.30 302.90 C 369.90 305.50 360.00 308.90 350.30 313.40 Z" fill="#ffc156" fill-rule="nonzero" node-id="80" stroke="none" target-height="79.20001" target-width="101.600006" target-x="281.5" target-y="265.4"></path><path d="M 674.90 285.70 C 674.10 283.10 671.30 281.50 668.40 282.30 C 655.40 285.20 641.80 287.00 628.50 287.80 C 626.70 287.80 624.90 288.30 623.30 288.80 C 621.50 289.60 619.70 290.10 617.80 290.60 C 617.30 290.90 616.80 290.60 616.80 290.10 L 616.80 289.80 C 616.80 289.50 616.80 289.30 616.80 289.00 C 616.80 288.70 617.10 288.50 617.10 288.50 C 620.20 287.20 622.10 284.10 622.10 280.70 C 623.10 283.80 625.00 284.60 627.60 283.30 C 640.90 277.30 655.80 276.30 669.60 280.40 C 673.00 281.30 674.90 283.10 674.90 285.70 Z" fill="#ffd9bf" fill-rule="nonzero" node-id="82" stroke="none" target-height="14.600006" target-width="58.100037" target-x="616.8" target-y="276.3"></path><path d="M 309.70 342.50 C 307.90 343.80 306.30 345.60 305.00 347.50 C 304.20 348.50 302.90 348.50 301.40 347.20 C 291.50 332.60 285.20 315.70 283.20 297.90 C 283.20 296.90 283.20 295.80 283.70 294.80 C 284.00 294.00 284.70 293.80 285.50 294.00 C 286.00 294.30 286.30 294.50 286.30 294.80 C 288.40 299.50 293.10 300.50 295.90 303.10 C 299.50 306.50 303.70 309.40 307.90 312.00 C 312.30 314.60 316.50 317.50 320.70 320.60 C 321.20 320.90 321.70 321.10 322.30 321.10 L 327.50 321.10 C 328.50 321.10 328.80 321.60 328.50 322.70 C 328.00 324.30 326.70 325.60 325.10 326.10 C 324.30 326.40 323.80 326.60 323.50 327.10 L 309.70 342.50 Z" fill="#ffa246" fill-rule="nonzero" node-id="84" stroke="none" target-height="54.700012" target-width="45.599976" target-x="283.2" target-y="293.8"></path><path d="M 575.00 690.30 L 577.10 690.60 C 576.30 690.50 575.80 690.30 575.00 690.30 Z" fill="#fe6048" fill-rule="nonzero" node-id="86" stroke="none" target-height="0.2999878" target-width="2.0999756" target-x="575" target-y="690.3"></path><path d="M 685.80 640.00 C 685.00 640.00 684.00 640.00 683.50 639.50 C 677.00 635.60 671.50 629.90 667.60 623.30 C 666.30 621.00 666.60 618.10 668.10 616.00 L 678.00 602.70 C 680.30 598.80 681.10 595.90 680.60 594.10 C 680.30 593.60 680.30 592.80 680.60 592.30 C 681.10 591.00 681.10 589.40 680.30 588.10 C 673.80 590.20 667.50 593.30 662.30 597.70 C 661.80 598.00 661.30 598.00 660.70 597.70 C 660.40 597.40 660.40 597.20 660.40 596.90 C 660.40 596.60 660.40 596.40 660.70 596.10 C 666.20 588.30 672.20 581.20 679.20 574.70 C 679.70 574.20 680.50 574.20 680.80 574.70 L 689.70 582.30 C 690.20 582.80 690.50 583.60 690.50 584.40 C 690.50 584.90 690.20 585.20 690.00 585.70 C 691.30 585.40 692.60 584.70 693.40 583.60 C 694.20 582.80 694.20 581.80 693.40 581.00 L 693.40 581.00 C 693.10 580.70 693.10 580.20 693.40 580.00 L 693.40 580.00 C 694.20 579.20 694.40 578.20 694.20 577.10 C 693.20 572.40 692.10 567.50 691.30 562.20 C 691.00 561.40 690.80 560.40 690.30 559.90 C 688.20 557.00 686.90 553.40 687.20 549.70 C 687.20 548.90 686.90 548.10 686.20 547.90 L 685.40 547.40 C 684.40 547.10 683.80 546.60 683.30 545.60 C 680.70 540.10 678.90 534.40 677.60 528.70 C 675.00 516.40 670.00 505.00 663.30 494.60 C 662.80 493.60 661.50 491.50 659.70 488.10 C 658.10 484.70 655.80 482.90 654.20 479.80 C 652.10 475.40 649.20 471.50 645.60 468.30 C 642.70 464.70 640.40 460.70 638.60 456.30 C 631.30 434.10 621.10 413.00 608.40 393.50 C 605.30 389.10 601.40 384.90 597.20 381.20 C 596.90 381.50 596.70 382.00 596.70 382.50 C 596.70 383.30 596.40 383.50 595.70 383.00 L 553.50 348.30 C 542.00 339.70 530.00 331.90 517.30 325.10 C 495.90 313.60 472.70 306.90 448.50 305.00 L 414.60 302.40 C 414.10 302.40 413.30 302.70 413.00 303.20 C 413.30 303.70 413.30 304.20 413.00 304.80 C 412.70 305.60 412.70 306.40 413.30 307.10 C 414.10 308.90 413.80 311.00 412.50 312.60 C 412.00 313.40 411.20 313.90 410.40 314.20 C 409.40 314.50 408.60 315.00 407.80 315.80 C 407.30 316.30 406.50 316.80 405.70 317.10 L 398.40 318.90 C 395.50 319.70 392.70 317.90 392.10 315.30 C 392.10 315.00 392.10 314.80 391.80 314.50 C 391.50 312.70 391.00 311.10 389.70 310.10 C 388.90 309.30 388.70 309.60 388.70 310.60 C 388.70 311.40 389.00 312.20 389.50 312.90 C 390.00 313.70 390.30 314.50 390.30 315.20 L 390.30 324.30 C 390.30 325.10 390.60 325.90 391.10 326.40 C 395.00 330.80 400.50 333.40 406.20 333.70 C 408.50 334.00 410.90 332.90 412.50 331.40 C 413.00 330.90 413.50 330.90 414.10 331.10 C 414.90 331.40 415.70 331.40 416.20 330.60 C 418.00 328.80 420.40 327.00 422.50 325.40 C 424.10 324.40 426.40 324.40 428.00 325.40 C 430.90 327.50 433.50 327.70 435.60 326.40 L 440.60 315.70 C 441.90 312.80 445.60 311.50 448.70 312.80 C 448.70 312.80 448.70 312.80 449.00 312.80 C 452.60 314.40 455.50 317.20 457.30 320.60 C 457.80 321.60 457.60 322.90 456.50 323.70 C 456.20 323.70 456.20 324.00 456.00 324.00 C 453.10 324.30 450.80 325.80 449.00 328.20 C 459.90 341.00 467.00 357.90 470.60 379.00 C 475.00 405.60 475.00 432.40 470.60 459.00 C 470.10 462.60 469.60 466.30 469.30 469.70 C 470.60 469.70 471.40 470.00 471.60 470.20 C 472.10 471.20 472.10 472.50 471.10 473.60 C 455.70 486.60 435.70 485.60 417.40 480.40 C 416.40 480.10 415.30 480.70 414.80 481.70 C 412.20 488.00 409.80 495.30 407.20 503.10 C 405.90 507.50 403.80 512.00 401.50 516.10 C 393.90 528.60 379.30 533.80 366.30 525.20 C 356.40 518.70 350.40 508.80 348.30 495.50 C 348.30 494.70 347.50 494.20 346.70 494.20 C 341.20 494.70 326.10 493.70 323.50 487.70 C 322.70 487.20 321.90 486.10 321.40 485.40 C 319.60 481.00 317.80 476.50 315.90 472.40 C 314.90 470.30 314.30 468.00 313.80 465.60 C 313.50 462.50 312.80 459.30 312.00 456.50 C 310.40 452.30 309.10 448.20 308.60 443.70 C 306.00 419.20 307.60 394.70 313.00 370.70 C 314.60 365.00 316.90 359.50 320.00 354.50 C 320.80 352.90 321.80 351.40 323.10 350.10 C 324.10 348.80 324.90 347.20 325.70 345.90 C 327.00 343.30 330.70 340.20 336.60 336.80 C 339.70 335.20 340.50 331.80 339.20 327.20 C 329.60 331.90 320.70 338.40 313.10 346.20 C 302.90 357.90 296.90 365.50 294.90 368.90 C 284.20 388.20 275.40 408.50 269.10 429.60 C 266.20 439.80 261.50 450.50 258.70 461.10 C 257.70 465.30 255.60 469.20 253.20 472.80 C 248.00 480.60 243.30 489.00 239.40 497.60 C 238.40 499.90 237.60 502.60 237.10 505.20 C 236.80 509.40 235.50 509.60 233.70 506.00 C 230.80 500.30 233.40 504.70 233.40 502.10 C 233.10 502.60 232.60 502.90 232.10 503.10 L 236.00 519.00 C 236.30 517.70 237.00 517.70 238.10 519.00 C 238.60 519.50 238.90 520.00 239.10 520.60 C 245.40 535.50 255.30 548.50 267.80 558.70 C 268.30 559.20 268.30 560.00 268.10 560.50 L 267.80 560.80 C 267.00 561.10 266.20 561.10 265.50 560.80 C 267.30 562.10 268.90 563.40 270.20 565.20 C 272.30 568.10 271.50 568.80 268.40 567.50 C 266.60 566.50 264.20 565.90 262.10 565.90 C 253.80 566.90 245.20 567.70 236.80 568.50 C 234.20 568.80 231.60 569.30 229.00 570.30 C 226.70 571.30 224.00 572.10 221.40 573.20 C 219.80 575.80 218.00 578.40 215.90 581.00 C 205.00 595.10 201.00 610.50 206.80 627.90 C 212.00 643.50 222.40 661.80 236.50 672.20 C 244.10 677.70 249.50 675.30 257.90 673.00 C 258.40 673.00 258.70 673.00 258.70 673.50 C 259.70 685.50 262.30 697.50 266.00 709.20 C 269.90 716.20 273.00 723.80 275.90 731.40 C 276.90 734.80 278.50 738.20 280.60 741.00 C 282.40 743.90 284.20 747.00 286.10 750.10 C 287.10 751.70 288.20 753.00 289.50 754.00 C 290.80 755.30 292.10 756.60 292.90 758.20 C 293.40 759.00 293.90 759.50 294.70 759.80 C 296.50 760.30 298.60 760.60 300.40 760.30 C 305.60 759.80 310.60 758.20 315.50 756.10 C 316.30 755.80 317.30 755.60 318.10 755.60 C 322.80 755.60 325.70 752.70 327.00 747.30 C 317.10 740.80 308.20 733.00 300.90 723.60 C 291.30 712.10 284.00 699.10 279.30 685.00 C 277.00 678.20 275.90 671.20 276.20 664.10 C 276.50 656.50 282.20 652.90 286.90 648.20 C 293.40 641.40 296.30 632.60 295.00 621.60 C 295.00 620.80 295.00 620.00 295.50 619.30 C 301.00 610.20 301.00 599.00 295.50 589.80 C 295.00 588.80 295.00 587.50 295.20 586.40 C 305.40 564.20 320.00 556.40 344.70 552.50 C 386.10 545.70 427.90 541.30 469.80 538.70 C 484.70 537.40 499.80 540.30 513.30 546.80 C 524.50 553.10 534.40 561.70 542.50 571.60 C 544.10 568.20 545.10 564.60 545.60 560.70 C 545.90 555.70 546.40 550.80 547.70 545.80 C 548.00 545.00 548.50 544.20 549.30 544.00 C 552.70 542.70 554.50 543.00 555.30 544.80 C 558.90 543.50 562.90 543.20 566.80 544.30 C 569.10 544.80 570.40 547.20 569.90 549.50 C 569.90 549.80 569.60 550.30 569.40 550.50 C 564.40 559.10 556.90 557.00 550.40 552.10 C 548.60 560.70 548.60 569.60 550.10 578.20 L 564.20 577.70 C 565.00 577.70 565.80 578.00 566.50 578.20 L 568.60 579.20 C 568.90 577.10 570.20 577.40 572.00 579.50 C 572.80 580.30 573.30 581.10 573.60 582.10 C 576.50 589.10 577.50 594.90 586.60 597.70 C 596.20 601.10 606.90 600.00 616.10 595.10 C 617.10 594.60 618.40 594.60 619.20 595.60 C 621.30 597.70 622.30 600.60 622.30 603.40 C 622.30 604.20 622.80 605.00 623.90 605.00 C 624.20 605.00 624.40 605.00 624.70 604.70 C 628.10 602.60 631.20 600.00 633.80 597.10 C 634.60 596.30 635.40 595.80 636.40 595.80 C 637.40 595.50 638.50 596.30 638.70 597.40 C 639.00 597.90 638.70 598.70 638.20 599.20 C 628.00 610.90 617.10 618.00 605.10 620.60 C 597.80 623.70 589.70 624.50 581.90 623.20 C 578.50 622.20 575.40 620.60 572.50 618.50 C 569.40 616.40 566.00 614.90 562.60 614.10 L 563.60 650.90 C 563.60 651.70 563.30 652.50 562.60 653.00 C 561.00 654.30 558.70 655.90 555.80 658.00 C 554.00 659.30 552.70 661.10 552.40 663.50 C 550.60 673.40 553.40 682.50 561.50 690.60 C 564.40 691.90 567.00 693.70 569.30 696.10 C 571.10 696.10 572.90 696.40 574.50 697.10 C 573.70 694.50 574.00 692.90 575.50 692.70 C 566.10 691.10 560.10 685.90 558.00 677.10 C 552.80 669.50 553.00 659.40 564.30 657.80 C 568.70 656.80 573.40 658.80 575.80 662.80 C 578.70 667.00 580.50 671.70 581.00 676.60 C 582.00 674.50 582.30 672.40 582.30 670.10 C 582.30 669.80 582.30 669.60 582.60 670.10 C 583.90 673.50 585.70 674.50 588.10 673.50 C 595.70 672.70 601.40 674.80 605.60 679.80 C 607.90 682.40 610.00 685.50 611.60 688.70 C 612.10 688.40 612.40 687.40 612.40 685.60 C 612.40 684.60 612.70 684.60 613.20 685.30 C 613.70 686.10 613.70 687.10 613.20 687.90 C 612.90 688.40 612.90 688.90 613.20 689.50 C 613.20 689.80 613.50 690.00 613.70 689.80 L 613.70 689.80 C 614.70 689.30 615.80 689.80 616.30 690.80 C 616.60 691.10 616.60 691.60 616.60 691.80 C 616.30 694.40 615.00 696.80 613.00 698.30 C 612.20 698.80 611.70 699.60 611.40 700.60 C 610.90 702.90 609.10 704.50 606.70 704.50 C 605.90 704.50 605.10 705.00 604.40 705.50 C 602.30 707.60 600.80 710.50 600.00 713.30 C 599.70 714.30 599.00 715.10 598.20 715.40 C 595.90 716.20 593.80 718.00 592.70 720.10 C 592.40 720.60 592.40 720.90 593.20 720.60 C 593.70 720.30 594.00 720.60 594.50 720.90 C 594.80 720.90 595.00 721.40 595.00 721.90 C 595.00 722.20 594.70 722.20 594.70 722.20 C 593.90 723.20 593.40 724.30 593.10 725.30 C 592.80 726.10 593.10 726.60 594.10 726.30 L 600.10 725.00 C 601.10 724.70 601.70 725.30 601.70 726.30 C 601.70 726.60 601.70 727.10 601.40 727.30 C 600.90 728.10 601.10 728.30 601.90 728.10 L 615.70 725.80 C 616.50 725.80 617.00 725.30 617.30 724.50 L 620.40 718.20 C 620.70 717.40 621.40 716.90 622.20 716.40 L 630.00 713.30 C 630.80 713.00 631.30 712.50 631.30 711.70 C 631.60 710.40 631.80 709.40 632.30 708.10 C 634.60 702.60 637.30 697.40 640.10 692.20 C 640.60 691.40 640.40 690.40 639.80 689.90 C 639.80 689.90 639.50 689.90 639.50 689.60 C 639.00 689.30 638.50 688.80 638.20 688.00 C 637.70 687.20 637.70 686.40 638.50 685.70 C 639.80 684.40 641.40 683.90 643.20 684.10 C 659.10 677.30 674.00 668.50 687.30 657.30 C 691.50 653.40 695.60 649.20 699.30 644.80 C 694.70 640.50 690.20 639.40 685.80 640.00 Z M 262.80 501.00 C 257.10 495.50 257.60 485.60 263.80 479.10 C 270.10 472.60 280.00 471.50 285.70 476.80 C 291.40 482.30 290.90 492.20 284.70 498.70 C 278.40 505.20 268.50 506.50 262.80 501.00 Z M 281.00 644.40 C 280.20 644.90 279.40 645.20 278.40 644.90 C 275.30 644.40 272.10 643.10 269.80 641.00 C 263.80 635.30 267.50 627.20 272.70 622.80 C 273.50 622.30 274.30 622.00 275.00 621.80 L 287.00 621.00 C 287.80 621.00 288.30 621.30 288.60 622.00 C 292.70 630.60 287.80 639.40 281.00 644.40 Z M 286.70 613.90 C 283.60 616.00 279.40 614.90 277.60 611.80 C 277.10 610.80 276.60 609.70 276.60 608.70 C 276.30 607.90 276.60 606.90 276.90 606.40 C 279.00 602.50 280.00 598.10 280.80 593.90 C 277.90 592.90 275.30 591.60 272.50 590.30 C 270.90 589.80 270.20 588.00 270.90 586.40 C 270.90 586.10 271.20 585.90 271.40 585.60 C 271.90 584.80 272.70 584.60 273.50 584.80 C 276.90 585.30 280.00 586.90 282.60 589.20 C 283.10 589.70 283.90 590.00 284.90 589.70 C 289.90 588.70 292.50 590.50 293.00 594.90 C 295.10 604.00 293.30 610.20 286.70 613.90 L 286.70 613.90 Z M 295.30 459.60 C 295.00 462.50 292.40 464.30 289.80 464.00 C 284.10 463.50 278.60 464.00 272.90 465.60 C 269.00 466.60 265.90 469.50 262.70 470.60 C 258.30 471.90 257.00 470.30 258.80 465.60 C 259.80 463.30 261.70 461.40 264.00 460.40 C 266.10 459.40 268.20 458.80 270.50 458.80 C 273.60 458.80 276.50 457.00 278.10 454.40 C 278.60 453.60 279.40 453.40 280.20 453.10 C 283.30 452.60 286.70 452.60 290.10 453.10 C 294.00 453.60 295.90 455.90 295.30 459.60 L 295.30 459.60 Z M 559.60 471.10 C 556.50 485.20 543.40 490.60 529.90 488.30 C 521.00 486.70 515.60 481.00 513.70 471.40 C 513.20 468.80 514.50 465.90 516.80 464.60 C 524.40 459.90 532.70 457.00 541.60 456.30 C 542.40 456.30 543.20 455.80 543.90 455.30 L 548.90 451.10 C 549.40 450.60 550.50 450.30 551.20 450.30 C 552.50 450.30 553.80 451.10 554.60 452.10 C 555.10 452.60 555.60 453.10 556.20 453.40 C 561.20 456.20 560.70 466.40 559.60 471.10 L 559.60 471.10 Z M 588.60 514.80 C 592.20 507.20 597.70 500.50 604.50 495.30 C 611.80 489.80 621.20 495.00 624.80 502.10 C 625.10 502.60 625.30 503.10 625.10 503.70 C 624.80 504.70 624.30 504.70 623.50 504.20 C 620.90 501.60 617.00 501.10 613.90 502.90 C 609.20 505.20 605.00 507.90 600.90 511.00 C 597.50 513.30 593.90 515.20 590.00 516.20 C 589.50 516.50 588.70 515.90 588.70 515.40 C 588.30 515.40 588.30 515.10 588.60 514.80 L 588.60 514.80 Z M 643.80 569.80 L 642.50 570.10 C 639.90 570.60 637.30 568.80 636.80 566.20 L 636.80 566.20 C 635.80 560.50 633.70 555.00 630.50 550.00 C 630.00 549.20 629.20 549.20 628.40 549.70 C 628.10 550.00 627.90 550.20 627.90 550.50 C 626.60 554.70 624.00 558.30 620.30 560.90 C 616.90 563.20 612.70 564.30 608.60 563.80 C 599.00 562.80 592.70 557.00 589.60 547.40 C 588.30 544.30 589.10 540.40 591.70 538.30 C 595.30 534.90 600.60 534.10 605.00 536.20 C 605.80 536.50 606.60 536.50 607.30 536.20 C 611.20 534.40 614.30 532.00 617.20 528.90 C 619.00 527.10 620.10 524.50 619.50 521.90 C 619.00 519.60 618.20 517.50 616.90 515.40 C 616.40 514.40 616.60 513.10 617.70 512.50 C 618.20 512.20 618.70 512.20 619.00 512.20 L 627.10 513.80 C 628.10 514.10 629.20 513.50 629.70 512.80 C 630.50 512.00 630.70 510.70 630.70 509.70 C 630.70 507.10 631.50 506.80 632.80 509.20 L 643.00 529.00 C 647.20 537.30 649.80 548.30 650.30 562.10 C 650.80 566.00 648.20 569.40 644.30 569.90 C 644.10 569.80 643.80 570.10 643.80 569.80 L 643.80 569.80 Z" fill="#fe6048" fill-rule="nonzero" node-id="88" stroke="none" target-height="458.19998" target-width="498.3" target-x="201" target-y="302.4"></path><path d="M 412.90 302.10 C 413.20 302.60 413.20 303.10 412.90 303.70 C 412.60 304.50 412.60 305.30 413.20 306.00 C 414.00 307.80 413.70 309.90 412.40 311.50 C 411.90 312.30 411.10 312.80 410.30 313.10 C 409.30 313.40 408.50 313.90 407.70 314.70 C 407.20 315.20 406.40 315.70 405.60 316.00 L 398.30 317.80 C 395.40 318.60 392.60 316.80 392.00 314.20 C 392.00 313.90 392.00 313.70 391.70 313.40 C 391.40 311.60 390.90 310.00 389.60 309.00 C 388.80 308.20 388.60 308.50 388.60 309.50 C 388.60 310.30 388.90 311.10 389.40 311.80 C 389.90 312.60 390.20 313.40 390.20 314.10 L 390.20 323.20 C 390.20 324.00 390.50 324.80 391.00 325.30 C 394.90 329.70 400.40 332.30 406.10 332.60 C 408.40 332.90 410.80 331.80 412.40 330.30 C 412.90 329.80 413.40 329.80 414.00 330.00 C 414.80 330.30 415.60 330.30 416.10 329.50 C 417.90 327.70 420.30 325.90 422.40 324.30 C 424.00 323.30 426.30 323.30 427.90 324.30 C 430.80 326.40 433.40 326.60 435.50 325.30 C 439.10 328.20 444.10 328.70 448.50 327.10 C 459.40 339.90 466.50 356.80 470.10 377.90 C 474.50 404.50 474.50 431.30 470.10 457.90 C 469.60 461.50 469.10 465.20 468.80 468.60 C 453.40 485.00 426.10 480.30 407.50 471.70 C 400.20 468.30 391.60 468.80 384.80 473.00 C 373.10 479.80 361.30 488.60 347.30 488.90 C 339.50 489.40 331.90 488.10 324.60 485.00 C 324.10 484.70 323.60 485.00 323.00 485.30 C 322.70 485.60 322.70 486.10 322.70 486.30 C 321.90 485.80 321.10 484.70 320.60 484.00 C 318.80 479.60 317.00 475.10 315.10 471.00 C 314.10 468.90 313.50 466.60 313.00 464.20 C 312.70 461.10 312.00 457.90 311.20 455.10 C 309.60 450.90 308.30 446.80 307.80 442.30 C 305.20 417.80 306.80 393.30 312.20 369.30 C 313.80 363.60 316.10 358.10 319.20 353.10 C 320.00 351.50 321.00 350.00 322.30 348.70 C 323.30 347.40 324.10 345.80 324.90 344.50 C 326.20 341.90 329.90 338.80 335.80 335.40 C 338.90 333.80 339.70 330.40 338.40 325.80 L 345.20 321.40 C 346.20 321.70 346.50 322.40 346.20 323.20 C 344.40 327.90 345.40 331.00 350.10 332.60 C 351.10 332.90 352.20 332.90 353.20 332.60 C 357.60 331.00 362.30 331.00 366.50 332.30 C 367.50 332.60 368.60 332.60 369.40 332.00 C 373.00 329.90 376.40 327.00 375.10 322.10 C 374.30 318.70 372.20 316.10 369.40 314.50 C 368.60 314.20 368.40 313.20 368.40 312.40 C 368.70 311.60 368.90 310.80 369.40 310.10 L 385.30 305.70 L 391.80 306.50 C 392.60 306.50 393.40 307.00 393.90 307.80 C 394.70 309.10 395.20 310.40 395.50 312.00 C 395.80 314.10 397.60 315.60 399.70 315.60 C 400.00 315.60 400.20 315.60 400.70 315.30 C 407.20 313.20 410.30 309.80 410.60 305.10 L 412.90 302.10 Z M 365.70 446.80 C 365.70 445.50 363.60 444.50 361.30 444.50 C 359.00 444.50 356.90 445.50 356.90 446.80 C 356.90 448.10 359.00 449.10 361.30 449.10 C 363.60 449.10 365.70 448.10 365.70 446.80 L 365.70 446.80 Z" fill="#df615d" fill-rule="nonzero" node-id="90" stroke="none" target-height="187.29999" target-width="169.29999" target-x="305.2" target-y="302.1"></path><path d="M 410.60 305.50 C 410.30 310.20 407.20 313.30 400.70 315.70 C 398.60 316.50 396.50 315.40 395.70 313.40 C 395.70 313.10 395.40 312.90 395.40 312.40 C 395.10 310.80 394.60 309.50 393.80 308.20 C 393.30 307.40 392.50 306.90 391.70 306.90 L 385.20 306.10 C 387.30 304.30 390.20 304.00 392.50 305.10 C 393.30 305.40 394.10 305.60 394.80 305.40 C 397.90 304.60 401.30 305.10 404.20 306.70 C 406.60 307.60 409.20 307.10 410.60 305.50 Z" fill="#f4c5a9" fill-rule="nonzero" node-id="92" stroke="none" target-height="12.5" target-width="25.399994" target-x="385.2" target-y="304"></path><path d="M 369.40 310.50 C 368.90 311.00 368.40 311.80 368.40 312.80 C 368.10 313.60 368.70 314.40 369.40 314.90 C 372.30 316.50 374.60 319.30 375.10 322.50 C 376.10 327.50 373.00 330.30 369.40 332.40 C 368.60 332.90 367.30 332.90 366.50 332.70 C 362.10 331.10 357.40 331.10 353.20 333.00 C 352.20 333.30 351.10 333.30 350.10 333.00 C 345.70 331.20 344.40 328.00 346.20 323.60 C 346.50 322.80 346.20 322.30 345.20 321.80 C 345.70 320.20 346.20 318.90 346.50 317.40 C 346.80 316.60 347.00 315.80 347.50 315.10 C 348.30 314.30 349.10 314.10 350.10 314.30 C 348.80 316.40 349.80 317.40 353.50 317.20 C 354.80 316.90 356.10 316.70 357.10 315.90 C 361.30 313.10 365.50 311.50 369.40 310.50 Z" fill="#f88b79" fill-rule="nonzero" node-id="94" stroke="none" target-height="22.799988" target-width="31.700012" target-x="344.4" target-y="310.5"></path><path d="M 448.30 326.90 C 443.90 328.50 438.90 327.90 435.30 325.10 L 440.30 314.40 C 441.60 311.50 445.30 310.20 448.40 311.50 C 448.40 311.50 448.40 311.50 448.70 311.50 C 452.30 313.10 455.20 315.90 457.00 319.30 C 457.50 320.30 457.30 321.60 456.20 322.40 C 455.90 322.40 455.90 322.70 455.70 322.70 C 452.50 323.30 449.90 324.60 448.30 326.90 Z" fill="#f88b79" fill-rule="nonzero" node-id="96" stroke="none" target-height="18.299988" target-width="22.200012" target-x="435.3" target-y="310.2"></path><path d="M 682.90 339.70 C 679.30 342.00 674.80 343.30 670.40 343.60 C 665.20 343.60 659.70 344.10 653.70 344.60 C 661.50 341.00 669.60 338.30 677.70 336.50 C 678.70 336.20 679.80 336.20 680.80 336.80 C 682.40 337.10 682.90 338.40 682.90 339.70 Z" fill="#f88b79" fill-rule="nonzero" node-id="98" stroke="none" target-height="8.399994" target-width="29.200012" target-x="653.7" target-y="336.2"></path><path d="M 682.90 339.70 C 683.90 342.00 684.70 344.70 685.20 347.30 C 680.20 347.80 675.30 349.60 670.90 352.30 C 670.10 352.60 669.90 353.30 670.10 354.10 L 673.70 365.00 C 674.20 366.80 673.20 368.40 671.60 369.20 C 671.10 369.50 670.60 369.50 670.00 369.20 C 667.10 368.70 664.30 368.20 661.40 367.90 C 654.60 367.10 647.30 362.20 641.10 359.60 C 640.60 359.30 640.10 359.30 639.50 359.30 L 624.60 360.10 L 650.90 346.50 C 651.70 345.70 652.70 345.20 653.80 344.90 C 659.50 344.40 665.00 344.10 670.50 343.90 C 674.90 343.30 679.30 342.00 682.90 339.70 Z" fill="#b14f59" fill-rule="nonzero" node-id="100" stroke="none" target-height="29.799988" target-width="60.600037" target-x="624.6" target-y="339.7"></path><path d="M 309.70 342.50 L 310.70 342.50 C 311.20 342.50 311.70 342.80 311.70 343.30 L 311.70 343.30 C 311.70 343.80 312.00 344.10 312.20 344.30 C 302.00 356.00 296.00 363.60 294.00 367.00 C 283.30 386.30 274.50 406.60 268.20 427.70 C 265.30 437.90 260.60 448.60 257.80 459.20 C 256.80 463.40 254.70 467.30 252.30 470.90 C 247.10 478.70 242.40 487.10 238.50 495.70 C 237.50 498.00 236.70 500.70 236.20 503.30 C 235.90 507.50 234.60 507.70 232.80 504.10 C 229.90 498.40 232.50 502.80 232.50 500.20 C 236.90 489.50 243.20 478.80 247.40 468.90 C 250.50 461.10 253.70 453.30 256.50 445.40 C 259.10 438.40 261.50 431.10 263.00 424.00 C 266.90 409.40 271.60 395.30 277.30 381.30 C 277.80 380.00 277.60 378.40 276.50 377.70 C 272.10 373.30 267.10 369.60 261.60 366.80 C 249.60 361.10 238.10 353.80 227.70 345.40 C 230.30 345.40 232.90 346.40 235.00 348.00 C 237.10 349.60 239.20 350.90 241.30 352.20 C 253.80 357.90 265.80 364.70 277.00 372.50 C 278.60 373.50 280.90 373.30 282.20 371.70 L 301.00 347.20 C 302.60 348.50 303.90 348.50 304.60 347.50 C 306.30 345.70 307.90 343.80 309.70 342.50 Z" fill="#ffd9bf" fill-rule="nonzero" node-id="102" stroke="none" target-height="165.20001" target-width="84.500015" target-x="227.7" target-y="342.5"></path><path d="M 227.80 345.70 C 238.20 354.00 249.70 361.30 261.70 367.10 C 267.20 370.00 272.10 373.60 276.60 378.00 C 277.60 379.00 277.90 380.30 277.40 381.60 C 271.70 395.40 266.70 409.80 263.10 424.10 C 261.30 431.40 259.20 438.70 256.60 445.50 C 253.50 453.60 250.60 461.40 247.50 469.00 C 243.60 478.90 237.30 489.60 232.60 500.30 C 232.30 500.80 231.80 501.10 231.30 501.30 C 228.20 495.30 226.30 488.80 226.10 482.00 C 225.80 478.90 227.90 475.70 232.10 473.10 L 241.50 441.80 C 241.80 441.00 242.30 440.20 242.80 439.70 C 245.10 437.40 246.20 434.50 246.40 431.40 C 246.40 430.40 246.70 429.60 247.20 428.80 C 250.30 424.10 251.90 418.60 251.60 412.90 C 251.60 411.60 250.80 410.80 249.50 410.60 C 238.00 408.50 233.90 397.60 243.50 390.30 C 249.50 385.60 257.30 384.00 264.40 386.10 C 265.20 386.40 266.00 386.10 266.50 385.60 L 270.90 380.10 C 272.20 378.50 271.90 376.50 270.40 375.40 C 269.60 374.90 268.80 374.60 267.80 374.60 C 262.30 375.40 258.90 372.30 254.20 372.00 C 249.00 371.70 243.50 372.50 238.60 374.30 C 237.80 374.60 237.30 374.60 236.50 374.60 C 235.70 374.30 234.90 374.60 234.20 374.90 C 231.30 377.00 227.70 378.30 224.00 378.50 C 223.20 378.50 222.40 378.80 221.70 379.30 L 216.00 383.50 C 215.20 384.00 215.00 384.80 214.70 385.60 C 213.90 389.20 211.80 392.40 208.70 394.50 C 212.40 377.50 219.00 361.10 227.80 345.70 Z M 247.90 439.30 C 250.00 437.00 251.30 434.10 251.50 431.00 C 251.50 429.70 251.50 429.70 250.70 430.70 L 246.00 440.30 C 245.50 441.30 245.70 441.60 246.80 441.10 C 247.60 440.80 247.90 440.00 247.90 439.30 L 247.90 439.30 Z" fill="#a7343f" fill-rule="nonzero" node-id="104" stroke="none" target-height="155.59998" target-width="69.2" target-x="208.7" target-y="345.7"></path><path d="M 685.30 347.20 C 688.90 363.40 692.30 381.60 694.90 402.20 C 696.20 409.80 695.40 417.60 692.30 424.90 C 690.20 429.90 688.70 434.80 687.10 440.00 C 686.80 440.50 687.40 441.00 687.90 441.30 C 688.20 441.30 688.20 441.30 688.40 441.30 C 698.00 439.00 707.90 439.00 717.60 441.30 C 721.80 442.10 724.60 445.50 724.40 449.60 C 725.20 465.20 723.90 481.10 720.20 496.50 C 716.30 507.40 712.60 519.20 709.30 531.70 C 706.20 543.40 698.40 548.40 685.60 546.60 C 684.60 546.30 684.00 545.80 683.50 544.80 C 680.90 539.30 679.10 533.60 677.80 527.90 C 678.10 520.90 676.20 513.80 672.80 507.60 C 672.00 506.30 672.50 504.70 673.60 504.00 C 674.10 503.70 674.60 503.70 675.20 503.70 C 683.80 503.40 688.80 498.20 689.50 488.80 C 690.00 482.00 688.50 472.60 679.30 473.40 C 675.70 473.70 672.30 474.70 668.90 476.00 C 664.20 478.10 660.60 476.80 658.20 472.60 C 657.90 472.10 657.40 471.80 656.90 471.80 C 656.40 471.80 655.90 471.50 655.60 470.50 C 655.60 470.20 655.60 469.70 655.90 469.50 C 657.50 467.40 659.30 465.60 661.10 463.80 C 667.10 459.10 666.30 456.50 658.80 455.70 C 654.10 455.20 647.30 455.20 639.00 455.20 C 631.70 433.00 621.50 411.90 608.80 392.40 C 605.70 388.00 601.80 383.80 597.60 380.10 C 597.10 379.80 596.80 379.60 596.60 379.30 C 596.10 378.80 596.30 377.70 596.90 377.50 L 597.20 377.50 L 625.10 360.00 L 640.00 359.20 C 640.50 359.20 641.00 359.20 641.60 359.50 C 647.90 362.10 655.20 367.10 661.90 367.80 C 664.80 368.10 667.60 368.60 670.50 369.10 C 672.30 369.40 673.90 368.30 674.40 366.50 C 674.40 366.00 674.40 365.50 674.40 364.90 L 670.80 354.00 C 670.50 353.20 670.80 352.40 671.60 352.20 C 675.40 349.30 680.10 347.80 685.30 347.20 Z M 642.80 385.60 C 642.30 385.10 641.80 384.60 641.00 384.30 L 623.30 379.90 C 621.50 379.40 619.70 380.70 619.10 382.20 C 618.80 383.00 619.10 383.80 619.40 384.30 L 631.70 411.40 C 632.50 413.00 634.60 413.70 636.10 413.00 C 636.40 413.00 636.60 412.70 636.60 412.70 L 651.50 402.00 C 653.10 401.00 653.30 398.90 652.30 397.30 L 652.30 397.30 L 642.80 385.60 Z" fill="#63344a" fill-rule="nonzero" node-id="106" stroke="none" target-height="201.20001" target-width="129.10004" target-x="596.1" target-y="347.2"></path><path d="M 231.70 473.70 C 228.60 473.20 225.40 472.40 222.30 471.40 C 216.00 469.80 211.40 464.60 210.30 458.10 C 209.00 451.30 207.70 444.80 206.40 438.00 C 205.10 431.50 204.30 424.70 204.60 417.90 C 205.10 410.10 206.40 402.30 208.20 394.70 C 211.10 392.60 213.40 389.50 214.20 385.80 C 214.50 385.00 215.00 384.20 215.50 383.70 L 221.20 379.50 C 222.00 379.00 222.80 378.70 223.50 378.70 C 227.10 378.40 230.80 377.10 233.70 375.10 C 234.50 374.80 235.30 374.60 236.00 374.80 C 236.80 374.80 237.30 374.80 238.10 374.50 C 243.10 372.70 248.50 371.90 253.70 372.20 C 258.40 372.50 261.80 375.60 267.30 374.80 C 269.10 374.50 270.90 375.80 271.20 377.70 C 271.20 378.70 270.90 379.50 270.40 380.30 L 266.00 385.80 C 265.50 386.30 264.70 386.60 263.90 386.30 C 256.60 384.20 248.80 385.80 242.80 390.50 C 233.40 397.80 237.60 408.70 248.80 410.80 C 250.10 410.80 250.90 411.80 250.90 413.10 C 251.20 418.80 249.60 424.30 246.50 429.00 C 246.00 429.80 245.70 430.60 245.70 431.60 C 245.70 434.70 244.40 437.90 242.10 439.90 C 241.60 440.40 241.10 441.20 240.80 442.00 L 231.70 473.70 Z" fill="#63344a" fill-rule="nonzero" node-id="108" stroke="none" target-height="101.80002" target-width="66.90001" target-x="204.3" target-y="371.9"></path><path d="M 642.80 385.60 L 651.90 397.60 C 652.90 399.20 652.70 401.20 651.40 402.30 L 651.40 402.30 L 636.50 413.00 C 634.90 414.00 632.90 413.80 631.80 412.20 C 631.50 411.90 631.50 411.70 631.50 411.70 L 619.20 384.60 C 618.40 383.00 619.20 381.00 620.80 380.20 C 621.60 379.90 622.40 379.90 622.90 379.90 L 640.60 384.30 C 641.80 384.50 642.30 385.00 642.80 385.60 Z" fill="#b14f59" fill-rule="nonzero" node-id="110" stroke="none" target-height="34.100006" target-width="34.5" target-x="618.4" target-y="379.9"></path><path d="M 503.10 410.10 C 513.00 414.80 518.70 436.40 518.00 447.40 C 518.00 449.70 516.20 451.30 513.80 451.30 C 510.70 451.30 507.80 449.20 507.00 446.10 C 504.10 434.90 502.00 423.40 500.70 412.00 C 500.40 411.20 501.00 410.40 502.00 410.20 C 502.30 409.80 502.80 409.80 503.10 410.10 Z" fill="#760906" fill-rule="nonzero" node-id="112" stroke="none" target-height="41.5" target-width="18.300018" target-x="500.4" target-y="409.8"></path><path d="M 247.90 439.30 C 247.90 440.10 247.60 440.90 246.90 441.10 C 245.90 441.60 245.60 441.40 246.10 440.30 L 251.10 430.70 C 251.60 429.70 251.90 429.70 251.90 431.00 C 251.30 434.00 250.00 436.90 247.90 439.30 Z" fill="#c33935" fill-rule="nonzero" node-id="114" stroke="none" target-height="11.899994" target-width="6.299988" target-x="245.6" target-y="429.7"></path><g node-id="219"><path d="M 361.27 444.57 L 363.04 444.77 L 364.38 445.25 L 365.35 446.03 L 365.66 446.88 L 365.35 447.73 L 364.37 448.50 L 363.03 448.98 L 361.26 449.17 L 359.49 448.98 L 358.15 448.49 L 357.17 447.72 L 356.86 446.86 L 357.18 446.01 L 358.15 445.24 L 359.49 444.76 L 361.27 444.57 Z" fill="#a7343f" fill-rule="nonzero" group-id="1" node-id="118" stroke="none" target-height="4.600006" target-width="8.799988" target-x="356.86108" target-y="444.57208"></path></g><path d="M 555.70 453.30 C 561.20 455.90 560.70 466.10 559.30 471.30 C 556.20 485.40 543.10 490.80 529.60 488.50 C 520.70 486.90 515.30 481.20 513.40 471.60 C 512.90 469.00 513.90 466.10 516.50 464.80 C 524.10 460.10 532.40 457.20 541.30 456.50 C 542.10 456.50 542.90 456.00 543.60 455.50 L 548.60 451.30 C 549.10 450.80 550.20 450.50 550.90 450.50 C 552.20 450.50 553.50 451.30 554.30 452.30 C 554.70 452.50 555.20 453.10 555.70 453.30 Z" fill="#f88b79" fill-rule="nonzero" node-id="121" stroke="none" target-height="40.299988" target-width="48.299988" target-x="512.9" target-y="450.5"></path><path d="M 258.80 465.60 C 259.80 463.30 261.70 461.40 264.00 460.40 C 266.10 459.40 268.20 458.80 270.50 458.80 C 273.60 458.80 276.50 457.00 278.10 454.40 C 278.60 453.60 279.40 453.40 280.20 453.10 C 283.30 452.60 286.70 452.60 290.10 453.10 C 294.30 453.90 296.10 456.20 295.60 459.90 C 295.30 462.80 292.70 464.60 290.10 464.30 C 284.40 463.80 278.90 464.30 273.20 465.90 C 269.30 466.90 266.20 469.80 263.00 470.90 C 258.30 471.80 257.00 470.30 258.80 465.60 Z" fill="#760906" fill-rule="nonzero" node-id="123" stroke="none" target-height="19.199982" target-width="39.100006" target-x="257" target-y="452.6"></path><path d="M 677.50 527.60 C 674.90 515.30 669.90 503.90 663.20 493.50 C 662.70 492.50 661.40 490.40 659.60 487.00 C 658.00 483.60 655.70 481.80 654.10 478.70 C 652.00 474.30 649.10 470.40 645.50 467.20 C 642.60 463.60 640.30 459.60 638.50 455.20 C 646.80 455.20 653.60 455.50 658.30 455.70 C 665.90 456.50 666.60 459.10 660.60 463.80 C 658.80 465.60 657.00 467.40 655.40 469.50 C 655.10 469.80 655.10 470.30 655.10 470.50 C 655.40 471.30 655.60 471.80 656.40 471.80 C 656.90 471.80 657.40 472.10 657.70 472.60 C 660.00 476.80 663.70 477.80 668.40 475.70 C 671.80 474.40 675.20 473.40 678.80 473.10 C 687.90 472.30 689.70 481.70 689.00 488.50 C 688.00 497.90 683.30 503.10 674.70 503.40 C 673.10 503.40 672.10 504.40 672.10 506.00 C 672.10 506.50 672.10 507.00 672.40 507.60 C 676.20 513.50 677.70 520.60 677.50 527.60 Z" fill="#cf4847" fill-rule="nonzero" node-id="125" stroke="none" target-height="72.39996" target-width="51.200012" target-x="638.5" target-y="455.2"></path><path d="M 468.40 468.40 C 469.70 468.40 470.50 468.70 470.70 468.90 C 471.20 469.90 471.20 471.20 470.20 472.30 C 454.80 485.30 434.80 484.30 416.50 479.10 C 415.50 478.80 414.40 479.40 413.90 480.40 C 411.30 486.70 408.90 494.00 406.30 501.80 C 405.00 506.20 402.90 510.70 400.60 514.80 C 393.00 527.30 378.40 532.50 365.40 523.90 C 355.50 517.40 349.50 507.50 347.40 494.20 C 347.40 493.40 346.60 492.90 345.80 492.90 C 340.30 493.40 325.20 492.40 322.60 486.40 C 322.30 486.10 322.60 485.90 322.90 485.40 C 323.40 484.90 323.90 484.90 324.50 485.10 C 331.50 488.20 339.40 489.50 347.20 489.00 C 361.30 488.70 373.00 479.60 384.70 473.10 C 391.50 468.90 400.10 468.40 407.40 471.80 C 425.40 480.20 452.80 485.10 468.40 468.40 Z M 387.40 476.00 C 377.00 481.50 366.50 488.80 355.10 492.90 C 352.80 493.40 351.50 495.80 352.00 497.90 C 352.00 497.90 352.00 497.90 352.00 498.20 C 356.70 525.60 387.70 538.60 400.70 506.80 C 404.10 498.20 407.50 489.10 410.90 479.40 C 411.40 478.40 410.90 476.80 409.90 476.30 C 409.90 476.30 409.90 476.30 409.60 476.30 C 402.50 472.40 394.10 472.40 387.40 476.00 Z" fill="#c33935" fill-rule="nonzero" node-id="127" stroke="none" target-height="70.19998" target-width="148.90002" target-x="322.3" target-y="468.4"></path><path d="M 354.80 492.90 C 366.30 489.00 376.70 481.70 387.10 476.20 C 393.90 472.60 402.20 472.60 409.30 476.20 C 410.60 476.70 411.10 478.00 410.60 479.10 C 410.60 479.10 410.60 479.10 410.60 479.40 C 407.50 489.00 404.10 498.20 400.40 506.80 C 387.40 538.60 356.60 525.60 351.70 498.20 C 351.10 495.80 352.40 493.50 354.80 492.90 L 354.80 492.90 Z" fill="#ffa490" fill-rule="nonzero" node-id="129" stroke="none" target-height="65.99997" target-width="60" target-x="351.1" target-y="472.6"></path><path d="M 285.79 476.88 L 287.48 478.87 L 288.70 481.06 L 289.47 483.50 L 289.78 486.05 L 289.66 488.67 L 289.08 491.38 L 288.08 493.97 L 286.63 496.45 L 284.71 498.84 L 282.42 500.90 L 280.03 502.48 L 277.50 503.63 L 274.82 504.36 L 272.22 504.63 L 269.65 504.45 L 267.17 503.82 L 264.92 502.73 L 262.84 501.15 L 261.15 499.17 L 259.93 496.97 L 259.16 494.54 L 258.85 491.98 L 258.97 489.37 L 259.55 486.66 L 260.55 484.07 L 262.00 481.59 L 263.93 479.19 L 266.21 477.13 L 268.61 475.55 L 271.14 474.41 L 273.81 473.68 L 276.41 473.41 L 278.98 473.58 L 281.46 474.21 L 283.71 475.31 L 285.79 476.88 Z" fill="#ffa490" fill-rule="nonzero" group-id="2" node-id="133" stroke="none" target-height="31.220581" target-width="30.937561" target-x="258.84702" target-y="473.40753"></path><path d="M 600.60 511.20 C 597.20 513.50 593.60 515.40 589.70 516.40 C 589.20 516.70 588.40 516.10 588.40 515.60 C 588.40 515.30 588.40 515.10 588.40 514.80 C 592.00 507.20 597.50 500.50 604.30 495.30 C 611.60 489.80 621.00 495.00 624.60 502.10 C 624.90 502.60 625.10 503.10 624.90 503.70 C 624.60 504.70 624.10 504.70 623.30 504.20 C 620.70 501.60 616.80 501.10 613.70 502.90 C 609.20 505.20 604.70 508.10 600.60 511.20 Z" fill="#ffbca9" fill-rule="nonzero" node-id="136" stroke="none" target-height="26.900024" target-width="36.69995" target-x="588.4" target-y="489.8"></path><path d="M 720.00 496.30 C 724.20 500.20 727.60 504.90 730.40 509.90 C 749.90 546.70 744.20 594.10 724.90 629.80 C 718.60 640.20 711.30 649.90 703.30 658.70 C 699.90 662.60 697.00 667.30 695.50 672.30 C 693.70 678.30 692.10 683.80 690.80 689.00 C 690.50 690.00 690.00 691.10 689.00 691.90 C 686.10 691.90 685.10 689.80 685.40 686.40 C 686.70 675.50 690.40 665.30 696.60 656.20 C 696.90 655.70 696.90 655.20 696.90 654.90 C 696.60 654.40 696.60 653.90 696.90 653.30 C 697.40 651.70 696.90 651.50 695.60 652.30 C 693.80 653.10 692.20 654.60 691.20 656.50 C 688.90 661.70 684.40 665.60 678.90 667.20 C 677.90 667.50 677.10 668.00 676.60 668.80 C 674.80 670.40 672.70 671.70 670.30 672.40 C 663.80 676.00 657.00 679.20 650.20 682.00 C 647.30 683.30 644.20 684.10 640.80 684.30 C 639.50 684.60 639.20 684.00 640.50 683.30 C 641.00 683.00 641.50 682.50 641.80 681.70 C 657.70 674.90 672.60 666.10 685.90 654.90 C 690.10 651.00 694.20 646.80 697.90 642.40 C 698.20 644.00 697.90 645.80 697.10 647.40 C 696.80 647.70 697.10 648.20 697.40 648.40 C 697.70 648.70 697.90 648.70 697.90 648.90 C 698.40 649.20 699.20 648.90 699.70 648.40 C 704.40 642.40 707.00 634.80 707.00 627.00 C 707.30 614.50 704.70 602.00 698.90 590.80 C 698.10 589.20 696.30 588.70 694.70 589.20 C 694.40 589.20 694.40 589.50 694.20 589.50 L 677.50 602.00 C 679.80 598.10 680.60 595.20 680.10 593.40 C 679.80 592.90 679.80 592.10 680.10 591.60 C 680.60 590.30 680.60 588.70 679.80 587.40 L 689.20 584.80 C 690.50 584.50 691.80 583.80 692.60 582.70 C 693.40 581.90 693.40 580.90 692.60 580.10 L 692.60 580.10 C 692.30 579.80 692.30 579.30 692.60 579.10 L 692.60 579.10 C 693.40 578.30 693.60 577.30 693.40 576.20 C 692.40 571.50 691.30 566.60 690.50 561.30 C 690.20 560.50 690.00 559.50 689.50 559.00 C 687.40 556.10 686.10 552.50 686.40 548.80 C 686.40 548.00 686.10 547.20 685.40 547.00 L 684.60 546.50 C 697.40 548.30 705.20 543.40 708.30 531.60 C 712.40 519.00 716.00 507.30 720.00 496.30 Z M 720.70 553.40 C 723.00 550.80 723.30 546.90 721.50 543.80 C 721.00 543.00 720.20 542.50 719.20 542.50 L 711.40 542.20 C 710.40 542.20 709.60 542.70 709.10 543.50 C 707.30 547.70 709.10 552.90 713.30 554.70 C 714.10 555.00 714.90 555.20 715.40 555.20 C 717.60 556.30 719.70 555.20 720.70 553.40 Z" fill="#c33935" fill-rule="nonzero" node-id="138" stroke="none" target-height="195.60004" target-width="110.70001" target-x="639.2" target-y="496.3"></path><path d="M 591.40 538.00 C 595.00 534.60 600.30 533.80 604.70 535.90 C 605.50 536.20 606.30 536.20 607.00 535.90 C 610.90 534.10 614.00 531.70 616.90 528.60 C 618.70 526.80 619.80 524.20 619.20 521.60 C 618.70 519.30 617.90 517.20 616.60 515.10 C 616.10 514.10 616.30 512.80 617.40 512.20 C 617.90 511.90 618.40 511.90 618.70 511.90 L 626.80 513.50 C 627.80 513.80 628.90 513.20 629.40 512.50 C 630.20 511.70 630.40 510.40 630.40 509.40 C 630.40 506.80 631.20 506.50 632.50 508.90 L 642.70 528.70 C 646.90 537.00 649.50 548.00 650.00 561.80 C 650.50 565.70 647.70 569.10 644.00 569.60 C 644.00 569.60 644.00 569.60 643.70 569.60 L 642.40 569.90 C 639.80 570.40 637.20 568.60 636.70 566.00 L 636.70 566.00 C 635.70 560.30 633.60 554.80 630.40 549.80 C 629.90 549.00 629.10 549.00 628.30 549.50 C 628.00 549.80 627.80 550.00 627.80 550.30 C 626.50 554.50 623.90 558.10 620.20 560.70 C 616.80 563.00 612.60 564.10 608.50 563.60 C 598.90 562.60 592.60 556.80 589.50 547.20 C 588.30 544.00 589.10 540.40 591.40 538.00 Z" fill="#6c3d4f" fill-rule="nonzero" node-id="140" stroke="none" target-height="63.900024" target-width="62.200012" target-x="588.3" target-y="506.5"></path><path d="M 264.60 559.70 L 260.70 556.30 C 250.50 546.40 238.30 531.80 234.90 517.70 C 235.20 516.40 235.90 516.40 237.00 517.70 C 237.50 518.20 237.80 518.70 238.00 519.30 C 244.30 534.20 254.20 547.20 266.70 557.40 C 267.20 557.90 267.20 558.70 267.00 559.20 L 266.70 559.50 C 265.90 559.90 265.10 559.90 264.60 559.70 Z" fill="#c33935" fill-rule="nonzero" node-id="142" stroke="none" target-height="43.5" target-width="32.30002" target-x="234.9" target-y="516.4"></path><path d="M 541.10 570.10 C 543.40 575.60 545.00 581.00 546.10 587.00 C 548.20 596.90 553.70 606.00 561.70 612.30 L 562.70 649.10 C 562.70 649.90 562.40 650.70 561.70 651.20 C 560.10 652.50 557.80 654.10 554.90 656.20 C 553.10 657.50 551.80 659.30 551.50 661.70 C 549.70 671.60 552.50 680.70 560.60 688.80 C 553.60 695.10 542.90 700.00 528.80 703.10 C 466.50 717.70 407.90 725.00 352.90 725.30 C 334.90 725.30 317.20 724.50 299.50 722.40 C 289.90 710.90 282.60 697.90 277.90 683.80 C 275.60 677.00 274.50 670.00 274.80 662.90 C 275.10 655.30 280.80 651.70 285.50 647.00 C 292.00 640.20 294.90 631.40 293.60 620.40 C 293.60 619.60 293.60 618.80 294.10 618.10 C 299.60 609.00 299.60 597.80 294.10 588.60 C 293.60 587.60 293.60 586.30 293.80 585.20 C 304.00 563.00 318.60 555.20 343.30 551.30 C 384.70 544.50 426.50 540.10 468.40 537.50 C 483.30 536.20 498.40 539.10 511.90 545.60 C 523.20 551.60 533.10 559.90 541.10 570.10 Z M 432.70 595.40 C 436.30 586.00 430.90 575.10 420.70 571.20 C 410.50 567.30 399.30 571.70 395.70 581.10 C 392.10 590.50 397.50 601.40 407.70 605.30 C 417.80 609.20 429.10 604.80 432.70 595.40 Z M 389.70 643.90 C 400.10 657.50 416.00 672.30 431.70 659.50 C 433.50 657.90 435.10 656.10 436.40 654.00 C 441.60 646.40 446.00 641.70 449.20 632.90 C 450.00 630.80 452.10 629.50 454.20 629.80 C 470.90 631.60 485.20 626.70 489.90 609.20 C 490.20 608.70 490.70 608.40 491.20 608.40 L 491.50 608.40 C 505.30 616.70 516.00 614.10 523.80 600.60 C 525.90 597.70 526.40 593.80 524.80 590.40 C 522.20 585.20 520.60 585.40 519.80 591.20 C 519.00 597.00 513.80 605.50 507.00 606.30 C 500.20 607.10 491.40 601.60 485.60 598.70 C 485.10 598.40 484.00 598.70 483.80 599.20 C 483.80 599.50 483.50 599.50 483.50 599.70 C 482.50 609.10 478.80 622.40 467.30 622.90 C 460.50 623.40 453.70 621.60 448.30 617.40 C 447.50 616.90 446.50 617.10 446.00 617.90 C 445.70 618.20 445.70 618.40 445.70 618.70 C 444.90 632.30 437.90 644.00 424.80 648.40 C 418.50 650.50 411.80 650.50 405.80 648.40 C 399.50 646.30 396.20 641.40 392.80 636.40 C 392.00 635.40 390.50 635.10 389.40 635.90 C 389.10 636.20 389.10 636.20 388.90 636.40 C 388.40 636.90 388.10 637.70 388.10 638.50 C 387.90 640.20 388.40 642.30 389.70 643.90 Z M 351.40 625.10 C 348.50 624.80 345.70 624.30 342.80 624.10 C 332.60 623.10 326.40 617.10 325.10 606.90 C 325.10 605.90 324.60 605.60 323.50 606.10 C 323.00 606.40 322.70 606.90 322.70 607.40 C 322.20 614.20 325.30 627.20 333.40 629.60 C 335.50 630.10 340.20 631.20 347.20 632.20 C 348.50 632.50 350.10 631.90 351.10 631.20 C 351.60 630.70 352.70 630.70 353.20 631.20 C 354.50 632.00 355.80 632.20 357.10 631.70 C 367.00 639.30 376.40 640.80 385.30 635.90 C 388.20 634.30 390.30 632.30 391.80 629.40 C 393.30 626.50 394.70 623.40 395.70 620.50 C 396.00 619.70 396.00 618.70 395.70 617.90 C 390.70 605.60 381.60 597.00 368.10 597.80 C 353.20 598.30 348.50 612.60 351.40 625.10 Z" fill="#fef2e1" fill-rule="nonzero" node-id="144" stroke="none" target-height="189.09998" target-width="288.2" target-x="274.5" target-y="536.2"></path><path d="M 554.20 543.30 C 550.80 543.80 548.50 546.90 549.00 550.30 L 549.00 550.30 C 547.20 558.90 547.20 567.80 548.70 576.40 C 548.40 584.00 550.80 591.50 555.50 597.50 C 557.10 602.50 560.20 606.90 564.60 609.80 C 568.00 611.90 571.90 613.70 575.50 615.50 C 578.90 617.10 582.80 617.60 586.40 617.30 C 592.40 617.00 598.10 617.60 604.10 618.60 C 596.80 621.70 588.70 622.50 580.90 621.20 C 577.50 620.20 574.40 618.60 571.50 616.50 C 568.40 614.40 565.00 612.90 561.60 612.10 C 553.50 605.80 547.80 597.00 546.00 586.80 C 545.00 581.10 543.40 575.30 541.00 569.90 C 542.60 566.50 543.60 562.90 544.10 559.00 C 544.40 554.00 544.90 549.10 546.20 544.10 C 546.50 543.30 547.00 542.50 547.80 542.30 C 551.60 541.20 553.40 541.40 554.20 543.30 Z" fill="#c33935" fill-rule="nonzero" node-id="146" stroke="none" target-height="81.29999" target-width="63.099976" target-x="541" target-y="541.2"></path><path d="M 549.20 550.60 C 548.70 547.20 551.00 544.10 554.40 543.60 L 554.40 543.60 C 558.00 542.30 562.00 542.00 565.90 543.10 C 568.20 543.60 569.50 546.00 569.00 548.30 C 569.00 548.60 568.70 549.10 568.50 549.30 C 563.30 557.30 555.70 555.50 549.20 550.60 Z" fill="#ffc156" fill-rule="nonzero" node-id="148" stroke="none" target-height="15.299988" target-width="20.799988" target-x="548.7" target-y="542"></path><path d="M 720.70 553.40 C 719.70 555.20 717.60 556.30 715.50 555.50 C 710.80 554.70 707.70 550.50 708.50 545.90 C 708.50 545.10 708.80 544.30 709.00 543.80 C 709.30 542.80 710.30 542.20 711.30 542.50 L 719.10 542.80 C 720.10 542.80 720.90 543.30 721.40 544.10 C 723.30 546.90 723.10 550.80 720.70 553.40 Z" fill="#a7343f" fill-rule="nonzero" node-id="150" stroke="none" target-height="14.099976" target-width="15.599976" target-x="707.7" target-y="542.2"></path><path d="M 260.70 556.30 L 264.60 559.70 C 266.40 561.00 268.00 562.30 269.30 564.10 C 271.40 567.00 270.60 567.70 267.50 566.40 C 265.70 565.40 263.30 564.80 261.20 564.80 C 252.90 565.80 244.30 566.60 235.90 567.40 C 233.30 567.70 230.70 568.20 228.10 569.20 C 225.80 570.20 223.10 571.00 220.50 572.10 C 223.90 565.60 229.60 560.90 236.40 558.80 C 243.70 557.00 251.30 557.20 258.60 559.30 C 259.40 559.60 260.20 559.30 260.70 558.50 C 260.90 557.80 260.90 556.80 260.70 556.30 Z" fill="#f4c5a9" fill-rule="nonzero" node-id="152" stroke="none" target-height="15.799988" target-width="50.899994" target-x="220.5" target-y="556.3"></path><path d="M 420.80 571.28 L 424.07 572.87 L 426.87 574.83 L 429.24 577.18 L 431.20 579.88 L 432.62 582.75 L 433.53 585.82 L 433.89 588.99 L 433.64 592.15 L 432.76 595.36 L 431.26 598.34 L 429.33 600.85 L 426.95 602.97 L 424.21 604.64 L 421.24 605.82 L 417.97 606.52 L 414.64 606.68 L 411.25 606.27 L 407.75 605.26 L 404.48 603.67 L 401.69 601.71 L 399.31 599.36 L 397.36 596.65 L 395.94 593.79 L 395.02 590.72 L 394.67 587.55 L 394.92 584.38 L 395.79 581.17 L 397.29 578.20 L 399.22 575.68 L 401.61 573.56 L 404.34 571.89 L 407.32 570.71 L 410.58 570.01 L 413.91 569.86 L 417.30 570.27 L 420.80 571.28 Z" fill="#fe6048" fill-rule="nonzero" group-id="3" node-id="156" stroke="none" target-height="36.821655" target-width="39.22052" target-x="394.66574" target-y="569.857"></path><path d="M 690.00 585.00 L 680.60 587.60 C 674.10 589.70 667.80 592.80 662.60 597.20 C 662.10 597.50 661.60 597.50 661.00 597.20 C 660.70 596.90 660.70 596.70 660.70 596.40 C 660.70 596.10 660.70 595.90 661.00 595.60 C 666.50 587.80 672.50 580.70 679.50 574.20 C 680.00 573.70 680.80 573.70 681.10 574.20 L 690.00 581.80 C 690.50 582.30 690.80 583.10 690.80 583.90 C 690.50 584.40 690.20 584.70 690.00 585.00 Z" fill="#ffa490" fill-rule="nonzero" node-id="159" stroke="none" target-height="23.799988" target-width="30.099976" target-x="660.7" target-y="573.7"></path><path d="M 567.50 577.40 C 569.10 588.60 565.20 595.10 555.80 597.50 C 551.10 591.50 548.80 583.90 549.00 576.40 L 563.10 575.90 C 563.90 575.90 564.70 576.20 565.40 576.40 L 567.50 577.40 Z" fill="#ffa246" fill-rule="nonzero" node-id="161" stroke="none" target-height="21.599976" target-width="20.299988" target-x="548.8" target-y="575.9"></path><path d="M 604.20 618.60 C 598.50 617.60 592.50 617.30 586.50 617.30 C 582.90 617.60 578.90 616.80 575.60 615.50 C 572.00 613.90 568.00 612.10 564.70 609.80 C 560.30 606.90 557.10 602.50 555.60 597.50 C 565.00 595.20 568.90 588.60 567.30 577.40 C 567.60 575.30 568.90 575.60 570.70 577.70 C 571.50 578.50 572.00 579.30 572.30 580.30 C 575.20 587.30 576.20 593.10 585.30 595.90 C 594.90 599.30 605.60 598.20 614.80 593.30 C 615.80 592.80 617.10 592.80 617.90 593.80 C 620.00 595.90 621.00 598.80 621.00 601.60 C 621.00 602.40 621.50 603.20 622.60 603.20 C 622.90 603.20 623.10 603.20 623.40 602.90 C 626.80 600.80 629.90 598.20 632.50 595.30 C 633.30 594.50 634.10 594.00 635.10 594.00 C 636.10 593.70 637.20 594.50 637.40 595.60 C 637.70 596.10 637.40 596.90 636.90 597.40 C 627.40 608.90 616.20 616.00 604.20 618.60 Z" fill="#e54a3e" fill-rule="nonzero" node-id="163" stroke="none" target-height="43.299988" target-width="82.10004" target-x="555.6" target-y="575.3"></path><path d="M 292.70 594.90 C 291.90 601.40 288.00 601.20 280.70 593.90 C 277.80 592.90 275.20 591.60 272.40 590.30 C 270.80 589.80 270.10 588.00 270.80 586.40 C 270.80 586.10 271.10 585.90 271.30 585.60 C 271.80 584.80 272.60 584.60 273.40 584.80 C 276.80 585.30 279.90 586.90 282.50 589.20 C 283.00 589.70 283.80 590.00 284.80 589.70 C 289.30 588.60 292.20 590.40 292.70 594.90 Z" fill="#fee09c" fill-rule="nonzero" node-id="165" stroke="none" target-height="16.800049" target-width="22.600006" target-x="270.1" target-y="584.6"></path><path d="M 389.70 643.90 C 388.40 642.30 387.90 640.50 388.10 638.40 C 388.10 637.60 388.40 637.10 388.90 636.30 C 389.70 635.30 391.20 635.00 392.30 635.80 C 392.60 636.10 392.60 636.10 392.80 636.30 C 396.40 641.30 399.60 646.20 405.80 648.30 C 412.10 650.40 418.80 650.40 424.80 648.30 C 438.10 643.90 444.90 632.40 445.70 618.60 C 445.70 617.60 446.70 617.00 447.50 617.00 C 447.80 617.00 448.00 617.00 448.30 617.30 C 453.80 621.50 460.60 623.60 467.30 622.80 C 478.80 622.30 482.40 609.00 483.50 599.60 C 483.50 598.80 484.30 598.30 485.10 598.60 C 485.40 598.60 485.40 598.60 485.60 598.90 C 491.10 601.80 500.50 607.20 507.00 606.50 C 513.50 605.70 519.00 596.90 519.80 591.40 C 520.60 585.90 522.10 585.40 524.80 590.60 C 526.40 594.00 525.80 597.90 523.80 600.80 C 516.00 614.40 505.30 617.00 491.50 608.60 C 491.00 608.30 490.50 608.30 490.20 608.90 L 490.20 609.20 C 485.50 626.70 471.20 631.60 454.50 629.80 C 452.40 629.50 450.30 630.80 449.50 632.90 C 446.40 641.80 442.20 646.50 436.70 654.00 C 435.40 656.10 433.80 657.90 432.00 659.50 C 415.80 672.30 400.10 657.20 389.70 643.90 Z" fill="#f4c5a9" fill-rule="nonzero" node-id="167" stroke="none" target-height="86.89996" target-width="138.50003" target-x="387.9" target-y="585.4"></path><path d="M 698.10 642.80 C 694.50 640.70 690.00 639.70 685.80 639.90 C 685.00 639.90 684.00 639.90 683.50 639.40 C 677.00 635.50 671.50 629.80 667.60 623.20 C 666.30 620.90 666.60 618.00 668.10 615.90 L 678.00 602.60 L 694.70 590.10 C 696.00 589.10 698.10 589.30 699.10 590.60 C 699.10 590.90 699.40 590.90 699.40 591.10 C 704.90 602.30 707.70 614.80 707.50 627.30 C 707.50 635.10 704.90 642.70 700.20 648.70 C 699.90 649.20 699.20 649.50 698.40 649.20 C 698.10 649.20 697.90 648.90 697.90 648.70 C 697.60 648.40 697.60 648.20 697.60 647.70 C 698.10 646.20 698.30 644.40 698.10 642.80 Z" fill="#7d434d" fill-rule="nonzero" node-id="169" stroke="none" target-height="60.400024" target-width="41.400024" target-x="666.3" target-y="589.1"></path><path d="M 280.70 593.80 C 288.00 600.80 292.20 601.40 292.70 594.80 C 295.00 603.90 293.00 610.40 286.70 613.80 C 283.60 615.90 279.40 614.80 277.60 611.70 C 277.10 610.70 276.60 609.60 276.60 608.60 C 276.30 607.80 276.60 606.80 276.90 606.30 C 278.90 602.40 280.20 598.00 280.70 593.80 Z" fill="#ff8f53" fill-rule="nonzero" node-id="171" stroke="none" target-height="22.100037" target-width="18.700012" target-x="276.3" target-y="593.8"></path><path d="M 357.10 631.40 L 351.40 625.10 C 348.50 612.60 353.00 598.30 368.10 597.50 C 381.70 596.70 391.00 605.30 395.70 617.60 C 396.00 618.40 396.00 619.40 395.70 620.20 C 394.40 623.10 393.10 626.20 391.80 629.10 C 390.50 632.00 388.20 634.30 385.30 635.60 C 376.40 640.50 367.00 639.20 357.10 631.40 Z" fill="#fe6048" fill-rule="nonzero" node-id="173" stroke="none" target-height="43.799988" target-width="47.5" target-x="348.5" target-y="596.7"></path><path d="M 351.40 625.10 L 357.10 631.40 C 355.80 631.90 354.20 631.70 353.20 630.90 C 352.70 630.40 351.60 630.40 351.10 630.90 C 350.10 631.70 348.80 632.20 347.20 631.90 C 340.20 630.90 335.70 629.80 333.40 629.30 C 325.30 627.00 321.90 613.90 322.70 607.10 C 322.70 606.60 323.00 606.10 323.50 605.80 C 324.30 605.30 324.80 605.50 325.10 606.60 C 326.40 616.80 332.90 623.00 342.80 623.80 C 345.60 624.30 348.50 624.80 351.40 625.10 Z" fill="#f4c5a9" fill-rule="nonzero" node-id="175" stroke="none" target-height="26.900024" target-width="35.200012" target-x="321.9" target-y="605.3"></path><path d="M 269.80 641.30 C 263.80 635.60 267.50 627.50 272.70 623.10 C 273.50 622.60 274.30 622.30 275.00 622.10 L 287.00 621.30 C 287.80 621.30 288.30 621.60 288.60 622.30 C 292.50 630.60 287.30 639.50 280.80 644.70 C 280.00 645.20 279.20 645.50 278.20 645.20 C 275.30 644.90 272.10 643.30 269.80 641.30 Z" fill="#ffa246" fill-rule="nonzero" node-id="177" stroke="none" target-height="24.200012" target-width="28.700012" target-x="263.8" target-y="621.3"></path><path d="M 689.20 692.10 C 689.50 692.40 689.20 693.10 688.40 693.90 C 686.10 692.90 684.50 693.10 683.70 694.70 C 681.60 698.90 680.30 703.30 679.80 707.70 C 680.30 702.70 676.90 702.00 669.90 705.40 C 662.60 708.80 655.60 712.70 649.00 717.40 C 645.40 720.00 637.80 722.90 626.60 726.50 C 620.90 728.30 615.10 730.40 609.40 733.00 C 603.70 735.60 598.20 738.00 592.70 740.30 C 587.50 742.40 580.70 742.90 575.50 745.80 C 570.30 748.70 567.20 750.20 565.60 750.80 C 562.20 752.10 558.80 753.40 556.00 755.00 C 551.60 756.60 546.90 757.30 542.40 757.10 C 551.30 738.90 559.90 719.80 567.70 700.50 C 568.70 698.40 569.30 696.10 569.30 693.50 C 571.10 693.50 572.90 693.80 574.50 694.50 C 586.00 696.10 602.90 694.80 611.30 685.90 C 611.80 685.60 612.10 684.60 612.10 682.80 C 612.10 681.80 612.40 681.80 612.90 682.50 C 613.40 683.30 613.40 684.30 612.90 685.10 C 612.60 685.60 612.60 686.10 612.90 686.70 C 612.90 687.00 613.20 687.20 613.40 687.00 L 613.40 687.00 C 614.40 686.50 615.50 687.00 616.00 688.00 C 616.30 688.30 616.30 688.80 616.30 689.00 C 616.00 691.60 614.70 694.00 612.70 695.50 C 611.90 696.00 611.40 696.80 611.10 697.80 C 610.60 700.10 608.80 701.70 606.40 701.70 C 605.60 701.70 604.80 702.20 604.10 702.70 C 602.00 704.80 600.50 707.70 599.70 710.50 C 599.40 711.50 598.70 712.30 597.90 712.60 C 595.60 713.40 593.50 715.20 592.40 717.30 C 592.10 717.80 592.10 718.10 592.90 717.80 C 593.40 717.50 593.70 717.80 594.20 718.10 C 594.50 718.10 594.70 718.60 594.70 719.10 C 594.70 719.40 594.40 719.40 594.40 719.40 C 593.60 720.40 593.10 721.50 592.80 722.50 C 592.50 723.30 592.80 723.80 593.80 723.50 L 599.80 722.20 C 600.80 721.90 601.40 722.50 601.40 723.50 C 601.40 723.80 601.40 724.30 601.10 724.50 C 600.60 725.30 600.80 725.50 601.60 725.30 L 615.40 723.00 C 616.20 723.00 616.70 722.50 617.00 721.70 L 620.10 715.40 C 620.40 714.60 621.10 714.10 621.90 713.60 L 629.70 710.50 C 630.50 710.20 631.00 709.70 631.00 708.90 C 631.30 707.60 631.50 706.60 632.00 705.30 C 634.30 699.80 637.00 694.60 639.80 689.40 C 640.30 688.60 640.10 687.60 639.50 687.10 C 639.50 687.10 639.20 687.10 639.20 686.80 C 638.70 686.50 638.20 686.00 637.90 685.20 C 637.40 684.40 637.40 683.60 638.20 682.90 C 639.50 681.60 641.10 681.10 642.90 681.30 C 642.60 681.80 642.10 682.30 641.60 682.90 C 640.30 683.70 640.60 683.90 641.90 683.90 C 645.00 683.60 648.20 682.90 651.30 681.60 C 658.30 679.00 664.90 675.60 671.40 672.00 C 673.70 671.20 675.80 669.90 677.70 668.40 C 678.20 667.60 679.30 667.10 680.00 666.80 C 685.50 665.20 689.90 661.30 692.30 656.10 C 693.30 654.30 694.90 653.00 696.70 651.90 C 698.00 651.10 698.50 651.40 698.00 652.90 C 697.70 653.40 697.70 653.90 698.00 654.50 C 698.30 655.10 698.30 655.50 697.70 656.10 C 691.70 665.20 687.80 675.40 686.50 686.30 C 685.30 690.00 686.60 691.80 689.20 692.10 Z" fill="#e54a3e" fill-rule="nonzero" node-id="179" stroke="none" target-height="106.20001" target-width="156.09998" target-x="542.4" target-y="651.1"></path><path d="M 580.20 674.40 C 578.10 677.50 574.50 679.10 570.80 678.60 C 566.40 677.80 561.70 676.80 557.50 675.00 C 552.30 667.40 552.50 657.30 563.80 655.70 C 568.20 654.70 572.90 656.70 575.30 660.70 C 577.90 664.70 579.70 669.40 580.20 674.40 Z" fill="#ff8044" fill-rule="nonzero" node-id="181" stroke="none" target-height="24.399963" target-width="27.900024" target-x="552.3" target-y="654.7"></path><path d="M 587.50 671.00 L 577.10 690.50 C 566.40 689.50 559.90 684.00 557.60 674.60 C 561.80 676.40 566.20 677.70 570.90 678.20 C 574.50 678.50 578.20 676.90 580.30 674.00 C 581.30 671.90 581.60 669.80 581.60 667.50 C 581.60 667.20 581.60 667.00 581.90 667.50 C 583.10 671.20 584.90 672.30 587.50 671.00 Z" fill="#e54a3e" fill-rule="nonzero" node-id="183" stroke="none" target-height="23.5" target-width="29.900024" target-x="557.6" target-y="667"></path><path d="M 611.00 686.10 C 602.70 695.00 585.50 696.30 574.20 694.70 C 573.20 691.10 574.20 689.50 577.10 690.50 L 587.50 671.00 C 595.10 670.20 600.80 672.30 605.00 677.30 C 607.30 679.80 609.40 683.00 611.00 686.10 Z" fill="#7d434d" fill-rule="nonzero" node-id="185" stroke="none" target-height="26.099976" target-width="37.799988" target-x="573.2" target-y="670.2"></path><path d="M 561.00 688.20 C 563.90 689.50 566.50 691.30 568.80 693.70 C 568.50 696.00 568.00 698.40 567.20 700.70 C 559.40 720.00 551.00 739.00 541.90 757.30 C 539.00 763.80 534.90 769.30 529.10 773.50 C 527.00 772.70 524.70 772.50 522.30 772.50 C 506.10 773.80 490.00 775.10 473.80 776.40 C 467.50 776.90 460.20 777.20 452.40 777.20 C 445.40 777.20 438.10 777.20 431.00 777.50 C 402.10 776.20 375.00 767.30 347.80 757.70 C 340.00 754.80 332.40 750.90 325.60 746.00 C 315.70 739.50 306.80 731.70 299.50 722.30 C 317.20 724.10 335.20 725.20 352.90 725.20 C 407.90 724.90 466.50 717.60 528.80 703.00 C 543.20 699.40 553.90 694.70 561.00 688.20 Z" fill="#f4c5a9" fill-rule="nonzero" node-id="187" stroke="none" target-height="89.29999" target-width="269.3" target-x="299.5" target-y="688.2"></path><path d="M 688.40 693.90 C 688.10 698.30 687.10 702.50 685.00 706.20 C 684.50 707.00 684.50 707.80 684.50 708.50 L 684.50 712.40 C 684.20 711.40 683.50 710.80 682.40 710.80 C 681.60 710.80 680.80 710.30 680.60 709.50 L 679.60 707.40 C 680.10 703.00 681.40 698.50 683.50 694.40 C 684.50 693.10 686.10 692.90 688.40 693.90 Z" fill="#ffa490" fill-rule="nonzero" node-id="189" stroke="none" target-height="19.5" target-width="8.800049" target-x="679.6" target-y="692.9"></path><path d="M 679.80 707.70 L 680.80 709.80 C 681.10 710.60 681.80 711.10 682.60 711.10 C 683.60 711.10 684.40 711.60 684.70 712.70 C 684.40 713.70 684.40 714.30 684.70 714.50 C 683.40 713.20 682.60 712.90 681.80 713.70 C 675.30 723.90 668.80 733.80 662.00 743.40 C 659.10 747.60 656.80 752.00 655.00 756.70 C 653.40 761.70 650.80 766.10 647.40 769.70 C 642.40 775.20 637.50 780.40 632.50 785.90 C 632.00 786.40 631.20 786.90 630.40 786.90 C 628.80 787.20 627.50 787.70 626.20 788.50 C 625.40 789.00 625.40 789.50 626.20 790.30 C 628.30 792.10 631.20 791.90 635.10 789.50 C 633.80 790.80 632.20 791.80 630.40 792.10 L 600.20 792.40 C 597.10 785.10 591.60 782.00 584.30 782.80 C 578.30 783.60 577.50 788.30 574.90 792.70 L 552.50 792.70 C 550.90 792.70 549.40 792.40 547.80 792.20 L 543.10 791.40 L 540.00 787.00 L 528.50 776.30 C 528.50 775.30 529.00 774.50 529.50 773.70 C 535.00 769.50 539.40 764.10 542.30 757.50 C 547.00 757.80 551.70 757.00 555.90 755.40 C 558.80 754.10 562.20 752.50 565.50 751.20 C 566.80 750.70 570.20 749.10 575.40 746.20 C 580.60 743.30 587.40 742.80 592.60 740.70 C 597.80 738.60 603.80 735.70 609.30 733.40 C 614.80 730.80 620.50 728.70 626.50 726.90 C 638.00 723.30 645.50 720.10 648.90 717.80 C 655.40 713.10 662.50 709.20 669.80 705.80 C 676.90 702.00 680.30 702.80 679.80 707.70 Z M 657.40 747.30 C 659.20 742.60 659.50 737.40 657.90 732.70 C 657.10 730.60 655.00 729.30 652.90 730.10 C 644.00 732.70 636.70 739.00 632.80 747.30 C 631.50 750.20 632.80 753.60 635.70 754.90 C 636.00 754.90 636.00 755.20 636.20 755.20 C 646.20 758.80 653.50 756.00 657.40 747.30 Z" fill="#c33935" fill-rule="nonzero" node-id="191" stroke="none" target-height="90.70001" target-width="156.20001" target-x="528.5" target-y="702"></path><path d="M 264.60 708.00 C 268.50 715.00 271.60 722.60 274.50 730.20 C 275.50 733.60 277.10 737.00 279.20 739.80 C 281.00 742.70 282.80 745.80 284.70 748.90 C 285.70 750.50 286.80 751.80 288.10 752.80 C 289.40 754.10 290.70 755.40 291.50 757.00 C 292.00 757.80 292.50 758.30 293.30 758.60 C 295.10 759.10 297.20 759.40 299.00 759.10 C 304.20 758.60 309.20 757.00 314.10 754.90 C 314.90 754.60 315.90 754.40 316.70 754.40 C 321.40 754.40 324.30 751.50 325.60 746.10 C 332.40 751.10 339.90 755.00 347.80 757.80 C 374.90 767.40 402.30 776.30 431.00 777.60 C 431.80 777.60 431.80 778.40 431.00 779.90 L 419.80 788.20 L 406.50 791.10 L 374.20 792.70 C 364.80 787.20 358.00 784.10 353.60 783.30 C 348.40 781.70 343.20 784.90 341.60 790.10 C 341.60 790.40 341.60 790.40 341.60 790.60 C 340.80 792.70 339.30 793.20 336.90 792.70 C 328.80 793.00 323.10 792.20 320.50 790.10 C 294.30 771.10 269.30 740.80 264.60 708.00 Z" fill="#c33935" fill-rule="nonzero" node-id="193" stroke="none" target-height="85.20001" target-width="167.19998" target-x="264.6" target-y="708"></path><path d="M 684.50 714.20 C 681.90 723.80 679.30 733.70 676.70 743.70 C 672.30 760.90 670.70 772.40 653.80 776.30 C 650.90 776.80 648.30 777.90 646.00 779.40 C 643.70 781.20 641.30 783.00 639.20 784.90 L 634.50 789.30 C 630.90 791.60 627.70 791.90 625.60 790.10 C 624.80 789.60 624.80 788.80 625.60 788.30 C 626.90 787.50 628.20 787.00 629.80 786.70 C 630.60 786.70 631.40 786.20 631.90 785.70 C 636.60 780.50 641.50 775.00 646.80 769.50 C 650.20 765.60 652.80 761.20 654.40 756.50 C 656.20 751.80 658.60 747.40 661.40 743.20 C 668.20 733.60 675.00 723.90 681.20 713.50 C 682.40 712.70 683.50 712.90 684.50 714.20 Z M 666.80 745.30 L 653.00 769.80 C 653.00 770.10 653.00 770.30 653.30 770.30 L 653.30 770.30 C 657.20 772.40 663.50 768.70 667.40 762.20 L 667.90 761.40 C 671.80 754.60 671.80 747.30 667.90 745.20 L 667.90 745.20 C 667.30 745.00 667.00 745.00 666.80 745.30 L 666.80 745.30 Z" fill="#a7343f" fill-rule="nonzero" node-id="195" stroke="none" target-height="79.20001" target-width="59.700012" target-x="624.8" target-y="712.7"></path><path d="M 657.40 747.30 C 653.50 755.90 646.20 758.50 636.00 755.10 C 632.90 754.10 631.30 750.90 632.40 747.80 C 632.40 747.50 632.70 747.50 632.70 747.30 C 636.60 739.00 643.90 732.70 652.80 730.10 C 654.90 729.30 657.20 730.60 657.80 732.70 C 659.50 737.40 659.20 742.70 657.40 747.30 Z" fill="#df615d" fill-rule="nonzero" node-id="197" stroke="none" target-height="29.200012" target-width="28.200012" target-x="631.3" target-y="729.3"></path><path d="M 666.80 745.30 C 666.80 745.00 667.10 745.00 667.30 745.30 L 667.30 745.30 C 671.20 747.60 671.20 754.70 667.30 761.50 L 666.80 762.30 C 662.90 769.10 656.60 772.70 652.70 770.40 L 652.70 770.40 C 652.40 770.40 652.40 770.10 652.40 769.90 L 666.80 745.30 Z" fill="#c33935" fill-rule="nonzero" node-id="199" stroke="none" target-height="27.700012" target-width="18.799988" target-x="652.4" target-y="745"></path><path d="M 752.30 790.40 C 752.60 790.10 752.60 790.90 751.80 792.50 L 697.10 792.00 C 690.30 792.50 687.20 791.50 687.70 788.60 C 696.00 777.70 708.00 769.60 721.30 765.90 C 725.70 764.60 729.90 763.60 733.80 766.90 C 741.10 773.20 745.30 777.30 746.30 779.70 C 748.10 783.10 750.20 786.70 752.30 790.40 Z" fill="#958a9c" fill-rule="nonzero" node-id="201" stroke="none" target-height="28.900024" target-width="65.39996" target-x="687.2" target-y="763.6"></path><path d="M 529.40 773.40 C 528.90 774.20 528.60 775.00 528.40 776.00 C 513.30 776.80 498.20 777.60 483.00 778.60 C 467.60 779.60 451.70 779.60 436.10 779.90 C 435.60 779.90 434.80 780.20 434.30 780.20 C 433.30 780.50 432.20 780.20 431.20 779.40 C 431.70 778.10 431.70 777.30 431.20 777.10 C 438.50 776.80 445.50 776.80 452.60 776.80 C 460.40 776.80 467.70 776.50 474.00 776.00 C 490.20 774.70 506.30 773.40 522.50 772.10 C 524.70 772.40 527.10 772.60 529.40 773.40 Z" fill="#e2917e" fill-rule="nonzero" node-id="203" stroke="none" target-height="8.400024" target-width="98.20001" target-x="431.2" target-y="772.1"></path><path d="M 528.40 776.00 L 539.90 786.70 C 539.90 787.00 539.90 787.20 539.90 787.70 C 539.90 788.20 539.40 788.70 538.60 788.70 L 419.90 788.00 L 431.10 779.70 C 431.90 780.20 433.20 780.50 434.20 780.50 C 435.00 780.20 435.80 780.20 436.30 780.00 C 451.90 779.50 467.80 779.50 483.20 778.70 C 498.60 777.90 513.20 776.80 528.40 776.00 Z" fill="#f6f7f9" fill-rule="nonzero" node-id="205" stroke="none" target-height="12.700012" target-width="120.00003" target-x="419.9" target-y="776"></path><path d="M 600.00 792.20 L 574.70 792.50 C 577.30 788.10 578.10 783.40 584.10 782.60 C 591.40 781.80 596.70 784.90 600.00 792.20 Z" fill="#ff8044" fill-rule="nonzero" node-id="207" stroke="none" target-height="10.700012" target-width="25.299988" target-x="574.7" target-y="781.8"></path><path d="M 374.30 792.40 L 337.00 792.10 C 339.60 792.60 340.90 792.10 341.70 790.00 C 343.00 784.80 348.00 781.70 353.20 782.70 C 353.50 782.70 353.50 782.70 353.70 782.70 C 358.20 783.80 364.90 787.00 374.30 792.40 Z" fill="#df615d" fill-rule="nonzero" node-id="209" stroke="none" target-height="10.899963" target-width="37.299988" target-x="337" target-y="781.7"></path><path d="M 639.40 784.90 C 639.40 786.50 639.70 787.20 639.90 787.20 C 650.30 788.00 665.20 788.80 684.20 789.00 C 685.50 789.30 686.80 789.00 687.80 788.50 C 687.30 791.40 690.40 792.40 697.20 791.90 L 630.20 792.20 C 632.00 791.90 633.60 790.90 634.90 789.60 L 639.40 784.90 Z" fill="#f0d1cd" fill-rule="nonzero" node-id="211" stroke="none" target-height="7.5" target-width="67" target-x="630.2" target-y="784.9"></path><path d="M 539.60 787.00 L 542.70 791.40 L 406.60 791.10 L 419.90 788.20 L 538.50 789.00 C 539.00 789.00 539.50 788.50 539.80 788.00 C 539.80 787.50 539.80 787.20 539.60 787.00 Z" fill="#fbb2b1" fill-rule="nonzero" node-id="213" stroke="none" target-height="4.4000244" target-width="136.1" target-x="406.6" target-y="787"></path><path d="M 820.60 788.50 C 820.10 789.80 819.80 791.40 820.10 792.70 L 751.80 792.20 C 752.30 790.60 752.60 789.90 752.30 790.10 L 820.60 788.50 Z" fill="#f0d1cd" fill-rule="nonzero" node-id="215" stroke="none" target-height="4.200012" target-width="68.79999" target-x="751.8" target-y="788.5"></path><path d="M 217.70 791.40 C 218.50 790.60 218.70 789.80 218.50 789.60 L 316.20 788.80 C 317.00 788.80 317.20 789.10 317.00 789.80 L 317.00 790.60 C 316.70 791.40 316.20 792.20 315.20 792.20 L 217.70 791.40 Z" fill="#f0d1cd" fill-rule="nonzero" node-id="217" stroke="none" target-height="3.4000244" target-width="99.500015" target-x="217.7" target-y="788.8"></path></svg>