<svg xml:space="preserve" style="enable-background:new 0 0 1024 1024;" viewBox="0 0 1024 1024" y="0px" x="0px" xmlns:xlink="http://www.w3.org/1999/xlink" xmlns="http://www.w3.org/2000/svg" id="图层_1" version="1.1">
<style type="text/css">
	.st0{fill:#F0D1CD;}
	.st1{fill:#FE6037;}
	.st2{fill:#FFC156;}
	.st3{fill:#DFA5AC;}
	.st4{fill:#FFBCA9;}
	.st5{fill:#FE6048;}
	.st6{fill:#DF615D;}
	.st7{fill:#EA372A;}
	.st8{fill:#E2917E;}
	.st9{fill:#2C0707;}
	.st10{fill:#6C3D4F;}
	.st11{fill:#F6F7F9;}
	.st12{fill:#B14F59;}
	.st13{fill:#97485E;}
	.st14{fill:#A7343F;}
	.st15{fill:#C33935;}
	.st16{fill:#760906;}
	.st17{fill:#FE8964;}
	.st18{fill:#CE9B79;}
	.st19{fill:#E54A3E;}
	.st20{fill:#FFD9BF;}
	.st21{fill:#F88B79;}
	.st22{fill:#F4C5A9;}
	.st23{fill:#FEF2E1;}
	.st24{fill:#7D434D;}
	.st25{fill:#FFA490;}
	.st26{fill:#CF4847;}
	.st27{fill:#BAA4AB;}
	.st28{fill:#958A9C;}
	.st29{fill:#FEEBE5;}
	.st30{fill:#FBB2B1;}
</style>
<title>6</title>
<g>
	<path d="M562,256.2l-1.1-2.6c0-0.6-0.9-0.9-1.1-0.9s-0.3,0-0.6,0.3c-0.3,0.3-0.6,0.9-0.6,1.4c0,7.7-0.9,15.4-2.9,22.9
		c-1.7,4-4,7.7-6.9,11.2c-0.3,0.6-0.3,1.1,0.3,1.7c0.3,0,0.3,0.3,0.6,0.3l0.9,0.3c1.1,0.3,2.3-0.3,2.9-1.1
		c8-11.2,10.9-21.7,8.9-31.7c3.1-0.3,6-1.4,8.6-3.1c2-1.4,4.3-2.6,6.6-3.1c7.4-1.4,14.9-2.6,22.3-3.1c1.4,0,2.6-0.9,3.4-2
		c0.9-1.4,2.6-2,4-1.1c0.9,0.3,1.1,1.1,1.4,2c0.9,3.7,0.9,7.7-0.3,11.4c-6,20.3-14.3,40-24.6,58.6c-1.1,2-0.3,4.6,1.7,6
		c5.1,2.9,10.9,4,16.9,3.7c-2.3,0.9-4.6,2-6.6,3.7c-0.9,0.6-1.7,0.9-2.6,0.9l-4.3,0.3c-6.3-10.6-14.9-19.4-24.9-26.6
		c-22.9-17.2-49.2-28.9-77.5-33.7l-16.6,0.3c-6,1.1-12,1.4-18,0.3l-46,10c-1.1,0.3-2.3-0.6-2.6-1.7c0-0.3,0-0.6,0-0.9
		c1.1-3.1-0.3-6.9-3.1-8.6c-3.7-3.4-8.6-5.4-13.7-5.4c-5.7,0.6-11.2,0-16.6-1.4c-0.9-0.3-1.7-0.3-2.6,0.3c-1.4,0.6-1.7,1.4-1.4,2.3
		c-6.9,3.4-13.2,8.3-18.6,14c-0.9,1.1-2,2-3.1,2.6c-2-3.7-2.9-8-2.9-12.3c1.7-14.6,8-28.3,18-39.5c0.6-0.6,1.7-0.9,2.6-0.6
		c5.7,2.9,10.6,6.9,14.3,11.7c1.1,1.4,3.1,1.7,4.6,0.6c0.3,0,0.3-0.3,0.6-0.6c3.1-3.7,9.7-11.2,14.9-10.9
		c6.3,0.3,11.4,8.6,13.7,13.7c0.6,1.4,2.3,2,3.4,1.4c0.3,0,0.6-0.3,0.9-0.6c8.6-9.2,18.9-16.6,30-21.7c1.7-1.1,3.7-0.6,4.9,1.1
		c0,0.3,0.3,0.3,0.3,0.6c4.6,6.9,7.4,14.9,9.2,22.9c1.1,6.3,2.6,12.6,3.7,18.9c0.3,0.9,0.9,1.7,1.7,2c0.6,0.3,1.1,0.3,2,0
		c0.9,0,1.1-0.9,1.1-1.7v-0.3c-0.3-0.9-0.3-1.7,0-2.6c0-0.9,0.3-1.4,0.9-2c2.6-3.4,5.4-6.6,8.6-9.4c3.1-2.9,7.2-4.6,11.4-4.9
		c5.7-0.6,11.2-1.1,16.3-2c0.9,0,1.7-0.6,2.3-0.9c0.9-0.6,1.7-1.1,2.9-1.4c0.9-0.3,1.7-0.9,2.3-1.4c11.2-11.7,25.5-20,40.9-24
		c2.9-0.9,5.7,0.9,6.3,3.7c0,0.3,0,0.6,0,0.9L562,256.2z" class="st0"></path>
	<path d="M794.2,317.4c-2,3.4-2.6,6.9-5.1,9.7c-7.2,7.4-15.2,6.9-24.6-2.3c-5.7-5.4-9.7-4.3-16.9-6
		c-15.2-2.6-25.5-16.6-23.5-31.7c1.1-13.2,8.6-21.2,18.3-28.9c4.9-4,6.9-8.9,10.6-14c14.3-18,36.9-12.9,43.2,9.2c0.6,2,2,3.4,4,3.7
		c12.3,3.1,19.4,10.6,21.5,22.6c2.9,16.3-2.9,27.2-16.9,33.5c-2.3,1.1-5.7,1.1-8.6,2.3C795.4,316,794.5,316.6,794.2,317.4z
		 M747.3,260c-20.6,9.4-29.5,41.5-5.4,53.5c6,3.1,12.9,4.3,19.7,3.1c1.7-0.3,3.1,0.6,3.7,2c2.9,6,6.6,9.2,11.4,9.4
		c4,0.6,7.7-1.4,9.7-4.9c1.4-2.6,2.6-5.1,3.4-8c0.6-2,2-3.1,4-3.4c16-1.1,24.3-9.4,24.9-25.2c0.3-12-4-20-13.7-24.3
		c-2.3-0.9-4.6-1.7-7.2-2.6c-6.6-2-5.4-8.6-7.4-12.6c-4.6-8.6-12-11.7-22.6-9.4c-7.7,1.7-13.4,7.2-16.9,16.3
		C750.8,256.8,749.3,258.8,747.3,260z" class="st1"></path>
	<path d="M741.9,313.4c-24-12-15.2-44,5.4-53.5c2-1.1,3.7-3.1,4.3-5.4c3.4-9.2,8.9-14.6,16.9-16.3
		c10.3-2.3,17.7,0.9,22.6,9.4c2.3,4,0.9,10.6,7.4,12.6c2.3,0.6,4.9,1.4,7.2,2.6c9.4,4.3,14,12.3,13.7,24.3
		c-0.6,15.7-8.9,24-24.9,25.2c-2,0-3.7,1.4-4,3.4c-0.6,2.9-1.7,5.4-3.4,8c-2,3.4-5.7,5.4-9.7,4.9c-4.9-0.6-8.6-3.7-11.4-9.4
		c-0.6-1.4-2.3-2.6-3.7-2C754.8,317.7,747.9,316.6,741.9,313.4z" class="st2"></path>
	<path d="M562,256.2c0,0.6,0.3,1.1,0.3,1.4c2,10-1.1,20.6-8.9,31.7c-0.6,0.9-1.7,1.4-2.9,1.1l-0.9-0.3
		c-0.6,0-1.1-0.9-0.9-1.4c0-0.3,0-0.3,0.3-0.6c2.9-3.4,5.1-7.2,6.9-11.2c1.7-7.4,2.6-15.2,2.9-22.9c0-0.6,0.3-1.1,0.6-1.4
		c0.6-0.3,1.1-0.3,1.4,0c0,0,0.3,0.3,0.3,0.6L562,256.2z" class="st3"></path>
	
		<ellipse ry="6.3" rx="7.7" cy="261.6" cx="295.6" class="st2" transform="matrix(6.105066e-02 -0.9981 0.9981 6.105066e-02 16.3944 540.6841)"></ellipse>
	<path d="M400.1,270.8l-21.2,15.7c-0.6,0.6-1.7,0.9-2.6,0.3c-4.9-1.4-9.2-4.9-11.4-9.4c-1.1-2.3-0.9-6,0.6-11.2
		c-0.3-0.9,0-1.7,1.4-2.3c0.9-0.3,1.7-0.6,2.6-0.3c5.4,1.4,11.2,2,16.6,1.4C391.5,265.4,396.4,267.4,400.1,270.8z" class="st4"></path>
	<path d="M365.8,266.3c-1.7,5.1-1.7,8.9-0.6,11.2c2.3,4.6,6.6,8,11.4,9.4c0.9,0.3,1.7,0.3,2.6-0.3l21.2-15.7
		c2.9,1.7,4.3,5.4,3.1,8.6c-0.3,1.1,0.6,2.3,1.7,2.6c0.3,0,0.6,0,0.9,0l46-10c-12.9,12.3-29.2,20.9-46.6,24.6
		c-0.9,0.3-1.7,0-2.3-0.6c-1.4-1.4-2.6-3.1-3.1-4.9c-0.3-1.1-0.9-1.1-1.4-0.3c0,0.3-0.3,0.3-0.6,0.6c-0.9,0.3-1.7,0.6-2.6,0.6
		c-3.7-0.6-7.4,0.9-10,3.4c-6.6,6.9-15.7,10.6-25.2,10.3c-0.9,0-1.7-0.3-2.3-0.9c-7.2-4.9-10.3-14-7.7-22.6c0.3-0.6,0-1.4-0.6-1.7
		h-0.3c-0.3,0-0.9,0-1.1,0C352.3,274.5,358.6,269.7,365.8,266.3z" class="st5"></path>
	<path d="M486.5,271.1c-0.9,0.6-2,0.6-3.1,0.6c-0.6,0-0.9,0.3-1.1,0.9v0.3c0,0.3,0,0.6,0,0.9c0.3,0.9,0.9,1.1,1.4,1.4
		c30.6,4.3,59.5,17.2,83.2,37.2c7.4,6.3,14.3,13.4,20,21.5c6.9,15.4,12.3,31.2,16.9,47.5c2.3,9.4,4.3,18.9,5.4,28.6
		s2.3,19.4,3.4,28.9c0.3,2.9,0.3,6,0,8.9c-0.3,4.6,1.1,7.4,3.4,8.6c-5.1,1.4-10.6,2.6-16.3,3.7c-18.6,4-36,11.7-51.2,22.9
		c-2.3,1.7-4.9,3.1-7.2,4.3c-0.3,0.3-0.6,0.6-0.6,0.9c0,0.6,0.3,1.1,1.1,0.9c4.9-0.9,8.9-2.6,13.7-1.7c6,1.1,12.3-0.9,16.9-4.9
		c6.6-6,14.9-10.6,23.7-12.6c6.9-1.4,13.7-2.3,20.6-2.9c11.2-0.9,23.2-2.6,35.8-4.6l-3.4-2.6l6,9.2c-0.9,2.6-0.3,5.4,1.1,7.7
		c0.6,0.9,0.9,1.7,0.9,2.6c0,2.9,1.1,4.9,3.1,5.4c-4,10.9-3.7,20,1.1,27.7c-1.1-0.3-1.7-0.3-2.3,0.3c-0.9,1.4-0.6,3.4,0.3,4.9
		c7.4,12,14.6,23.7,21.5,35.2c3.1,5.1,6,10.3,8.6,15.7l0.3,2.3c0.3,0.9,0,1.7-0.6,2.6c-0.9,1.7-0.9,2.9,0.3,3.7
		c-0.9,0.6-1.7,1.1-2.9,1.1c-13.7,0.6-26.9,5.4-37.8,13.7c-0.3,0.3-0.6,0.6-0.3,0.9l0,0l0.3,0.6c0,0,0.3,0.3,0.6,0l0,0
		c8.3-5.1,17.4-9.2,26.9-12c0.9-0.3,2,0,2.9,0.6c4.6,3.7,8.6,8.6,11.2,14c-4.6-2.3-6.9,0.9-11.2-0.9c-2.3-1.1-5.1,0-6,2.3
		c-1.1,2.9-2.9,5.4-5.1,7.4c-5.7,5.1-13.4,14-10.3,21.7c2,4.9,8.3,8.6,12.9,12c0.9,0.6,1.7,0.9,2.6,0.9c2.6,0.3,5.4-0.9,7.4-2.6
		c1.1-1.4,3.1-1.7,4.6-0.6c0.3,0.3,0.6,0.3,0.6,0.6l2.6,2.6c1.4,1.1,1.7,3.4,0.6,4.9c0,0.3-0.3,0.3-0.3,0.6
		c-6.3,7.4-13.7,14.3-21.5,20c-1.7,1.4-3.7,2.3-6,2.3c-4-0.3-4.9,1.1-2,4.3c0.6,0.6,2.6,0.6,6,0l-0.3,3.4l-4.3,22.9
		c-0.3,0.9-0.6,1.7-1.4,2c-5.1,3.4-10.6,6.6-16,8.9c-31.2,12.6-62.9,24-95,34.6c-28.3,9.2-58.6,16.3-88.1,23.5
		c-8.6,2-16.6,1.4-25.2,1.4c-2,0-2.9-0.9-2.3-2.9c2-9.4,5.4-18.6,10-27.2c3.4-6,6.6-12,9.4-18.3c4.3-8.9,8.9-17.7,14.3-26
		c0.6-0.9,0.3-2.3-0.6-2.9c-0.3-0.3-0.9-0.3-1.7,0l11.2-18.3c11.2-13.7,22.9-29.5,35.2-46.9c6.9-10,10.3-22,9.4-34.3
		c-0.9-22.3-8.3-39.8-22.6-56.9c-9.7-11.7-22.6-20.3-36.9-25.5c-10-3.4-23.7-5.1-41.5-4.6c-28,0.9-55.5,2.9-82.1,5.7
		c-24.9,2.9-42.6,5.7-53.2,8.6c-36.3,10.3-59.5,33.5-69.5,69.5c-1.4,5.1-2.9,9.4-4,13.2c-5.4,1.7-8,8-7.7,18.6
		c0.3,9.2,0.3,18,0.6,27.2c0,0.6-0.3,1.1-0.9,1.1h-0.3c-14-2.9-28-7.2-41.2-12.9c-2.9-1.4-5.4-3.1-7.7-5.4c-1.4-1.4-1.4-3.7,0-5.1
		c0.6-0.6,0.9-0.9,1.7-0.9c4.6-1.1,9.2-2.6,14-4c16-4.9,9.7-23.7,2-32c-0.6-0.6-1.7-1.1-2.6-1.1c-8-0.6-15.4,5.4-19.7,11.4
		c-0.6,0.9-1.7,0.9-2.6,0.3c-0.3-0.3-0.6-0.6-0.6-0.9l-8-24c-0.3-1.1-1.7-2-2.9-1.4c-0.3,0-0.6,0.3-0.9,0.6
		c-3.7,3.7-6.6,8.3-7.4,13.7c0.9-12.9,3.1-25.7,7.4-38c2.9-8.9,9.7-4.6,15.7-3.4c2.9,0.3,5.7,0,8.3-1.4s5.1-2.9,7.7-4.3
		c2.3-1.7,5.1-2.9,8-3.4c7.7-1.4,16-2.9,24.9-4.3c4.9-0.6,7.2-2.6,6.9-5.1c3.7,4,6.3,8.9,7.7,14c0.9,4.6,0.9,9.4-0.6,14
		c-1.4,6.3-2,12.3-2.3,18.6c0,0.6,0.3,0.9,0.6,0.9h0.3h0.9c0.9,0,1.4-0.6,1.4-1.4c0.9-7.4,2.3-14.6,4.3-21.5
		c1.4-5.4,1.4-9.4-0.3-12.3c-4.3-7.4-9.2-15.2-14.6-23.2c-0.6-0.9-1.1-0.9-1.7,0.3c-0.3,0.9-0.3,1.4,0,2.3l-6.6-15.7
		c3.1-10.3,6.6-20.6,10.3-30.6c1.4-4.3,4-10,7.7-17.2c2.9-5.7,5.4-11.4,7.4-17.2c-0.6,2.6-0.6,4.9,0,7.4c0.3,1.1,0.9,1.1,1.7,0.9
		c2.3-1.1,4-3.1,5.4-5.1c0,6-2.6,11.7-7.2,15.4c-0.9,0.6-1.1,1.4-1.4,2.3c-1.1,4-0.6,8.3,1.4,12c6.9,13.2,21.5,14.6,31.5,4.6
		c3.1-3.1,5.7-6.9,7.4-11.2c1.1-2.9,3.7-8.3,7.7-16.6c4-8.3-6.6-10.6-11.4-12.6l-4-2.3c-4.6-2.6-10.9-2.9-18.6-0.6
		c5.7-11.4,6-22,1.1-31.7c3.4-13.2,8.3-25.7,14.3-38c8.9-18.6,22.3-34.6,39.5-46.3h3.7c0.9,0,1.7-0.6,2-1.1c1.4-2.3,3.4-2.6,6.6-1.7
		c1.1,0.3,2,1.7,1.7,2.9c-0.3,3.7-1.4,7.7-3.7,10.9c-0.6,0.9-0.9,1.7-0.9,2.9c0,1.4-0.6,2.9-2,3.4c-0.9,0.3-1.1,1.1-1.1,2
		c0,2.6-0.9,4.9-2.3,6.9c-0.6,0.9-1.1,1.7-1.4,2.6c-1.4,4.3-5.1,6.6-10.9,6.3c-9.4,6.3-16.6,15.2-20.6,25.7
		c-5.1,14.9-6.9,30.9-4.9,46.6c5.7,10,13.4,11.7,22.9,5.7c-0.3,1.7,0.9,3.1,3.1,3.7c1.1,0.3,2.3,0.9,3.1,1.7
		c1.4,1.4,3.1,2.6,5.1,3.7c2.6,1.1,5.1,1.7,8,1.7c6.9,0,9.7,1.4,8.9,4.6c-5.7,5.1-13.7,2.6-20,1.4c-0.9-0.3-1.7,0.6-2,1.4v0.3v0.9
		c0,1.4,1.1,2.6,2.6,2.9c5.7,1.4,11.7,0.6,16.9-2c19.2-11.7,41.8-16.9,64.1-14.9c12.6,1.4,25.2,2,38,1.7c6-0.9,12-2.6,17.2-5.7
		c9.7-6,19.7-10.9,28.3-18.6c1.1-0.9,1.4-2.9,0.6-4c0,0,0-0.3-0.3-0.3c-1.7-0.9-3.4-1.4-5.1-1.7c2.3-2.9,3.7-6.3,4.6-9.7
		c0.6-4.6,0.6-8.9,0.3-13.4c0-1.7,0.3-3.1,1.4-4.3l0.9-1.1c0.3-0.6,0.9-0.6,1.4-0.3c0.3,0.3,0.3,0.3,0.3,0.6c0.3,2.3,0.9,4.9,2,6.9
		c3.1,13.4,13.2,26.6,28.6,23.2c22-4.9,27.5-22.9,25.5-43.2c-0.9-12.6-7.4-24-18-30.9c-2.6-1.4-4.6-3.4-5.7-6
		c-0.9-3.4-1.7-6.9-2.9-10c-1.1-3.1-2-6.6-2-10.3c0-5.7-0.6-11.7-1.7-17.4c-0.3-0.9-0.6-1.7-1.4-2.3c-1.7-1.4-3.4-3.1-4.6-5.1
		c-1.7-2.9-2.9-6-2.9-9.4L486.5,271.1z M541.4,403.5c2.9,0,4.9-8,4.3-17.4c-0.6-9.4-3.1-17.2-6-16.9c-2.9,0.3-4.9,8-4.3,17.4
		C536,396.1,538.5,403.8,541.4,403.5z M506.2,414.1c-1.4,2.6-2.9,4.9-4.6,7.4c-2.9,4.3-6.9,3.4-9.2-0.6c-5.7-10-19.4,1.1-12.3,12.6
		c2.6,4,6,7.2,10,9.2c18.3,10,36.6,2.6,48.6-13.2c4.9-5.4,6-13.4,3.1-20c-0.3-1.1-1.4-2-2.3-2.3c-4.6-1.4-8.9-4.6-13.7-4.9
		C516.8,401.5,510.2,405.5,506.2,414.1L506.2,414.1z M582,493.9c-1.1-2-4-2.6-6-1.4c-0.6,0.3-1.1,0.9-1.4,1.4
		c-6.6,7.7-8,15.4-4.3,23.7c0.6,1.1,1.1,1.7,2.3,2.3c6.9,4,13.4,9.2,18.9,15.2c7.7,8.3,14.6,3.1,23.5,2c0.9-0.3,1.7,0.3,2.3,1.1
		c1.7,2.9,2.3,6.3,4.9,8.6c6,5.7,12,6.6,18.3,2.6c3.4-2.6,6-6.3,6.9-10.3c1.1-4.3,2-8.6,2-12.9c0.3-11.4-0.3-22.9-1.4-34.3
		c-0.9-10-6-16-15.4-17.4c-3.4-0.6-6.9,1.4-8,4.9c-3.7,11.4-10.9,25.2-25.7,20.9c-4.6-1.1-9.4-2.9-14-4.6
		C583.7,495.1,582.9,494.5,582,493.9z M593.4,572c-2.3-6.3-12.6-20.9-21.5-18.3c-19.7,6-18.9,32,2,35.2c14,2.3,28.3-0.6,40.3-7.4
		c0.9-0.6,1.1-1.7,0.6-2.6c-0.3-0.3-0.3-0.6-0.6-0.6c-4.6-2.9-10-3.7-15.4-2.9C596.6,575.4,594.3,574.3,593.4,572L593.4,572z
		 M165.3,569.1c2-5.7-0.9-12-6.3-14c-5.7-2-12,0.9-14,6.3c-2,5.4,0.9,12,6.3,14c0.3,0,0.6,0.3,0.9,0.3
		C157.6,577.4,163.3,574.6,165.3,569.1L165.3,569.1z M649.5,614.3c0-1.7-1.4-2.9-2.9-2.9h-1.7c-1.7,0-2.9,1.1-2.9,2.6v0.3v9.4
		c0,1.7,1.1,2.9,2.6,2.9h0.3h1.7c1.7,0,2.9-1.1,2.9-2.6v-0.3V614.3z" class="st5"></path>
	<path d="M469.6,271.4c0,3.4,1.1,6.6,2.9,9.4c1.4,2,2.9,3.7,4.6,5.1c0.6,0.6,1.1,1.4,1.4,2.3c1.1,5.7,1.7,11.4,1.7,17.4
		c0,3.4,0.6,6.9,2,10.3c1.1,3.4,2,6.6,2.9,10c1.1,2.6,3.1,4.9,5.7,6c-12-5.4-20.9-2.9-27.2,7.7c-2.9,4.6-5.1,9.7-6.9,14.9
		c-2.3,9.2-2.9,18.9-2,28.3c-1.1-2.3-1.7-4.6-2-6.9c0-0.6-0.6-0.9-1.1-0.9c-0.3,0-0.6,0.3-0.6,0.3l-0.9,1.1
		c-0.9,1.1-1.4,2.9-1.4,4.3c0.3,4.6,0.3,8.9-0.3,13.4c-0.9,3.4-2.6,6.9-4.9,9.7c-3.7,5.1-8.3,9.7-13.4,13.7
		c-14,10.9-24.6,13.2-43.5,12s-43.2-4.3-60.1,1.1c-8,3.1-15.7,6.9-22.9,11.7c0.9-3.1-2-4.6-8.9-4.6c-2.9,0-5.4-0.6-8-1.7
		c-1.7-0.9-3.4-2.3-5.1-3.7c-0.9-0.9-2-1.4-3.1-1.7c-2.3-0.6-3.4-1.7-3.1-3.7c4.9-4.3,8.6-9.7,11.2-15.7c6.3-15.7,12-44.9,1.7-58.6
		c-2.3-3.1-6.6-4.6-10.3-3.7c5.7,0.3,9.4-2,10.9-6.3c0.3-0.9,0.9-1.7,1.4-2.6c1.4-2,2.3-4.3,2.3-6.9c0-0.9,0.3-1.7,1.1-2
		c1.4-0.6,2-2,2-3.4c0-1.1,0.3-2,0.9-2.9c2-3.1,3.4-7.2,3.7-10.9c0.3-1.1-0.6-2.6-1.7-2.9c-3.1-1.1-5.4-0.6-6.6,1.7
		c-0.3,0.9-1.1,1.1-2,1.1h-3.7l30-21.2l27.5-11.2c1.1-0.6,2.3-1.4,3.1-2.6c0.3,0,0.9,0,1.1,0c0.6,0,1.1,0.6,1.1,1.4
		c0,0.3,0,0.3,0,0.3c-2.6,8.3,0.6,17.4,7.7,22.3c0.6,0.6,1.4,0.9,2.3,0.9c9.4,0.3,18.6-3.7,25.2-10.3c2.6-2.6,6.3-4,10-3.4
		c0.9,0,1.7,0,2.6-0.6c0.3,0,0.3-0.3,0.6-0.6c0.6-0.9,1.1-0.9,1.4,0.3c0.9,1.7,2,3.4,3.1,4.9c0.6,0.6,1.4,0.9,2.3,0.6
		c17.4-3.7,33.5-12,46.6-24.3C457.3,272.8,463.6,272.8,469.6,271.4z M349.2,384.7c-0.3-1.4-3.4-2-6.6-1.1c-3.1,0.9-5.7,2.6-5.1,4
		c0.6,1.4,3.1,2,6.6,1.1C347.5,387.8,349.5,386.1,349.2,384.7z" class="st6"></path>
	<path d="M486.5,271.1c28,4.9,54.6,16.6,77.5,33.7c10,7.2,18.6,16,24.9,26.6c0,0.3,0,0.6,0,0.9
		c-1.1,0.3-1.7,0.6-1.4,1.1c-5.7-8-12.6-15.2-20-21.5c-23.7-20-52.6-32.9-83.2-37.2c-0.9,0-1.4-0.6-1.4-1.4c0-0.3,0-0.6,0-0.9
		c0-0.6,0.3-0.9,0.9-0.9h0.3C484.5,272,485.6,271.7,486.5,271.1z" class="st7"></path>
	<path d="M316.3,294l-30,21.2c-16.9,11.7-30.6,27.7-39.5,46.3c-6,12.3-10.9,24.9-14.3,38l-13.4,37.2
		c-2.3,5.7-4.6,11.4-7.4,17.2c-3.7,7.2-6.3,12.9-7.7,17.2c-3.7,10-7.2,20-10.3,30.6c-5.7-10-4.9-21.7,2.6-35.2
		c1.7-0.9,2.6-2.9,2.3-4.6c0-0.9-0.6-1.7-1.4-1.7c-2.3-0.3-4.6-0.9-6.6-1.7c-14-8-26.9-17.4-38.3-28.3c-1.7-1.4-3.1-3.1-4.3-4.9
		c-3.1-4-5.4-4.6-6.6-2.3c-0.9-0.9-1.1-2-0.6-3.1c0.3-0.9,1.1-1.4,2-1.7c10-2,22.6,1.7,32.3,2.3c2.6,0.3,4.6-1.7,4.9-4
		c0-0.6,0-1.4-0.3-2c-2-5.1-4-9.7-6-14c-2.3-4.6-3.7-9.4-4-14.3c-0.6-6.9-0.3-13.7,0.9-20.6c0-0.6,0.3-0.9,0.9-1.1
		c0.6-0.6,1.1-1.1,1.4-1.7c6.6-12,12.3-24.3,17.7-37.2c1.1-2.6,4-3.7,6.3-2.9c0.9,0.3,1.7,0.9,2.3,1.7c6,8.9,12.9,17.2,20.3,24.9
		c2.3,2.3,4,4.9,5.4,7.4c1.4,3.1,4,5.4,7.2,6.3c4,1.4,8.3-0.3,10.3-4c0.6-1.1,1.1-2,2-3.1c7.4-11.2,12.9-18.9,16.3-22.9
		C274.3,314.3,294,300.9,316.3,294z" class="st0"></path>
	<path d="M666.4,338.6c-0.3-2.6-1.4-3.7-3.1-4c-0.9,0-2,0.3-2.3,1.1c-1.4,2-3.4,3.4-5.7,4c-17.7,4.3-36.6,2.3-52.9-5.7
		c-4.3-1.7-8.9-2.3-13.4-1.7c0-0.3,0-0.6,0-0.9l4.3-0.3c0.9,0,1.7-0.3,2.6-0.9c2-1.7,4.3-2.9,6.6-3.7c10.9-2.3,21.7-3.4,32.9-3.4
		c4,0,7.7-0.6,11.4-2c5.4-1.4,10.9-1.4,16.3-0.3c0.9,0,1.7,0.9,1.7,1.7L666.4,338.6z" class="st8"></path>
	<path d="M491.1,332c10.6,6.9,17.4,18.3,18,30.9c2,20.3-3.4,38.3-25.5,43.2c-15.7,3.4-25.5-9.7-28.6-23.2
		c-0.9-9.4,0-19.2,2-28.3c1.7-5.1,4-10.3,6.9-14.9C470.2,329.2,479,326.6,491.1,332z M492.2,372.6c4.6-1.4,6.6-8.3,4.3-14.9
		c-2.3-6.6-7.7-11.2-12.3-9.7s-6.6,8.3-4.3,15.2C482.2,370.1,487.3,374.1,492.2,372.6z M473,399c1.7,2,4,3.1,6.6,2.9l9.2-0.9
		c4.3-0.3,7.4-4.3,7.2-8.6c-0.3-2-1.1-3.7-2.6-5.1l-11.2-9.7c-2.9-2.6-7.2-2.6-10-0.3l-4.3,3.4c-3.4,2.6-4,7.7-1.1,11.2l0,0L473,399
		z" class="st9"></path>
	<path d="M588.9,332.3c4.6-0.6,9.2,0,13.4,1.7c16.6,8,35.2,10,52.9,5.7c2.3-0.6,4.3-2,5.7-4c0.6-0.9,1.4-1.1,2.3-1.1
		c1.7,0.3,2.9,1.4,3.1,4c1.7,29.5,1.1,59.2-1.7,88.7c-0.3,3.1,0.9,4,3.4,1.7c7.4-5.4,16.3-8.3,25.5-7.7c4.9,0,10-0.9,14.6-2.9
		c2.9-1.1,4.6-0.3,5.1,2.9c3.4,19.2,5.1,38.9,5.4,58.3c0,14-6.3,28.6-11.2,41.8c-0.3,0.6,0,1.4,0.6,2h0.3c0.3,0,0.9,0,1.4-0.6
		c5.7-4,11.4-7.7,17.4-11.2c3.7,0,7.4-1.1,10.9-2.9c2.9-2,6.9-1.1,8.6,1.7c0.3,0.3,0.3,0.6,0.6,1.1c2.9,4.9,5.4,10,7.4,15.2
		c3.7,8.6-8.3,14-14.6,16.6c-5.1,1.4-10.6-0.3-14.3-4.3c-2.9-3.1-4.9-2.6-5.7,1.7l-0.6,3.1c-0.9,3.4,0.6,7.2,3.7,8.9
		c14.6,10,30.3,5.1,46.6-1.4c3.4-1.4,6.6-3.1,9.7-5.4c9.7-8,16.9-20.3,22.3-31.5c2.3-5.1,4-10.6,5.4-16.3c1.4-5.4,3.4-10.9,5.7-16.3
		c0.6-1.4,2.3-2,3.7-1.4c0.3,0,0.6,0.3,0.9,0.6c3.4,4,4.9,9.4,4.3,14.6c-3.4,22-12.6,42.6-26.3,60.1c-9.7,11.4-22.6,19.7-37.2,23.5
		c-8.9,2-18,1.1-26.3-2.6c-4.3-1.7-5.1-0.6-2.6,3.1c4.3,5.7,0.3,0.9,0.9,2.3c0.3,0.9,0,1.7-0.6,2c0,0,0,0-0.3,0
		c-1.1,0.6-2.6,0.6-3.4-0.3c-11.4-6.9-21.7-15.4-30.6-25.5c-4-4.3-4.9-3.7-2.6,1.7c1.4,3.7,0.3,6-3.4,6.6
		c-2.6-5.4-5.4-10.6-8.6-15.7c-6.9-11.4-14-23.2-21.5-35.2c-0.9-1.4-1.1-3.1-0.3-4.9c0.3-0.6,1.1-0.6,2.3-0.3l8,7.2
		c0.6,0.6,1.7,0.6,2-0.3l0.3-0.3l3.7-7.4c7.7,1.4,7.7,12,12.3,16.9c1.7,1.7,3.4,3.1,5.7,4.3c1.1,0.6,2.6,0,3.1-0.9l4.9-8.6
		c1.7-2.9,0.9-6.3-1.7-8.3c-3.1-2.3-6-5.1-8.9-7.7c-2.9-2.6-4.9-5.7-6.6-9.4c-1.7-3.7-3.4-7.2-5.7-10.3c-0.6-0.6-0.6-1.7,0.3-2.3
		c0,0,0.3,0,0.3-0.3c2-1.4,3.7-3.7,4.6-6c0.3-0.9,0.3-1.7-0.3-2.3l-4.3-5.4c-0.9-0.9-1.1-2-0.9-3.1c1.1-3.7-0.9-7.4-4.3-8.9
		c-2-0.9-4-0.6-5.7,0.6l-12.6,9.7l-5.7-9.2c0.9-4,4.9-8.3,11.4-12.6c1.1-0.9,1.4-1.7,0.6-2.6c-0.6-0.6-1.4-0.9-2-0.6l0,0
		c-4.6,3.1-8.9,2.6-13.2-1.7c-4.9-4.9-9.4-9.7-13.4-14.3c-3.4-3.7-7.2-4.9-10.9-3.1c-2.9,1.4-5.1,4.3-5.7,7.4
		c-1.1,4.3-1.1,8.6-0.3,12.9c0.3,0.9,0.6,1.7,1.1,2.6c2.3,2.9,2.3,6.3-0.3,10.3v-0.9c-2.6-1.4-3.7-4.3-3.4-8.6c0.3-2.9,0.3-6,0-8.9
		c-1.1-9.7-2.3-19.4-3.4-28.9c-1.1-9.7-2.9-19.2-5.4-28.6c-4.3-16.3-10-32-16.9-47.5C587.2,332.9,587.4,332.6,588.9,332.3z
		 M635.8,382.1c-10.6-2.3-15.2,10.9-4,15.7c5.4,2.3,11.2,4,17.2,5.1c4.3,0.6,6-1.1,4.6-5.4C650.9,389.5,644.1,383.5,635.8,382.1z" class="st10"></path>
	
		<ellipse ry="12.9" rx="8.9" cy="360.4" cx="487.9" class="st11" transform="matrix(0.9505 -0.3107 0.3107 0.9505 -87.8162 169.4241)"></ellipse>
	<path d="M287.1,412.1c-0.9-3.4-2.3-6.9-4.3-10c-1.7-2.9-5.1-4.3-8.3-3.7c-8,1.4-12.6,4.9-14,10.3
		c-1.1,4.6-1.7,9.2-2,14c0,1.1-0.6,1.7-1.4,1.7s-1.7-0.3-2-1.1c-0.6-1.4-1.1-1.7-2-0.9c-2-15.7-0.3-31.7,4.9-46.6
		c4-10.6,11.2-19.4,20.6-25.7c3.7-0.9,8,0.6,10.3,3.7C299.1,367.2,293.4,396.4,287.1,412.1z M271.4,390.7c3.4,1.4,8.6-2.3,11.4-8.6
		c2.9-6.3,2.3-12.6-1.1-14.3c-3.4-1.7-8.6,2.3-11.4,8.6C267.4,382.7,267.7,389.2,271.4,390.7z" class="st9"></path>
	
		<ellipse ry="6.9" rx="12.6" cy="379.3" cx="276.1" class="st11" transform="matrix(0.4035 -0.915 0.915 0.4035 -182.3144 478.91)"></ellipse>
	
		<ellipse ry="17.2" rx="5.1" cy="386.4" cx="540.8" class="st9" transform="matrix(0.9989 -4.710597e-02 4.710597e-02 0.9989 -17.6004 25.9052)"></ellipse>
	<path d="M473,399l-6.3-7.4c-2.9-3.4-2.3-8.3,0.9-11.2l0,0l4.3-3.4c2.9-2.3,7.2-2.3,10,0.3l11.2,9.7
		c3.1,2.9,3.7,7.7,0.9,11.2c-1.4,1.4-3.1,2.6-5.1,2.6l-9.2,0.9C477.3,401.8,474.8,401,473,399z" class="st12"></path>
	<path d="M631.8,397.8c-11.2-4.9-6.6-18,4-15.7c8.3,1.4,14.9,7.4,17.4,15.4c1.4,4.3,0,6-4.6,5.4
		C642.9,401.8,637.2,400.1,631.8,397.8z" class="st13"></path>
	<ellipse ry="2.9" rx="6" cy="386" cx="343.4" class="st14" transform="matrix(0.9694 -0.2453 0.2453 0.9694 -84.2061 96.0349)"></ellipse>
	<path d="M287.1,412.1c-2.6,6-6.3,11.4-11.2,15.7c-9.4,6.3-17.2,4.3-22.9-5.7c0.6-0.9,1.1-0.3,2,0.9
		c0.3,0.9,1.1,1.4,2,1.1c0.9,0,1.4-0.6,1.4-1.7c0.3-4.6,1.1-9.4,2-14c1.4-5.4,6-8.9,14-10.3c3.1-0.6,6.6,0.9,8.3,3.7
		C284.8,405,286.3,408.4,287.1,412.1z" class="st15"></path>
	<path d="M232.5,399.5c5.1,9.4,4.6,20-1.1,31.7l-5.4,8.6c-1.4,2-3.1,4-5.4,5.1c-0.9,0.6-1.4,0.3-1.7-0.9
		c-0.6-2.6-0.6-4.9,0-7.4L232.5,399.5z" class="st16"></path>
	<path d="M506.2,414.1c4-8.6,10.3-12.6,19.2-12c4.9,0.3,9.2,3.4,13.7,4.9c1.1,0.3,2,1.1,2.3,2.3
		c2.9,6.6,1.7,14.6-3.1,20c-12,15.7-30.3,23.2-48.6,13.2c-4-2-7.4-5.4-10-9.2c-7.2-11.4,6.9-22.6,12.3-12.6c2.3,4,6.3,4.9,9.2,0.6
		C503.4,419,505.1,416.7,506.2,414.1z" class="st17"></path>
	<path d="M443.9,404.4c1.7,0.6,3.4,1.1,5.1,1.7c1.1,1.1,1.1,2.9,0,4l-0.3,0.3c-8.6,8-18.6,12.9-28.3,18.6
		c-5.1,3.1-11.2,4.9-17.2,5.7c-12.6,0.3-25.5-0.6-38-1.7c-22.3-2-44.6,3.1-63.8,14.9c-5.1,2.6-11.2,3.4-16.9,2
		c-1.4-0.3-2.6-1.4-2.6-2.9v-0.9c0-0.9,0.9-1.7,1.7-1.7h0.3c6.3,1.1,14.3,3.4,20-1.4c7.2-4.6,14.9-8.6,22.9-11.7
		c16.9-5.4,41.2-2.3,60.1-1.1c18.9,1.1,29.5-1.1,43.5-12C435.6,414.1,440.1,409.5,443.9,404.4z" class="st7"></path>
	<path d="M196.2,466.7c-14.3-8.3-28-17.7-40.9-28.3c-5.4-4.6-10.3-9.7-14.6-15.7c1.4-2.3,3.4-1.4,6.6,2.3
		c1.4,1.7,2.9,3.4,4.3,4.9c11.4,10.9,24.3,20.6,38.3,28.3c2,0.9,4.3,1.4,6.6,1.7c0.9,0,1.4,0.9,1.4,1.7
		C198.7,463.9,197.9,465.9,196.2,466.7z" class="st18"></path>
	<path d="M648.9,459.3l3.4,2.6c-8.9-8.9-21.2-10.3-36-4.6c2.6-4,2.6-7.2,0.3-10.3c-0.6-0.9-0.9-1.7-1.1-2.6
		c-0.9-4.3-0.9-8.6,0.3-12.9c0.6-3.1,2.9-6,5.7-7.4c3.7-1.7,7.4-0.6,10.9,3.1c4.3,4.6,8.9,9.4,13.4,14.3c4.3,4.3,8.6,4.9,13.2,1.7
		c0.6-0.6,1.7-0.6,2,0.3l0,0c0.9,0.9,0.6,1.7-0.6,2.6C653.8,451,650.1,455.3,648.9,459.3z" class="st12"></path>
	<path d="M225.9,440.1l5.4-8.6c7.7-2,13.7-2,18.6,0.6l4,2.3c4.9,2,15.4,4.6,11.4,12.6c-4,8.3-6.6,13.7-7.7,16.6
		c-1.7,4-4.3,8-7.4,11.2c-10,10-24.6,8.6-31.5-4.6c-2-3.7-2.3-8-1.4-12c0.3-0.9,0.6-1.7,1.4-2.3
		C223.3,451.6,225.9,446.2,225.9,440.1z" class="st17"></path>
	<path d="M838.6,583.4c-4.3,2.3-7.2,8.3-9.2,18c-0.9,3.4-3.1,6.3-6.6,8c-0.9,0.3-1.4,1.1-2,2c-2.3,4.6-6.3,8-11.2,9.7
		c-0.9,0.3-1.7,0.9-2.3,1.7c-5.7,7.2-13.2,12.9-21.7,16.6c-0.9,0.3-1.4,0.9-2,1.7c-1.4,2.3-3.7,2.3-5.4,4.3c-2,2.3-3.7,4.9-5.4,7.4
		c-0.9,2-2.3,3.4-4.3,4c-1.7,0.6-3.7-0.3-4.6-1.7c-0.6-0.6-1.4-0.6-2-0.3l-0.3,0.3c-1.7,3.1-4,6.3-6.6,8.9c-4.3,4-9.2,7.4-14.6,9.4
		c-13.7,6-26.9,11.2-39.5,15.4c-2.6,0.9-5.1,2.3-7.4,3.7c-2.3,1.4-4.6,2.6-7.2,3.4c-6.6,2-13.2,4-19.4,6.3c-0.9,0.3-2-0.3-2.3-1.1
		c0-0.3,0-0.6,0-0.9c0.9-6.3,1.7-12.9,2.6-19.7c0.6-4-0.6-6-3.1-6.3l0.3-3.4c12-8,20.6-15.2,25.5-21.5
		c11.4-14.6,11.7-31.2,11.4-48.6c0-0.9-0.6-1.4-1.4-1.4h-0.3c-2.9,0.3-5.7,0-8.3-0.6c-0.9-0.3-1.7-0.9-1.7-2v-1.4l3.4,0.3
		c0.9,0.3,2-0.3,2.3-1.1l2.6-4.9c0.6-0.9,0.6-1.7,0.3-2.6c-1.1-3.4-2.6-6.6-4.3-9.7c-0.3-0.9-1.1-1.4-2-1.7c-1.1-0.3-2,0-2.9,0.6
		c-1.1-0.9-1.1-2.3-0.3-3.7c0.6-0.9,0.6-1.7,0.6-2.6l-0.3-2.3c3.7-0.6,4.9-2.9,3.4-6.6c-2.3-5.4-1.4-6,2.6-1.7
		c8.9,10,19.2,18.3,30.6,25.5c1.1,0.6,2.6,0.9,3.4,0.3c0.9-0.3,1.1-1.1,0.9-2c0,0,0,0,0-0.3c-0.6-1.4-0.9-2.3-0.9-2.3
		c-2.9-3.7-2-4.9,2.6-3.1c8.3,3.7,17.4,4.6,26.3,2.6c14.6-3.7,27.5-12,37.2-23.5c13.7-17.4,22.9-38,26.3-60.1
		c0.9-5.1-0.6-10.6-3.7-14.9c-1.1-1.1-2.9-1.1-4,0c-0.3,0.3-0.3,0.6-0.6,0.9c-2.3,5.1-4.3,10.6-5.7,16.3c-1.4,5.4-3.4,10.9-5.4,16.3
		c-5.4,11.4-12.6,23.5-22.3,31.5c-2.9,2.3-6.3,4-9.7,5.4c-16.3,6.6-32,11.4-46.6,1.4c-3.1-2-4.6-5.4-3.7-8.9l0.6-3.1
		c0.9-4.3,2.9-4.9,5.7-1.7c3.4,4,9.2,5.4,14,4c-4.9,7.7-0.9,8,11.4,1.1c0.9-0.6,1.4-1.1,1.7-2c0.9-2.6,2.3-4.9,4-7.2
		c0.6-0.9,1.7-1.1,2.9-0.6c2.9,1.1,5.4,2.6,8,4c3.4,1.7,5.4,1.1,5.7-1.7c4.3-4,7.7-8.6,10-14c4.6-11.4-8.6-21.7,10.6-26.9
		c1.1-0.3,1.7-1.1,1.7-2.3v-0.3c-2-8-0.6-16.6,4-23.7c4-6,6.3-13.2,6.6-20.3c0-1.1,0-2.3-0.3-3.1c0-0.3,0-0.6,0-0.9
		c0-0.9,0.9-1.1,1.4-1.1c3.7-0.3,7.4,1.1,10.3,3.4c18.3,14.3,26.6,38.9,26.6,61.5C845.1,533.7,842.8,558.8,838.6,583.4z M808,605.7
		c1.4-0.9,0.3-6.3-2.6-12c-2.9-5.7-6.6-10-8.3-9.2c-1.7,0.9-0.3,6.3,2.6,12C802.5,602.3,806.5,606.3,808,605.7L808,605.7z
		 M762.2,621.8c5.1,4.6,13.7,3.1,19.4-3.4c5.7-6.6,6-15.2,0.9-19.7c-5.1-4.6-13.7-2.9-19.4,3.4C757.3,608.3,757.3,617.2,762.2,621.8
		L762.2,621.8z M721.9,640.1c14.9-3.7,9.7-18.3,1.4-24.9c-1.4-1.7-4.3-1.7-5.7-0.3c-0.3,0.3-0.6,0.6-0.6,0.9
		c-4.6,5.4-10,13.4-6.6,20.3C712.1,640.4,716.1,641.5,721.9,640.1L721.9,640.1z" class="st19"></path>
	<path d="M652.4,461.9c-12.6,2-24.6,3.4-35.8,4.6c-6.9,0.6-13.7,1.4-20.6,2.9c-8.9,2.3-16.9,6.6-23.7,12.6
		c-4.6,4.3-10.6,6-16.9,4.9c-4.9-0.9-8.9,0.9-13.7,1.7c-0.6,0-1.1-0.3-1.1-0.9c0-0.3,0.3-0.9,0.6-0.9c2.6-1.1,4.9-2.6,7.2-4.3
		c15.2-11.2,32.6-18.9,51.2-22.9c5.7-1.1,10.9-2.3,16.3-3.7v0.9C631.5,451.3,643.5,453,652.4,461.9z" class="st20"></path>
	<path d="M675,510.8c1.7-2.6,2-5.7,1.1-8.6c-2.9-9.2-4.9-16-16.3-18.3c-2-0.6-2.9-2.6-3.1-5.4c0-0.9-0.3-1.7-0.9-2.6
		c-1.7-2.3-2-5.1-1.1-7.7l12.6-9.7c1.7-1.1,3.7-1.4,5.7-0.6c3.4,1.4,5.4,5.1,4.3,8.9c-0.3,1.1,0,2.3,0.9,3.1l4.3,5.4
		c0.6,0.6,0.9,1.7,0.3,2.3c-0.9,2.6-2.3,4.6-4.6,6c-0.9,0.3-1.1,1.4-0.6,2c0,0,0,0.3,0.3,0.3c2.3,3.4,4,6.9,5.7,10.3
		c1.7,3.4,3.7,6.6,6.6,9.4c2.9,2.9,5.7,5.4,8.9,7.7c2.6,2,3.1,5.4,1.7,8.3l-4.9,8.6c-0.6,1.1-2,1.4-3.1,0.9c-2.3-1.1-4-2.6-5.7-4.3
		C682.7,522.8,682.7,512.2,675,510.8z" class="st12"></path>
	<path d="M584.6,495.6c4.6,1.7,9.2,3.1,14,4.6c14.9,4,22-9.7,25.7-20.9c1.1-3.4,4.6-5.4,8-4.9
		c9.4,1.7,14.6,7.4,15.4,17.4c1.1,11.4,1.4,22.9,1.4,34.3c-0.3,4.3-0.9,8.9-2,12.9c-0.9,4.3-3.4,8-6.9,10.3
		c-6.3,4-12.3,3.1-18.3-2.6c-2.6-2.3-3.1-5.7-4.9-8.6c-0.3-0.9-1.1-1.1-2.3-1.1c-8.6,1.1-15.7,6.3-23.5-2
		c-5.4-6-11.7-11.2-18.9-15.2c-0.9-0.6-1.7-1.4-2.3-2.3c-3.7-8.3-2.3-16,4.3-23.7c1.1-2,4-2.6,6-1.4c0.6,0.3,1.1,0.9,1.4,1.4
		C582.6,494.8,583.7,495.3,584.6,495.6z" class="st10"></path>
	<circle r="5.7" cy="484.2" cx="152.4" class="st2"></circle>
	<path d="M660.1,483.9c11.2,2.3,13.4,8.9,16.3,18.3c0.9,2.9,0.6,6-1.1,8.6l-3.7,7.4c-0.3,0.9-1.4,1.1-2,0.6
		c0,0-0.3,0-0.3-0.3l-8-7.2C656.4,503.9,656.1,494.8,660.1,483.9z" class="st21"></path>
	<path d="M773.9,536.8c-0.6,2.9-2.6,3.4-5.7,1.7c-2.6-1.4-5.4-2.9-8-4c-1.1-0.6-2.3,0-2.9,0.6c-1.7,2-3.1,4.3-4,7.2
		c-0.3,0.9-0.9,1.7-1.7,2c-12.3,6.9-16,6.6-11.4-1.1c6.3-2.6,18.3-7.7,14.6-16.6c-2.3-5.1-4.9-10.3-7.4-15.2c-1.4-3.1-4.9-4.6-8-3.4
		c-0.3,0.3-0.9,0.3-1.1,0.6c-3.4,1.7-6.9,2.9-10.9,2.9l14-11.4c1.7-1.4,4.3-1.1,5.7,0.6c0.3,0.3,0.3,0.6,0.6,0.9l11.2,25.7
		c0.3,0.9,1.1,1.1,1.7,1.1C765.9,528.8,771.3,532,773.9,536.8z" class="st22"></path>
	<path d="M474.5,672.4c-20.3,8.9-41.5,16.3-63.2,22c-50.3,13.2-102.1,18.9-153.9,17.2c-7.4-0.3-18.6-1.7-28.3-1.4
		L218.2,697c-5.4-10.9-9.2-22.3-11.4-34.3c-1.1-20.3-0.3-40.3,2.6-60.3c1.1-3.7,2.6-8.3,4-13.2c10.3-36.3,33.5-59.5,69.5-69.5
		c10.6-2.9,28.3-5.7,53.2-8.6c26.6-2.9,53.8-4.9,82.1-5.7c17.7-0.6,31.5,0.9,41.5,4.6c14.3,4.9,27.2,13.7,36.9,25.5
		c14.3,17.2,21.7,34.6,22.6,56.9c0.9,12-2.6,24.3-9.4,34.3C497.3,642.9,485.6,658.4,474.5,672.4z M350.3,549.7
		c4.3,2.9,11.4,0,16-6.6c4.6-6.6,4.6-14.3,0.3-17.4c-4.3-3.1-11.4,0-16,6.6C346,538.8,346,546.5,350.3,549.7z M315.7,549.1
		c-9.7-4-12.6,6.9-10.3,13.7c0.9,2.6,2.6,3.1,4.9,2c4-2.3,6.9-5.7,8-10.3c0.9-2-0.3-4.3-2.3-5.1C316,549.1,316,549.1,315.7,549.1z
		 M306,614.9l1.1,7.2c0,0.9,0.6,1.7,1.1,2.3c6.3,7.2,15.4,11.2,24.9,11.2c4.3-0.3,8.6-1.4,12.6-3.1c3.1-0.9,6-2.3,8.6-4
		c4.6-3.1,8.6-6.9,12.3-10.9c9.2-9.7,17.2-3.4,27.2-6.6s17.7-10.6,21.5-20.3c0.6-1.1,1.7-1.7,2.9-1.4c4.3,0.9,9.2,2.3,13.4,0.3
		c11.7-5.4,16.9-14.9,15.4-28.3c0-0.6-0.6-1.1-1.1-1.1c-0.3,0-0.6,0-0.9,0.3c-0.3,0.3-0.6,0.9-0.9,1.4c-1.1,8.3-3.1,17.2-10.9,21.2
		c-3.7,1.7-7.7,2-11.7,0.9c-5.4-1.1-10.6-2.3-15.7-4c-1.1-0.3-2.6,0.3-3.1,1.4c0,0,0,0.3,0,0.6c-0.9,6.3-1.7,15.7-8,18.9
		c-6.9,2.9-14,4.6-21.5,4.6c-2,0.3-4-0.6-5.4-2c-0.9-0.9-2-0.9-2.9,0l-0.3,0.3c-9.2,13.2-17.7,29.5-37.5,25.5
		c-10-2-16-8.9-17.7-20.3c0-0.9-0.9-1.4-1.7-1.1c-0.3,0-0.3,0-0.6,0.3c-5.4,3.4-14.3,7.2-20,3.4c-6.3-4-8.3-10.6-6.3-19.4
		c0.3-2,0-2-1.1-0.6c-6.9,8.6-16,14.9-26.3,18.3c-2.6,0.9-5.4,0.9-8-0.3c-1.4-0.6-2-2.3-1.4-3.7l0,0c1.1-1.7,1.7-3.4,2-5.4
		c-0.6-4.9-1.4-5.1-3.1-0.3c-2.9,7.7-1.7,15.4,8.6,14.9c8-0.3,16-3.4,22.3-8.6c0.6-0.6,1.1-0.6,1.7,0l0.3,0.3
		c1.7,2.3,3.7,4.6,5.1,6.9c4,5.7,9.7,6.9,16,7.2c0.9,0,2-0.3,2.6-0.9l4.9-4C305.4,613.8,306,613.8,306,614.9L306,614.9z" class="st23"></path>
	<path d="M204.2,526l-4.3-8.3c-0.3-0.9,0-1.4,0-2.3c0.6-1.1,1.1-1.1,1.7-0.3c5.4,8,10.3,15.7,14.6,23.2
		c1.7,2.9,1.7,6.9,0.3,12.3c-2,7.2-3.4,14.3-4.3,21.5c0,0.9-0.9,1.4-1.4,1.4h-0.9c-0.6,0-0.9-0.3-0.9-0.6v-0.3
		c0.3-6.3,0.9-12.6,2.3-18.6c1.1-4.6,1.4-9.4,0.6-14C210.8,534.5,207.9,530,204.2,526z" class="st7"></path>
	
		<ellipse ry="9.4" rx="14.6" cy="537.6" cx="358.7" class="st1" transform="matrix(0.5621 -0.8271 0.8271 0.5621 -287.5908 532.1148)"></ellipse>
	<path d="M305.4,562.6c-2.3-6.6,0.6-17.7,10.3-13.7c2,0.6,3.1,2.9,2.6,5.1v0.3c-1.1,4.3-4,8-8,10.3
		C308,566,306.3,565.1,305.4,562.6z" class="st5"></path>
	<path d="M593.4,572c0.9,2.3,3.1,3.7,5.4,3.1c5.4-0.9,10.9,0,15.4,2.9c0.9,0.6,1.1,1.7,0.6,2.6
		c-0.3,0.3-0.3,0.6-0.6,0.6c-12.3,7.2-26.6,9.7-40.3,7.4c-20.9-3.1-21.7-29.2-2-35.2C580.6,550.8,590.9,565.7,593.4,572z" class="st24"></path>
	
		<ellipse ry="10.9" rx="10.3" cy="566" cx="154.8" class="st12" transform="matrix(0.2823 -0.9593 0.9593 0.2823 -431.9029 554.6979)"></ellipse>
	<path d="M304.6,614.3l-4.9,4c-0.9,0.6-1.7,0.9-2.6,0.9c-6.3-0.3-12.3-1.4-16-7.2c-1.7-2.3-3.4-4.6-5.1-6.9
		c-0.3-0.6-1.1-0.9-1.7-0.3c0,0-0.3,0-0.3,0.3c-6.3,5.1-14,8.3-22.3,8.6c-10.3,0.6-11.4-7.2-8.6-14.9c1.7-4.6,2.9-4.6,3.1,0.3
		c-0.3,2-0.9,3.7-2,5.4c-0.9,1.4-0.3,3.1,1.1,4l0,0c2.6,1.1,5.4,1.4,8,0.3c10.3-3.4,19.4-9.7,26.6-18c1.1-1.4,1.7-1.1,1.1,0.6
		c-2,8.9,0.3,15.4,6.3,19.4c5.7,3.7,14.6,0,20-3.4c0.6-0.3,1.4-0.3,2,0.3c0,0.3,0.3,0.3,0.3,0.6c1.7,11.7,7.7,18.3,17.7,20.3
		c19.7,4,28.3-12.3,37.5-25.5c0.6-0.9,2-1.1,2.9-0.6l0.3,0.3c1.4,1.4,3.4,2.3,5.4,2c7.4,0,14.6-1.7,21.5-4.6
		c6.3-3.1,7.2-12.6,8-18.9c0.3-1.4,1.4-2.3,2.6-2c0.3,0,0.3,0,0.6,0c5.1,1.7,10.3,3.1,15.7,4c4,1.1,8,0.6,11.7-0.9
		c7.4-4,9.7-12.9,10.9-21.2c0-0.6,0.3-1.1,0.9-1.4c0.3-0.3,0.6-0.3,0.9-0.3c0.6,0,1.1,0.6,1.1,1.1c1.4,13.4-3.7,22.9-15.4,28.3
		c-4.3,2-9.2,0.6-13.4-0.3c-1.1-0.3-2.3,0.6-2.9,1.4c-3.7,9.7-11.7,17.2-21.5,20.3c-10.3,3.1-18-3.1-27.2,6.6
		c-3.7,4-8,7.7-12.3,10.9c-2.6,2-5.4,3.1-8.6,4c-4,1.7-8.3,2.6-12.6,3.1c-9.4,0-18.6-4-24.9-11.2c-0.6-0.6-0.9-1.4-1.1-2.3l-1.1-7.2
		C306,614,305.4,613.8,304.6,614.3z" class="st25"></path>
	<path d="M209.6,601.7c-2.9,20-3.7,40.3-2.6,60.3c-0.3,1.4-0.9,2-1.4,2l-2.6-9.2c-0.3-0.9-0.9-1.4-1.7-1.7
		c-34.3-8.3-79.2-21.7-75.8-66.9c1.1-5.1,3.7-10,7.4-13.7c0.9-0.9,2.3-0.9,3.4,0c0.3,0.3,0.3,0.6,0.6,0.9l8,24
		c0.3,0.9,1.4,1.4,2.3,1.1c0.3,0,0.6-0.3,0.9-0.6c4.3-6,11.7-12,19.7-11.4c0.9,0,2,0.6,2.6,1.1c7.7,8.3,14.3,27.2-2,32
		c-4.6,1.4-9.4,2.9-14,4c-2,0.6-3.1,2.6-2.6,4.6c0.3,0.6,0.6,1.1,0.9,1.7c2.3,2.3,4.9,4,7.7,5.4c13.2,5.7,26.9,10,41.2,12.9
		c0.6,0,1.1-0.3,1.1-0.9v-0.3c-0.3-8.9-0.3-18-0.6-27.2C201.9,609.8,204.5,603.5,209.6,601.7z" class="st12"></path>
	<path d="M690.4,595.5c-2.6-5.4-6.3-10-11.2-14c-0.9-0.6-2-0.9-2.9-0.6c-9.4,2.9-18.6,6.9-26.9,12c0,0-0.3,0.3-0.6,0
		l0,0l-0.3-0.6c-0.3-0.3-0.3-0.9,0-0.9l0,0c10.9-8.3,24-13.2,37.8-13.7c1.1,0,2-0.6,2.9-1.1c0.9-0.6,1.7-0.9,2.9-0.6
		c0.9,0.3,1.7,0.9,2,1.7c1.7,3.1,3.1,6.3,4.3,9.7c0.3,0.9,0.3,2-0.3,2.6l-2.6,4.9c-0.3,0.9-1.4,1.4-2.3,1.1L690.4,595.5z" class="st4"></path>
	<path d="M838.6,583.4c-2.6,15.2-8,29.5-13.7,44.3c-3.7,10-8.9,19.4-15.2,28.3c-15.4,22-32.9,48.3-54.6,63.2
		c-6.3,4.3-11.7,8.6-16.3,12.3c-5.1,4.3-10.6,8.6-16,12.3c-18,11.2-36.9,20.9-56.6,28.6l-58.9,15.2l-36.9,12.6
		c-13.4,2-27.2,2.9-40.9,2.3c-6.3-0.3-13.2-0.3-20.6,0c-6.9,0.3-13.7,0.3-20.6-0.3c-2.6-0.3-4.3-1.7-7.2-1.7
		c-5.7,0.3-11.4,0.3-17.2,0.3c-0.9,0.3-1.1-0.6-0.9-2.6c-0.9-2.3-2.6-4-4.9-5.1c-8.6-4.9-17.4-9.2-26.3-12.9
		c-3.4-4.3-4.6-4.9-2.9-2.3c-1.7-3.7-2.6-8-1.7-12c1.7-8.3,4.3-16.3,8-23.7c8.6-17.2,16.9-35.8,28-51.5c0.9-0.3,1.4-0.3,1.7,0
		c0.9,0.6,1.1,2,0.6,2.9c-5.4,8.3-10,16.9-14.3,26c-2.9,6.3-6,12.3-9.4,18.3c-4.6,8.6-8,17.7-10,27.2c-0.3,2,0.3,2.9,2.3,2.9
		c8.6,0,16.6,0.9,25.2-1.4c29.5-7.2,59.8-14.3,88.1-23.5c32-10.6,63.8-22,95-34.6c5.7-2.3,11.2-5.4,16-8.9c0.9-0.6,1.1-1.1,1.4-2
		l4.3-22.9c2.6,0.3,3.7,2.3,3.1,6.3c-0.9,6.9-1.7,13.4-2.6,19.7c0,1.1,0.6,2,1.7,2c0.3,0,0.6,0,0.9,0c6.3-2.3,12.9-4.6,19.4-6.3
		c2.6-0.9,4.9-2,7.2-3.4c2.3-1.7,4.9-2.9,7.4-3.7c12.6-4,25.5-9.2,39.5-15.4c5.4-2.3,10.3-5.4,14.6-9.4c2.6-2.6,4.9-5.7,6.6-8.9
		c0.3-0.6,1.1-0.9,2-0.6l0.3,0.3c1.1,1.4,2.9,2.3,4.6,1.7c2-0.9,3.4-2.3,4.3-4c1.4-2.6,3.4-5.1,5.4-7.4c1.7-2,4-2.3,5.4-4.3
		c0.6-0.9,1.1-1.4,2-1.7c8.6-3.4,16-9.2,21.7-16.6c0.6-0.9,1.4-1.4,2.3-1.7c4.9-1.7,8.9-5.1,11.2-9.7c0.3-0.9,1.1-1.4,2-2
		c3.1-1.4,5.7-4.3,6.6-8C831.4,591.4,834.3,585.4,838.6,583.4z M763.3,678.7c0.3-1.7,0.3-3.4,0-4.9s-0.9-1.4-1.1,0l-10.6,31.5
		c-0.3,0.6,0,0.6,0.6,0.6c0.3,0,0.6,0,0.9-0.3c0.9-0.3,1.4-0.9,1.7-1.4C758.8,696.1,761.6,687.5,763.3,678.7z M486.5,798.8l29.7,2.6
		c0.3,0,0.6-0.3,0.6-0.6v-0.3c0.3-3.4-5.7-7.2-13.4-7.7l-2.9-0.3c-7.7-0.6-14.3,1.7-14.6,5.1v0.3
		C485.9,798.5,485.9,798.8,486.5,798.8C486.2,798.8,486.2,798.8,486.5,798.8L486.5,798.8z" class="st15"></path>
	
		<ellipse ry="12" rx="3.1" cy="594.9" cx="802.4" class="st24" transform="matrix(0.8894 -0.4571 0.4571 0.8894 -183.1783 432.5903)"></ellipse>
	<path d="M690.4,595.5v1.4c0,0.9,0.6,1.7,1.7,2c2.6,0.6,5.4,0.9,8.3,0.6c0.9,0,1.4,0.6,1.7,1.1l0,0
		c0.6,17.4,0,34-11.4,48.6c-4.9,6.3-13.4,13.4-25.5,21.5c-3.4,0.6-5.4,0.6-6,0c-2.9-3.1-2-4.6,2-4.3c2.3,0,4.3-0.9,6-2.3
		c8-5.7,15.2-12.6,21.5-20c1.4-1.4,1.4-3.4,0.3-4.9c0-0.3-0.3-0.3-0.6-0.3l-2.6-2.6c-1.1-1.4-3.1-1.7-4.6-0.6
		c-0.3,0.3-0.6,0.3-0.6,0.6c-2,1.7-4.6,2.9-7.4,2.6c-0.9,0-1.7-0.3-2.6-0.9c-4.6-3.4-10.9-7.2-12.9-12c-3.1-7.7,4.6-16.6,10.3-21.7
		c2.3-2,4-4.6,5.1-7.4c1.1-2.3,3.7-3.1,6-2.3C683.3,596.6,685.8,593.2,690.4,595.5z" class="st10"></path>
	
		<ellipse ry="12.3" rx="15.4" cy="610.2" cx="772.6" class="st24" transform="matrix(0.6626 -0.749 0.749 0.6626 -196.3738 784.5539)"></ellipse>
	<path d="M641.8,623.8v-9.4c0-1.7,1.4-2.9,3.1-2.9h1.7c1.7,0,2.9,1.4,2.9,3.1v9.4c0,1.7-1.4,2.9-3.1,2.9h-1.7
		C642.9,626.9,641.8,625.5,641.8,623.8z" class="st12"></path>
	<path d="M723.3,615.2c8.3,6.9,13.7,21.2-1.4,24.9c-5.7,1.4-9.7,0-11.7-4c-3.4-7.2,1.7-14.9,6.6-20.3
		c1.1-2,3.7-2.6,5.7-1.4C722.7,614.9,723,614.9,723.3,615.2z" class="st24"></path>
	<path d="M207,662.4c2.3,12,6,23.5,11.4,34.3c3.7,10,9.7,19.4,17.2,27.2c26.9,29.2,62.9,48.1,102.1,53.2
		c8.9,1.1,16.9,2.3,24.6,3.1c7.4,0.9,14.9,1.1,22.3,0.6c2.6,0,3.4,1.1,2.3,3.4c-0.9,2.3-0.9,4.6-0.6,7.2l-6,6l-4.9,4l-70.6,0.9
		l1.7-0.6c0.9-0.3,1.1-1.1,0.9-2c-0.3-0.6-0.6-0.9-1.1-1.1c-4.3-1.7-8.6-3.4-12.9-4.9c-4.3-1.1-8.3-3.1-12-5.7
		c-8.6-5.4-16.3-11.4-23.5-18.6c-7.4-7.7-15.2-15.2-23.5-22.9c-6.9-9.7-12-20.6-15.4-32.3c-0.6-2.6-1.1-5.1-1.1-7.4
		c0-2.6-0.6-5.1-1.4-7.4c-4-11.4-7.7-23.2-11.2-35.2C206.2,664.1,206.8,663.5,207,662.4z" class="st26"></path>
	<path d="M763.3,678.7c-1.4,8.9-4.6,17.4-8.9,25.5c-0.3,0.6-0.9,1.1-1.7,1.4c-0.3,0-0.6,0.3-0.9,0.3
		c-0.6,0-0.6-0.3-0.6-0.6l10.6-31.5c0.6-1.4,0.9-1.4,1.1,0C763.6,675.2,763.6,677,763.3,678.7z" class="st16"></path>
	<path d="M474.5,672.4l-11.2,18.3c-11.2,15.7-19.4,34.3-28,51.5c-3.4,7.7-6.3,15.7-8,23.7c-0.6,4,0,8.3,1.7,12
		c-5.4,0.3-10.9,0.3-16.3,0.6c-5.1,0.3-10.3,0-15.2-0.3c-8.6-0.6-18-0.9-27.7-1.1c-52.3-0.6-109.3-23.5-140.7-67.2
		c9.7,0,20.6,1.1,28.3,1.4c51.8,1.7,103.5-4,153.9-17.2C433,688.7,454.2,681.3,474.5,672.4z" class="st22"></path>
	<path d="M218.5,696.7l10.6,13.4c31.5,43.8,88.4,66.6,140.7,67.2c9.7,0,18.9,0.3,27.7,1.1c5.1,0.3,10.3,0.6,15.2,0.3
		c5.4-0.3,10.9-0.6,16.3-0.6c-1.4-2.9-0.6-2,2.9,2.3c-10.6,0.3-21.2,0.6-31.7,1.1c-3.7,0.3-8.3,3.4-14,10c-0.3-2.3,0-4.9,0.6-7.2
		c1.1-2.3,0.3-3.4-2.3-3.4c-7.4,0.6-14.9,0.3-22.3-0.6c-7.7-0.9-16-2-24.6-3.1c-39.2-5.4-75.5-24.3-102.1-53.2
		C228.2,715.9,222.2,706.7,218.5,696.7z" class="st14"></path>
	<path d="M867.4,732.7c-12.6-0.3-21.5-2-26.6-5.1c-5.7-3.7-10.9-8.3-15.2-13.7c-7.2-9.2-22.3-7.7-32.3-4.9
		c-3.7,1.1-7.7,1.1-11.4-0.3l44.3-10c2-0.6,4,0,5.7,1.4c4.6,3.7,9.4,7.4,14.6,11.4C854.6,717.3,861.4,724.4,867.4,732.7z" class="st27"></path>
	<path d="M867.4,732.7c2.3,4.9,4.6,10,6.9,15.2c2.6,6.6,5.1,13.2,7.4,19.7c4.3,11.7,11.7,21.7,16.9,33.5
		c0.3,0.3,0,1.1-0.9,2c-4.6,1.1-9.4,1.4-14.3,1.4c-40,0.3-79.2,0.3-117.3,0.3c-12.3,0-24.9-0.6-37.2-1.4c-1.7-0.3-3.4-0.6-5.1-1.1
		c-2.6-0.6-4.3-3.4-3.4-6c0-0.3,0.3-0.6,0.3-0.9c3.4-10.9,8-21.7,13.4-31.7c2-4,4.6-7.7,7.4-11.2c10.3-11.4,19.7-23.5,29.5-35.2
		c3.1-3.4,6.6-6.3,10.3-8.9c3.7,1.4,7.7,1.4,11.4,0.3c10-2.9,25.2-4.3,32.3,4.9c4.3,5.4,9.4,10,15.2,13.7
		C845.7,730.4,854.6,732.2,867.4,732.7z" class="st28"></path>
	<path d="M234.5,746.5c8.3,7.7,16,15.2,23.5,22.9c7.2,6.9,15.2,13.2,23.5,18.6c3.7,2.6,7.7,4.6,12,5.7
		c4.3,1.4,8.6,2.9,12.9,4.9c0.6,0.3,0.9,0.6,1.1,1.1c0.3,0.9,0,1.7-0.9,2l-1.7,0.6L290,802c-5.1-0.9-7.4-2-6.9-3.7
		c-6.9-6.9-14.3-13.2-22-19.2C249.9,769.9,241.1,759.1,234.5,746.5z" class="st14"></path>
	<path d="M666.1,772.5c0.6,1.4,2.6,2.3,6,2.6c0.9,0,2,0.6,2.6,1.1c7.2,6.3,12.6,14,15.7,23.2c0.6,1.1-0.3,2.6-1.4,3.1
		c-0.3,0-0.6,0-0.9,0h-66.4l-5.7-8.3c-0.6-0.9-0.9-1.7-1.1-2.6c-1.1-3.1-3.7-4.3-8-4L666.1,772.5z" class="st27"></path>
	<path d="M432.1,779.9c8.9,4,17.4,8.3,26.3,12.9c2,1.1,3.7,2.9,4.9,5.1c-3.4,2.6-7.7,0.6-11.2,0.9
		c-22.6,1.7-45.5,1.7-68.1,0.6c-2.6,0-3.7-0.9-3.7-2.3l6-6c5.7-6.6,10.3-10,14-10C411.3,780.5,421.6,780.2,432.1,779.9z" class="st11"></path>
	<path d="M607.2,787.4c4.3-0.3,6.9,1.1,8,4c0.3,0.9,0.9,1.7,1.1,2.6l5.7,8.3c-9.2,2.3-22-2.3-28.3-0.6
		c-4.3,1.1-8.6,1.1-12.9,0.3c0,0-1.4-0.6-3.7-1.4c-2-0.9-4.3-0.9-6.6-0.6L607.2,787.4z" class="st29"></path>
	<path d="M486.2,798.8c-0.3,0-0.6-0.3-0.6-0.6l0,0v-0.3c0.3-3.4,6.9-6,14.6-5.1l2.9,0.3c7.7,0.6,13.7,4,13.4,7.7v0.3
		c0,0.3-0.3,0.6-0.6,0.6L486.2,798.8z" class="st30"></path>
	<path d="M283.1,797.7c-0.6,1.7,1.7,3.1,6.9,3.7l-60.3,2.6c-0.6,0-1.1-0.6-1.1-0.9c0-0.3,0-0.6,0.3-0.6
		c1.4-1.4,3.1-2,5.1-2C249.7,800,266,799.1,283.1,797.7z" class="st0"></path>
	<path d="M380.4,797.1c0,1.4,1.1,2.3,3.7,2.3c22.6,1.1,45.5,0.9,68.1-0.6c3.4-0.3,7.4,1.7,11.2-0.9
		c-0.3,2,0,2.9,0.9,2.6c-1.1,0.9-2.3,1.1-3.4,1.1c-9.7-0.3-22.9,0.3-39.5,1.1c-15.2,0.9-30.6,0-45.8-2L380.4,797.1z" class="st30"></path>
</g>
</svg>
