<?xml version="1.0" standalone="no"?><!DOCTYPE svg PUBLIC "-//W3C//DTD SVG 1.1//EN" "http://www.w3.org/Graphics/SVG/1.1/DTD/svg11.dtd"><svg t="1712488468282" class="icon" viewBox="0 0 1024 1024" version="1.1" xmlns="http://www.w3.org/2000/svg" p-id="1632" xmlns:xlink="http://www.w3.org/1999/xlink" width="128" height="128"><path d="M474.314695 839.250539c174.780259 133.147788 319.20274-45.368876 319.20274-45.368876-233.744246-169.341396-316.583573 42.761987-316.583574 42.761986" fill="#AED98E" p-id="1633"></path><path d="M590.544304 749.986068s-77.862911 57.351563-51.941347 83.273127 232.524697-38.902808 232.524696-38.902808-105.613799 160.043354-278.949424 48.245866c0 0 27.533988-80.400229 98.366075-92.616185z" fill="#A1C983" p-id="1634"></path><path d="M464.394601 852.272707c185.28148 141.148523 340.303401-46.183273 341.846254-48.094446l10.861356-13.419136-13.983894-10.132901c-82.900714-60.060763-157.624718-80.907692-222.093047-61.967843-84.41492 24.800233-117.960714 108.482605-119.348054 112.030757l30.496921 11.909023-0.012277 0.036832c0.286471-0.724363 29.436977-72.571376 98.378351-92.653017 54.179916-15.776386 119.24165 3.449933 193.368157 57.155125l-3.122538-23.552037c-5.496157 6.748446-136.732772 164.397719-296.559227 42.643306l-19.832002 26.044337z" fill="#6E6E96" p-id="1635"></path><path d="M453.852456 835.158091c-182.838288 81.734367-215.892989-86.293353-215.892989-86.293354s175.795186-133.172342 214.84123 89.383152" fill="#AED98E" p-id="1636"></path><path d="M262.199035 745.664443s45.021018 79.663588 134.535128 49.395845c0 0 43.916057-30.157248-16.255203-64.259615 0 0 67.951003 21.53446 67.951003 98.824428-0.004092 0.004092-155.467998 80.858583-186.230928-83.960658z" fill="#A1C983" p-id="1637"></path><path d="M455.354384 820.216564c-53.987571 24.129072-98.615714 27.488972-132.640324 9.977388-47.910286-24.66109-60.396344-83.932011-60.519117-84.525416l-6.167319 16.25111c0.683439-0.515648 70.496505-52.395609 124.447244-31.114881 32.105253 12.666126 53.770671 49.768257 64.382388 110.275098l32.248488-5.659856c-12.731605-72.563191-41.243688-118.030286-84.742315-135.120347-71.102187-27.939141-152.668764 32.911465-156.110513 35.518354l-8.152155 6.175504 1.972559 10.034682c0.597497 3.044781 15.395788 75.014567 77.34317 107.115727 43.351299 22.463446 97.621249 19.422757 161.291551-9.040217l-13.353657-29.887146z" fill="#6E6E96" p-id="1638"></path><path d="M531.510745 627.490922c-20.679139 100.142197-80.604851 275.3317-249.655683 323.475255a16.369791 16.369791 0 0 0 8.970645 31.483201c185.653892-52.870333 250.576484-240.938769 272.745273-348.340968a16.369791 16.369791 0 1 0-32.060235-6.617488z" fill="#6E6E96" p-id="1639"></path><path d="M670.744002 541.033871c21.207064 44.022461 11.340173 138.648038-7.296834 147.618683-14.790106 7.120859-98.779411-42.31591-119.966014-86.342463-21.198879-44.022461-9.883261-93.42649 25.26268-110.352854 35.133664-16.909994 80.805381 5.058265 102.000168 49.076634z" fill="#FFEE5F" p-id="1640"></path><path d="M655.99482 548.13836c18.211393 37.810125 8.483644 116.397399-1.264566 126.837233 0.004092-0.008185 0.511556-0.544296 1.612425-1.076314 1.95619-0.937171 3.347622-0.933078 3.363992-0.933078-13.640128-0.204622-83.309959-40.007769-101.480427-77.756507-17.249667-35.821195-9.343058-75.522031 17.613895-88.503275 26.952861-12.968967 62.909107 5.614838 80.154681 41.431941z m-94.355475-70.926212c-43.224433 20.818282-57.985892 80.126035-32.907372 132.202432 19.021697 39.52486 78.74688 80.613036 113.18892 92.677572 12.387839 4.337995 21.485351 4.751332 28.626672 1.309583 8.05803-3.875548 14.249903-12.273251 18.939848-25.667832 11.467039-32.776414 15.494007-103.338398-3.998322-143.804522-25.070335-52.076398-80.633498-77.523238-123.849746-56.717233z" fill="#6E6E96" p-id="1641"></path><path d="M738.072953 404.919058c44.538109 20.093918 97.809501 98.92674 89.301302 117.784739-6.748446 14.957897-102.867767 31.069863-147.41406 10.96776-44.534016-20.089826-67.615422-65.20497-51.581212-100.760156 16.058765-35.559279 65.168138-48.090354 109.69397-27.992343z" fill="#FFEE5F" p-id="1642"></path><path d="M731.336784 419.840123c38.264387 17.261945 81.329214 83.723296 80.572111 97.985476 0-0.008185 0.045017-0.744825 0.544296-1.857971 0.896246-1.976652 1.968467-2.868806 1.980744-2.876991-10.578977 8.606418-89.550942 22.893153-127.737571 5.659856-36.234532-16.345236-55.694122-51.834943-43.392224-79.107016 12.310083-27.272072 51.806296-36.156776 88.032644-19.803354z m-117.874773 6.339201c-19.725598 43.731897 7.084027 98.644361 59.770199 122.413298 39.999584 18.051787 112.173993 11.13555 146.3091-1.77203 12.265066-4.640836 19.496421-10.161548 22.75401-17.384718 3.679111-8.152156 3.024319-18.567435-1.993022-31.843336-12.281436-32.477665-54.552329-89.121235-95.493176-107.594544-52.68208-23.781214-111.60105-7.550566-131.347111 36.18133z" fill="#6E6E96" p-id="1643"></path><path d="M702.153539 257.369947c47.026317-13.230884 138.517079 12.911673 144.123732 32.825523 4.440306 15.800941-58.833029 89.919262-105.871623 103.154238-47.03041 13.226791-93.717054-6.482437-104.279661-44.034737-10.570793-37.552301 19.001235-78.71414 66.027552-91.945024z" fill="#FFEE5F" p-id="1644"></path><path d="M706.58566 273.129963c40.408829-11.36882 116.119113 11.859914 124.70916 23.277843a5.844015 5.844015 0 0 1-0.773473-1.77203c-0.589312-2.099426-0.335581-3.466303-0.33558-3.482673-2.57415 13.390489-53.881167 75.092324-94.21224 86.440682-38.268479 10.763138-75.98857-3.91238-84.091616-32.710935-4.018784-14.286735 0.589312-27.010155 5.160576-35.162311 9.584513-17.094154 27.644485-30.427349 49.543173-36.590576z m-86.21969 80.617129c12.989429 46.175088 68.826786 71.012153 124.471799 55.362633 33.443483-9.408537 66.841949-41.648841 79.65131-55.076162 19.9957-20.953333 42.733339-49.805089 37.548209-68.266121-5.807183-20.630029-40.351535-33.296155-68.311138-40.294241-36.361398-9.101604-72.248073-10.542145-96.00064-3.859178-30.202264 8.495922-55.436297 27.484879-69.236031 52.092768-10.746768 19.156748-13.631943 40.482493-8.123509 60.040301z" fill="#6E6E96" p-id="1645"></path><path d="M579.801628 167.42613c27.529896-40.367905 114.412562-79.139755 131.506716-67.484463 13.558279 9.244839 12.727513 106.698298-14.794198 147.066202-27.525804 40.363812-75.959923 55.272599-108.192042 33.296155-32.232119-21.96826-36.038095-72.514082-8.520476-112.877894z" fill="#FFEE5F" p-id="1646"></path><path d="M593.327168 176.650507c23.650256-34.679402 96.581767-65.548736 110.491997-62.323887a5.770351 5.770351 0 0 1-1.735198-0.859414c-1.792492-1.223642-2.480023-2.435006-2.488208-2.447283 6.63795 11.913115 6.993993 92.157831-16.607153 126.767661-22.393874 32.841893-60.72374 45.847692-85.446217 28.9909-12.260973-8.356778-16.905902-21.059736-18.645192-30.251374-3.646371-19.254967 1.616517-41.079991 14.429971-59.876603z m-14.225348 117.179057c39.635357 27.022433 98.370167 10.153363 130.933773-37.60141 24.722477-36.259087 30.443719-108.535807 23.658441-144.385649-2.435006-12.883026-6.617488-20.961517-13.169497-25.426378-29.617044-20.200322-125.155237 29.121858-154.248449 71.789718-17.671189 25.921564-24.800233 56.692679-19.549623 84.41492 4.088355 21.579477 15.588134 39.766315 32.375355 51.208799z" fill="#6E6E96" p-id="1647"></path><path d="M428.254195 177.174341c-4.857735-48.610094 36.778828-134.1709 57.367933-136.225309 16.320682-1.632887 78.333542 73.553564 83.19537 122.167751 4.861828 48.614187-22.651698 91.167459-61.472657 95.051191-38.812775 3.883733-74.224725-32.379447-79.090646-80.993633z" fill="#FFEE5F" p-id="1648"></path><path d="M444.542137 175.549639c-4.174297-41.771614 31.855613-112.292674 44.587219-118.766926-0.008185 0.004092-0.667069 0.335581-1.882526 0.454261-2.160812 0.2169-3.466303-0.270102-3.482673-0.278286 12.73979 4.861828 64.595195 66.105309 68.761307 107.786889 3.957397 39.553508-17.045045 74.155153-46.81351 77.134455-29.768465 2.979302-57.21242-26.776886-61.169817-66.330393z m64.427405 98.906277c47.734311-4.775887 81.881695-55.448575 76.135898-112.967928-3.462211-34.560721-29.412422-73.054285-40.404736-87.999904-17.163726-23.326952-41.628379-50.734075-60.70737-48.826994-8.892889 0.888061-17.581156 6.65432-26.568171 17.630265C435.432349 69.162367 407.4973 134.093143 411.966253 178.799042c5.758074 57.527538 49.273071 100.43276 97.003289 95.656874z" fill="#6E6E96" p-id="1649"></path><path d="M318.437452 282.051499c-34.969966-34.114644-58.063649-126.415711-43.629585-141.222187 11.467039-11.745325 107.291703 5.991344 142.269854 40.105988S458.325501 265.342035 431.086169 293.264806c-27.243425 27.926863-77.678751 22.90543-112.648717-11.213307z" fill="#FFEE5F" p-id="1650"></path><path d="M329.867659 270.334821c-30.038567-29.306018-47.775235-106.489583-42.189044-119.634525-0.004092 0.004092-0.298749 0.683439-1.149978 1.559223-1.522391 1.559223-2.831974 2.025762-2.848343 2.029854 12.883026-4.464861 91.973671 9.113881 121.96722 38.366698 16.28385 15.88279 25.761959 36.226348 26.007505 55.816894 0.114589 9.351243-1.92345 22.733547-12.28962 33.361635-10.36617 10.628087-23.695273 12.997614-33.050608 13.112202-19.590547 0.241454-40.167375-8.729191-56.447132-24.611981z m112.931096 34.360192c14.196701-14.552744 21.861856-34.663032 21.587662-56.631292-0.347858-28.209242-13.431414-56.950503-35.886675-78.849191-24.865713-24.251845-69.48567-37.057114-87.516995-41.436034-28.139671-6.834388-64.501069-12.10546-77.895651 1.62061-14.957897 15.338494-8.655527 51.589396-0.73664 79.29936 10.296599 36.042187 26.989693 67.844599 44.652697 85.073804 22.447076 21.90278 51.503455 34.266065 79.71679 33.918207 21.96826-0.278286 41.886203-8.44272 56.078812-22.995464z" fill="#6E6E96" p-id="1651"></path><path d="M301.723896 432.989157c-48.720591-3.654556-125.748642-59.512375-124.197605-80.142404 1.223642-16.365699 86.031437-64.374203 134.75612-60.72374 48.720591 3.654556 85.855461 38.149798 82.941639 77.048514-2.922008 38.898716-44.783656 67.472186-93.500154 63.81763z" fill="#FFEE5F" p-id="1652"></path><path d="M302.947538 416.664383c-41.857556-3.143-105.053134-50.865033-109.219246-64.525623 0 0.004092 0.212807 0.716178 0.122773 1.931635-0.163698 2.160812-0.867599 3.363992-0.875784 3.376269 6.998086-11.704401 76.307781-52.133692 118.083488-49.007062 39.643541 2.97521 70.079075 29.666154 67.840506 59.500098-2.242661 29.842129-36.312289 51.699892-75.951737 48.724683z m108.597193-46.269214c3.589077-47.836622-40.392459-90.275305-98.038678-94.59693-43.772821-3.278051-109.223338 27.910494-136.876008 51.71217-9.936463 8.553216-14.835123 16.214278-15.428528 24.116795-0.671161 8.905166 3.499043 18.469217 12.75616 29.224169 22.643513 26.322624 81.738459 65.098566 126.538484 68.462559 57.642127 4.321625 107.455401-31.078048 111.04857-78.918763z" fill="#6E6E96" p-id="1653"></path><path d="M385.938286 559.359852c-39.672189 28.520268-134.580144 35.231883-146.652866 18.440569-9.58042-13.32501 24.530132-104.615242 64.202321-133.139603 39.659911-28.516176 90.287582-25.958396 113.053869 5.713057 22.766287 31.667361 9.064772 80.461615-30.603324 108.985977z" fill="#FFEE5F" p-id="1654"></path><path d="M376.38242 546.067581c-34.077812 24.497392-113.168458 28.561193-125.14296 20.773265 0.004092 0.004092 0.622052 0.413337 1.334138 1.40371 1.268659 1.763845 1.501928 3.143 1.506021 3.155277-2.160812-13.464153 24.947562-88.990276 58.963987-113.442652 18.465124-13.275901 40.146912-19.078991 59.483728-15.915529 9.232562 1.510113 22.058293 5.839923 30.722006 17.892181 17.462475 24.284585 5.410216 62.929569-26.86692 86.133748z m53.45146-105.249571c-11.864006-16.504842-30.341408-27.546266-52.023196-31.090326-27.845015-4.550802-58.415599 3.335345-83.878809 21.644957-35.637035 25.618723-65.728803 91.576703-71.617836 127.590243-2.115795 12.94032-0.945355 21.960075 3.679111 28.393403 20.924685 29.105488 127.569781 15.436713 169.496909-14.704165 46.936283-33.746324 62.340257-92.886287 34.343821-131.834112z" fill="#6E6E96" p-id="1655"></path><path d="M531.674443 602.023619c-12.056351 47.333251-80.445246 113.487669-100.49824 108.384387-15.89916-4.035153-48.458674-95.91879-36.402323-143.256134 12.064536-47.337343 52.48155-77.92839 90.279398-68.294768 37.810125 9.633622 58.677516 55.82508 46.621165 103.166515z" fill="#FFEE5F" p-id="1656"></path><path d="M515.812115 597.984374c-10.362078 40.670746-68.339785 94.617392-82.520116 96.348497a5.688502 5.688502 0 0 1 1.92345 0.2169c2.103518 0.532018 3.167555 1.440542 3.175739 1.448726-10.308876-8.925629-38.092504-84.210297-27.750888-124.799194 5.618931-22.050109 18.506049-40.437476 35.358749-50.443511 8.037567-4.771794 20.638214-9.690916 35.01089-6.028176 28.999085 7.382776 44.611773 44.734546 34.802176 83.256758z m-26.715499-114.985505c-19.688766-5.021433-40.92857-1.608332-59.811124 9.604975-24.264123 14.409509-42.622843 40.105988-50.369847 70.508782-11.647106 45.733104 11.143735 116.847568 27.173853 143.808614 6.691152 11.258324 13.386397 17.409273 21.059736 19.357278 20.74871 5.28335 48.998877-18.301426 69.039594-39.009212 26.0648-26.936491 45.25838-57.294269 51.347942-81.202348 14.266273-56.021517-11.95404-111.228638-58.440154-123.068089z" fill="#6E6E96" p-id="1657"></path><path d="M521.324642 384.788308m-148.887342 0a148.887342 148.887342 0 1 0 297.774684 0 148.887342 148.887342 0 1 0-297.774684 0Z" fill="#FABE64" p-id="1658"></path><path d="M521.324642 252.270757c73.066562 0 132.517551 59.446896 132.517551 132.517551s-59.446896 132.517551-132.517551 132.517551-132.517551-59.446896-132.517551-132.517551 59.446896-132.517551 132.517551-132.517551zM356.067509 384.788308c0 91.122442 74.134691 165.257133 165.257133 165.257133 91.122442 0 165.257133-74.134691 165.257133-165.257133S612.447084 219.531175 521.324642 219.531175c-91.122442 0-165.257133 74.134691-165.257133 165.257133z" fill="#6E6E96" p-id="1659"></path><path d="M510.802959 364.035505m-105.626077 0a105.626077 105.626077 0 1 0 211.252154 0 105.626077 105.626077 0 1 0-211.252154 0Z" fill="#FFD25F" p-id="1660"></path></svg>