<?xml version="1.0" standalone="no"?><!DOCTYPE svg PUBLIC "-//W3C//DTD SVG 1.1//EN" "http://www.w3.org/Graphics/SVG/1.1/DTD/svg11.dtd"><svg t="1712488449039" class="icon" viewBox="0 0 1024 1024" version="1.1" xmlns="http://www.w3.org/2000/svg" p-id="1231" xmlns:xlink="http://www.w3.org/1999/xlink" width="128" height="128"><path d="M688.052077 482.130384c-28.323267-11.169739-50.465431-29.550051-56.517851-47.775943-22.09069-66.443649 44.696115-119.229674 79.603694-137.725801 57.959108-30.678178 115.858163-3.585984 131.128621 54.072862" fill="#FFA6A6" p-id="1232"></path><path d="M694.344706 466.165035c-27.152246-10.702189-42.933149-26.401592-46.527712-37.215306-22.17219-66.683858 67.520302-115.137535 71.355074-117.157868 23.145896-12.246392 46.995262-14.138042 67.172856-5.306055 19.298255 8.445936 33.273298 25.715279 39.342876 48.625255l33.166061-8.793382c-8.673277-32.754274-30.094812-58.72692-58.752657-71.273574-29.95326-13.108573-64.406158-10.826583-96.988853 6.421313-44.370116 23.514789-112.786914 83.322652-87.856605 158.310894 7.686702 23.128738 32.54838 44.932035 66.503701 58.323711l12.585259-31.934988z" fill="#6E6E96" p-id="1233"></path><path d="M331.864363 126.659009c-23.870814-41.886522-11.633-106.073918 127.328164-97.186168 70.102553 4.48248 152.700287 82.426156 110.727976 115.270508" fill="#FFDD5F" p-id="1234"></path><path d="M346.765927 118.1616c-4.268007-7.489387-13.061389-26.719011-2.539357-43.567988 7.914043-12.671048 33.226114-33.153193 113.863567-27.992979 45.082166 2.882513 96.246778 41.170183 104.95866 69.330451 2.852487 9.209459-0.420367 12.731101-3.706089 15.300484l21.1513 27.023562c16.158375-12.641022 21.743244-31.767699 15.343378-52.468606-13.75628-44.447326-79.629431-89.855491-135.555338-93.428606-93.497237-5.983789-130.540966 20.658012-145.159426 44.061276-14.095147 22.56682-13.408834 52.001056 1.831597 78.737224l29.811708-16.994818z" fill="#6E6E96" p-id="1235"></path><path d="M489.458917 156.899663c21.545929-13.893543 45.485374-24.068129 64.877998-28.93666 115.557901-29.035317 170.926179 61.424987 155.218197 145.614109-11.547211 61.858222-83.112468 113.927909-145.215189 100.214523" fill="#FFDD5F" p-id="1236"></path><path d="M541.936102 224.21836s75.700291 45.940057 83.695834 83.695834c0 0 124.45423-106.129681 0-164.560628 0 0 69.111689 14.138042 69.11169 110.110294s-81.233687 100.754994-81.233688 100.754994-50.920113-64.925182-81.628317-95.633385l10.054481-34.367109z" fill="#FFCA5F" p-id="1237"></path><path d="M498.754165 171.320808c18.63339-12.019051 40.972868-22.004901 59.760678-26.719011 43.169069-10.84803 79.260538-4.109297 104.358136 19.486991 26.049857 24.497074 37.472674 65.242601 29.803129 106.339864-4.902846 26.25575-23.433289 52.262712-49.581803 69.553503-24.21826 16.025402-51.5764 22.2494-75.065452 17.06345l-7.399309 33.509217c32.514064 7.176257 69.467714-0.819286 101.402702-21.949138 33.736559-22.318031 57.804687-56.667982 64.376132-91.875823 9.792824-52.468606-5.550554-105.207448-40.037767-137.635723-33.552112-31.544648-81.932868-41.401814-136.220204-27.769928-22.549662 5.65779-48.067626 17.016266-69.995316 31.158597l18.599074 28.838001zM663.902448 602.496764c-8.780513 5.529107-215.403531 138.060379-247.552992 368.48129a17.157818 17.157818 0 0 0 33.989637 4.744137c29.910365-214.348325 229.850414-342.911853 231.866457-344.185821l-0.008579 0.008579a17.166396 17.166396 0 0 0-18.294523-29.048185z" fill="#6E6E96" p-id="1238"></path><path d="M416.182168 973.109913a17.157818 17.157818 0 0 1 34.311345 0.244499V510.582335a17.157818 17.157818 0 0 0-34.311345 0v462.767788a17.157818 17.157818 0 0 0 34.311345 0.244498c0.038605-2.406384 0.458972-59.734942-32.943009-133.063164" fill="#6E6E96" p-id="1239"></path><path d="M846.749021 416.218628c25.046124-17.29508 52.635895-25.453622 71.153469-20.323435 67.485986 18.671995 74.117482 103.53885 70.046791 142.830253-6.811654 65.221154-61.562249 98.211348-117.959996 78.77583" fill="#FFA6A6" p-id="1240"></path><path d="M911.180915 394.638383c-18.508996-5.121609-46.107345 3.028355-71.153469 20.323435l23.240264 201.282647c56.402036 19.435518 111.152632-13.554676 117.959996-78.77583 4.079271-39.291402-2.552225-124.162547-70.046791-142.830252z m-14.940169 186.595556l-10.723636-75.065452s25.813937-17.149239 25.736726-64.341816c0 0.004289 66.486543 85.789088-15.01309 139.407268z" fill="#E68A8A" opacity=".56" p-id="1241"></path><path d="M856.498951 430.339512c24.016655-16.58732 45.845689-20.945406 56.822402-17.908472 67.730485 18.727758 58.006292 120.211959 57.560189 124.518571-2.719514 26.045567-14.438303 46.909473-33.007352 58.744078-17.76692 11.31987-39.891926 13.305888-62.291457 5.589159l-11.174028 32.445433c32.037935 11.032477 65.534284 7.716728 91.927297-9.097932 27.572613-17.578184 44.863403-47.458523 48.693886-84.129069 5.181661-49.946407-6.374129-140.080712-82.537681-161.141933-23.489052-6.502813-55.441198 2.003175-85.480248 22.742687l19.486992 28.237478z" fill="#6E6E96" p-id="1242"></path><path d="M239.765487 383.863274C164.27109 364.848122 88.943982 289.761223 128.02949 213.636276c23.553394-45.845689 91.331063-133.882451 178.394119-106.13397 23.879393 7.605203 48.230625 36.190127 63.265163 72.950751" fill="#FFDD5F" p-id="1243"></path><path d="M507.015654 261.510877c54.647649 37.871593 94.10205 91.292458 98.614556 123.656391 13.018494 93.265607-113.68341 136.927963-209.020823 125.419357-95.328834-11.517185-169.798052-44.056986-158.508208-137.537066 3.843351-31.866357 56.547877-88.191182 109.166614-121.987793" fill="#FFDD5F" p-id="1244"></path><path d="M604.206112 378.016747c-4.516795-32.363933-43.966908-85.784798-98.618846-123.656391L345.843695 243.902666C293.216379 277.707856 240.520431 334.032682 236.67708 365.89046c-11.289844 93.484369 63.179374 126.02417 158.508209 137.532776 95.333124 11.517185 222.039317-32.140882 209.020823-125.406489z m-198.215688 63.05069c-66.533727-8.038438-113.507542-25.736726-105.627814-90.992196 1.33831-11.036766 13.932148-23.416132 30.772546-35.967075 27.59406 16.578741 97.778113 48.003284 185.518902 7.922623 16.325663 12.825469 28.151689 25.127624 29.79884 36.919334 9.089354 65.09676-73.915878 90.151463-140.462474 82.117314z" fill="#FFCA5F" p-id="1245"></path><path d="M839.332554 482.838144c18.955099 42.272573 28.85087 132.256747 18.324549 153.579625-30.836888 62.565982-90.215805 52.588711-154.004281 21.138432-63.809924-31.45028-124.728755-109.82719-78.908803-162.415901 15.905297-18.251628 62.008353-35.413735 111.259868-36.769204" fill="#FFA6A6" p-id="1246"></path><path d="M839.332554 482.838144l-103.337246-24.471337c-49.242936 1.355468-95.350282 18.517575-111.259868 36.769203-45.819952 52.593 15.103169 130.969911 78.908803 162.420191 63.788476 31.45028 123.167393 41.427551 154.004281-21.138432 10.5349-21.318588 0.639129-111.307052-18.31597-153.579625z m-127.255243 123.244604c-109.239535-69.193189 10.723636-100.802178 10.723636-100.802178 31.471727 31.471727 87.933815 27.881454 87.933815 27.881453s10.582084 142.122492-98.657451 72.920725z" fill="#E68A8A" opacity=".56" p-id="1247"></path><path d="M823.680335 489.859981c18.895047 42.148179 25.067571 125.856881 18.599074 138.969744-8.668987 17.586763-19.81299 28.486267-34.079715 33.32906-22.476741 7.630939-54.192967 1.0981-96.958827-19.988857-42.015206-20.700907-77.398915-60.120993-84.141937-93.724579-3.285722-16.347111 0.184447-30.094812 10.586373-42.032363 12.087682-13.876385 53.30505-29.64013 98.790424-30.89694l-0.952259-34.302767c-51.383374 1.419809-103.410167 19.358308-123.716443 42.650045-17.37658 19.941673-23.720683 44.606036-18.354576 71.329337 10.277533 51.211796 60.399807 96.950248 102.616618 117.749813 52.056819 25.659516 91.1938 32.556959 123.163104 21.700349 22.995765-7.806807 41.110131-24.848809 53.824074-50.645588 14.210962-28.812265 1.364046-124.84457-18.062893-168.185217l-31.313017 14.047963z" fill="#6E6E96" p-id="1248"></path><path d="M865.313779 457.011339c-20.748091 38.630826-64.612052 39.424375-106.194022 17.080608-41.573392-22.3309-65.148233-59.327444-44.413011-97.949691 20.743801-38.639405 71.273574-51.829477 112.859835-29.494289 41.59055 22.335189 58.478132 71.745414 37.747198 110.363372z" fill="#FFFFFF" p-id="1249"></path><path d="M850.202032 448.891402c-5.837947 10.865188-13.816333 17.698289-24.389838 20.876775-15.905297 4.791321-36.709151 0.960838-58.56821-10.792267-14.120884-7.583755-58.538184-35.37942-37.4212-74.718007 7.343546-13.674781 19.945963-23.785025 35.490945-28.469108 17.509553-5.276029 37.241043-3.101276 54.128625 5.97521 33.183219 17.822683 46.978105 56.908191 30.759678 87.127397z m-14.515514-117.355183c-24.84452-13.344493-54.098599-16.480084-80.264271-8.600356-24.325496 7.326388-44.155644 23.334632-55.835827 45.095034-23.682078 44.117038-3.504484 91.687088 51.40911 121.177087 29.936102 16.089743 60.022335 20.859617 84.708146 13.425992 19.18244-5.777895 34.641634-18.740626 44.717562-37.49841 25.183387-46.900894 5.104451-106.828862-44.73472-133.599347z" fill="#6E6E96" p-id="1250"></path><path d="M202.618812 147.492889s-90.348778 81.829921-4.55969 141.882283c0 0 36.387442-53.004788 118.998044-62.964901l5.906579 20.430672S247.310638 315.841106 223.401219 360.515773c0 0.004289-192.094636-71.801177-20.782407-213.022884z" fill="#FFCA5F" p-id="1251"></path><path d="M243.956284 367.22448c-44.944903-11.31987-85.956377-42.838781-102.063277-78.445542-10.303269-22.781292-9.831429-45.421033 1.402651-67.29725 2.668041-5.18595 66.366438-126.804851 157.916264-97.627982 18.423207 5.872263 39.565927 31.231517 52.593 63.097874l31.75912-12.988468c-17.179265-42.015206-45.506822-73.74001-73.933036-82.803627-94.947073-30.257811-169.677947 57.826135-198.859105 114.648537-16.025402 31.205781-16.767477 64.787919-2.140438 97.121826 20.507881 45.326665 69.549214 83.627203 124.947517 97.576509l8.377304-33.281877z" fill="#6E6E96" p-id="1252"></path><path d="M497.239987 275.610313c51.820899 35.911312 87.792263 86.059323 91.399695 111.924734 3.187065 22.824187-3.77472 43.134753-20.683749 60.361202-33.607875 34.234136-104.804239 53.433733-169.287608 45.652663-65.547153-7.918333-107.528043-24.664363-128.344764-51.194638-13.588992-17.325106-18.55189-39.321428-15.184669-67.250066 2.689488-22.292294 47.578628-75.031136 101.411281-109.621297l-18.547601-28.863738C284.337208 271.093518 225.927708 330.781276 221.076335 370.99491c-4.456743 36.902176 3.032644 68.035036 22.253689 92.544979 27.087904 34.530108 75.151241 54.892148 151.233294 64.07587 61.678065 7.446493 149.903563-6.803075 197.889689-55.677118 24.411285-24.878835 34.856106-55.698565 30.18918-89.143442-5.554843-39.797558-50.070801-96.735775-105.846577-135.388049l-19.555623 28.203163z" fill="#6E6E96" p-id="1253"></path><path d="M436.784417 125.71104c52.824631 4.538243 92.261875 47.981837 88.05392 97.040327-4.199376 49.067069-49.079937 69.41624-101.917436 64.882287-52.83321-4.516795-93.617342-32.192355-89.417967-81.250845 4.207955-49.075648 50.439694-85.184275 103.281483-80.671769z" fill="#FFFFFF" p-id="1254"></path><path d="M435.317424 142.808805c43.327779 3.718957 75.816106 38.922509 72.431727 78.479858-1.213916 14.193805-6.794496 25.565148-16.58732 33.813769-14.708539 12.387944-38.420643 17.869867-66.765358 15.442035-28.357583-2.423542-50.800008-11.860341-63.183663-26.564591-8.244331-9.788535-11.813157-21.949138-10.599242-36.134363 3.375801-39.565927 41.380367-68.742796 84.703856-65.036708z m-118.903676 62.10701c-1.990307 23.253132 4.422427 44.404432 18.543311 61.16762 18.294523 21.717508 49.015595 35.443762 86.505427 38.647984 37.481252 3.212801 70.081106-5.091582 91.798614-23.381816 16.763188-14.120884 26.680406-33.873821 28.675002-57.126954 5.001504-58.4095-41.51334-110.264715-103.688981-115.600795-62.179931-5.318923-116.831869 37.880172-121.833373 96.293961z" fill="#6E6E96" p-id="1255"></path><path d="M365.575185 171.166388s-14.528382 58.165002 46.952368 65.315522 91.66993-51.747978 66.319254-77.102943c0 0 51.722241 27.190851 24.870257 78.599963-26.851985 51.404821-136.40465 60.957436-153.112075-2.929698-16.716004-63.878555 14.970196-63.882844 14.970196-63.882844zM729.827073 384.262193s-15.583588 52.391396 72.32878 52.391396 35.765471-63.136479 26.530275-69.013032c0 0 91.66564 82.113025-7.103336 109.878664-98.777556 27.765638-141.058708-78.595673-91.755719-93.257028z" fill="#6E6E96" opacity=".15" p-id="1256"></path><path d="M432.083175 688.285852s-140.869972-192.665134-332.2354 41.654892c0 0 194.247942 142.096756 335.589754-39.720348" fill="#AED98E" p-id="1257"></path><path d="M418.241106 698.408964c-145.614108 159.807913-295.577723 25.998383-295.577723 25.998383s226.723401 10.22177 246.030235-22.995765c19.306834-33.226114-74.979663-70.432841-74.979663-70.432841 75.039715-6.640075 124.52715 67.430223 124.527151 67.430223z" fill="#A1C983" p-id="1258"></path><path d="M421.895721 679.689785c-129.24984 166.259252-304.529815 41.762128-311.916255 36.40031l3.157038 24.698679c60.687201-74.310508 121.447322-111.259868 180.577451-109.818612 75.24132 1.844465 124.063889 66.812542 124.548598 67.468828l-0.021447-0.034315 27.701296-20.250514c-2.3592-3.22567-58.812709-79.01175-150.993084-81.473897-70.402815-1.88307-140.518236 39.291402-208.390273 122.399581l-11.448554 14.026516 14.605592 10.680741c2.076096 1.518467 209.428321 149.701958 359.267543-43.036096l-27.087905-21.061221z" fill="#6E6E96" p-id="1259"></path><path d="M945.843996 1024c0-81.731264-84.497962-130.828359-188.735993-130.828359-21.46443 0-96.276804-15.01309-96.276804 75.065452 0-98.657451-93.102608-136.460413-159.065837-136.460413-78.102386 0-168.910135 38.274802-168.910135 127.881504 6.798785-35.859839-30.909808-66.486543-126.697615-66.486543-71.320758 0-171.578176 49.097095-171.578175 130.828359" fill="#E4B282" p-id="1260"></path><path d="M215.358492 956.192305c85.321537 0 124.52715 24.304049 127.28098 54.95649 7.47223-81.345213 93.673105-116.35145 168.331059-116.351451 64.011528 0 153.571046 35.61534 158.80847 127.881504h0.501866c4.649769-80.513059 75.275635-66.486543 96.032305-66.486543 72.929304 0 136.142993 24.05526 167.567536 66.486543h21.168457c0-81.735553-84.497962-130.828359-188.735993-130.828359-21.46443 0-96.272514-15.01309-96.272514 75.065452 0-98.657451-93.102608-136.460413-159.065838-136.460413-74.657954 0-160.858829 35.006237-168.331058 116.351451-2.75383-30.652441-41.959443-54.95649-127.280981-54.95649-71.320758 0-171.578176 49.092806-171.578175 130.828359h23.677788c33.976768-42.426993 97.996875-66.486543 147.896098-66.486543z" fill="#FFC791" opacity=".39" p-id="1261"></path><path d="M963.001814 1024c0-87.131687-84.665251-147.986177-205.893811-147.986177-1.767255 0-4.388112-0.15442-7.429335-0.330288-19.289676-1.132416-55.18812-3.229959-80.568822 20.705197-16.883292 15.922455-25.436465 40.09353-25.436464 71.848361h34.315635c0-112.701125-105.387605-153.61823-176.223655-153.61823-45.339533 0-90.168621 12.044788-122.991526 33.037377-41.264551 26.401592-63.076427 65.135365-63.076427 111.997655l34.015373 3.195643c3.290012-17.359422-0.94368-33.740848-12.242102-47.385603-21.378641-25.818226-66.786805-39.454402-131.317357-39.454401-77.137258 0-188.735993 52.700237-188.735993 147.986177h34.315635c0-69.390504 91.459747-113.670541 154.420358-113.670542 74.460639 0 98.155585 18.899336 104.890028 27.032142 4.757005 5.752158 6.335524 11.817447 4.950031 19.10094l34.015373 3.195644c0-35.074869 15.901007-63.029243 47.256919-83.091021 27.448219-17.565316 65.538574-27.628376 104.495398-27.628376 57.041165 0 141.90802 31.767699 141.90802 119.302595h34.315635c0-21.927691 4.928583-37.704304 14.665645-46.883737 14.609882-13.782017 39.904794-12.297866 55.016542-11.414238 3.577405 0.210183 6.670102 0.39034 9.43251 0.390341 82.644918 0 171.578176 35.572445 171.578176 113.670541h34.324214z" fill="#6E6E96" p-id="1262"></path><path d="M517.537686 784.957286c92.596452 210.85671 315.695264 120.572274 315.695264 120.572273-128.258976-274.001768-311.967729-121.627479-311.967729-121.627479" fill="#AED98E" p-id="1263"></path><path d="M669.453002 762.163125s-100.527653 13.022784-89.928411 49.959275c10.599242 36.927913 232.938821 82.460471 232.938821 82.460472s-178.128173 93.076871-280.242924-97.482141c0 0 66.087624-59.717784 137.232514-34.937606z" fill="#A1C983" p-id="1264"></path><path d="M501.829704 791.859018c98.155585 223.523468 335.448202 130.540966 337.833138 129.575838l16.776056-6.785917-7.673834-16.394295c-45.489664-97.181879-103.405877-154.253069-172.135804-169.643631-89.984174-20.151857-163.256634 39.531612-166.332173 42.083837l21.910533 26.405881-0.025737 0.030026c0.63055-0.514735 63.852818-51.5764 137.26254-34.963343 57.684583 13.061389 107.562358 63.741292 148.243544 150.63706l9.097933-23.175922c-8.471672 3.392958-208.870692 81.246556-293.544522-111.568709l-31.411674 13.799175z" fill="#6E6E96" p-id="1265"></path></svg>