<?xml version="1.0" standalone="no"?><!DOCTYPE svg PUBLIC "-//W3C//DTD SVG 1.1//EN" "http://www.w3.org/Graphics/SVG/1.1/DTD/svg11.dtd"><svg t="1712488459457" class="icon" viewBox="0 0 1024 1024" version="1.1" xmlns="http://www.w3.org/2000/svg" p-id="1428" xmlns:xlink="http://www.w3.org/1999/xlink" width="128" height="128"><path d="M517.036292 654.05113c-8.815145 80.113043-124.832004 97.537013-215.386484 87.568901-112.719776-12.411595-231.827397-136.798594-231.827397-136.798595s129.047415-168.163358 263.774713-153.336599c134.711116 14.830804 192.262404 122.424931 183.439168 202.566293z" fill="#B3EBB5" p-id="1429"></path><path d="M121.993183 567.517878s231.600849-150.262019 364.382262 25.976158l-12.957738 13.681882s-107.719538-115.187531-351.424524-39.65804z" fill="#A3D6A5" p-id="1430"></path><path d="M93.512861 608.850755s146.544204 118.233793 292.271218 73.069827c0 0 13.742565-36.458049 46.106567-59.007668 0 0-15.012852-31.113943-65.597788-15.437629-50.588982 15.676314-26.129887 59.966452-66.698164 61.811199-40.568277 1.836657-26.469709-32.740234-26.469709-32.740234s97.783789-129.282054 188.799456-20.458095c0 0-24.734189 84.231363-16.987056 113.852516 7.747133 29.625199-277.557733 46.511117-351.424524-121.089916z" fill="#A3D6A5" p-id="1431"></path><path d="M503.455547 652.558341c-1.982295 17.99034-10.299844 32.631006-25.417879 44.759415-40.410503 32.396367-116.838095 37.109375-174.891025 30.72153-106.546343-11.727905-222.296198-131.462579-223.457257-132.672184l0.974966 17.779974c1.237923-1.6182 126.001154-161.872605 251.431892-148.077449 130.843618 14.410072 178.972935 118.310658 171.359303 187.488714z m-168.365633-214.66234c-140.759139-15.490221-270.652064 151.491851-276.109444 158.607887L51.840162 605.808539l8.107183 8.467232c5.004284 5.226786 123.885357 128.129087 240.205628 140.933095 30.810531 3.394175 135.924766 10.777213 194.976934-36.563232 20.77769-16.651279 32.711916-37.882065 35.483084-63.093623 8.863691-80.460956-45.944747-201.182732-195.523077-217.65601z" fill="#6E6E96" p-id="1432"></path><path d="M528.570013 646.728775c-1.403789-2.216934-35.284854-54.622346-110.235839-87.431354-68.316364-29.900293-185.263688-48.416548-354.458649 33.213558l11.881635 24.61687c302.955384-146.163927 424.712808 36.433776 429.753501 44.273955l23.059352-14.673029z" fill="#6E6E96" p-id="1433"></path><path d="M478.753722 622.463863c-66.071112 87.916813 18.07125 239.659486 125.859561 296.442129 134.193292 70.691073 350.534514 90.263204 350.534514 90.263204s32.254774-292.174126-111.247214-408.672399c-143.506034-116.482091-299.063613-65.961883-365.146861 21.967066z" fill="#B3EBB5" p-id="1434"></path><path d="M404.656338 553.908815c-35.93618-8.010091-109.67756-1.035648-131.539444 82.637435a13.6657 13.6657 0 1 0 26.449481 6.905669c20.599688-78.838711 95.995678-63.550765 99.195669-62.858984l-0.044501-0.012137a13.661655 13.661655 0 1 0 5.938795-26.671983z" fill="#6E6E96" p-id="1435"></path><path d="M509.839347 607.96479s184.571908 14.292753 265.336276 102.011337c0 0 133.323509 14.503119 151.855946 33.132648 0 0-49.063828-126.765753-130.653479-159.287531 0 0 96.13727 68.862507 26.651757 85.999246-71.160351 17.533198-143.667854-96.776459-313.1905-61.8557zM486.302626 635.555103s-45.908338 274.487198 398.065097 310.382922c0 0-30.571846-188.176448-198.278063-266.970658 0 0 203.91749 77.41874 255.032387 317.357365 0 0-400.718945-11.748133-470.010275-235.318664 0 0-10.71653-87.237169 9.154967-124.957414" fill="#A3D6A5" p-id="1436"></path><path d="M676.194366 829.431661s-8.985056 36.247683 29.39056 35.98068c38.375616-0.262958 32.473231-102.990348 21.82952-137.328555 0 0 120.559956 48.489367 156.953277 217.858285 0 0-48.1455-238.425608-200.490952-274.123103-0.008091-0.008091 30.499027 120.381954-7.682405 157.612693zM944.479812 938.773444s-30.013567-138.105291-71.293852-178.964844c0 0 47.66004-5.82552 52.72096 10.489982 0 0-36.801917-61.265057-123.877266-42.995577 0-0.004046 99.430307 109.766561 142.450158 211.470439z" fill="#A3D6A5" p-id="1437"></path><path d="M852.521544 589.89354c-84.834142-68.866552-165.380054-75.606356-218.012013-69.141646-66.508026 8.171911-128.824913 43.133125-166.682705 93.503649-24.681598 32.845417-32.072727 75.424308-21.364288 123.132894 17.027511 75.889541 79.44149 155.500942 151.783128 193.613601 135.063074 71.156306 346.731743 90.979257 355.68039 91.784312l13.34206 1.209604 1.472562-13.317787c1.351197-12.233593 31.372855-300.964998-116.219134-420.784627z m-214.678521-42.008475c47.368764-5.821475 120.082587 0.420732 197.456826 63.23117 34.366525 27.89777 58.170249 66.819529 74.546435 109.442921-56.661278-28.027226-117.521785-21.068966-136.932096-17.796156-34.706347-26.934941-69.076918-45.799109-100.02095-58.926758-67.527492-28.646188-127.744764-35.042124-163.025573-35.863361 33.440106-32.234547 79.388899-54.120704 127.975358-60.087816z m285.179456 213.100776c17.34306 63.441536 21.408788 129.860561 21.461379 177.787603-39.269672-96.052315-90.259158-163.757808-142.450158-211.470439 31.033033-1.419971 80.885734 2.403027 120.988779 33.682836z m-449.892002-29.584744c-5.898339-26.311934-8.091001-63.71663 13.168103-95.854085 19.576176-1.258151 81.435922-2.439437 155.581852 24.446958 7.116035 8.321594 62.70121 28.808008 34.301798 169.441737-1.484699 7.39922 2.953215 14.681121 10.328162 16.339775a13.649518 13.649518 0 0 0 16.33573-10.324116c15.647995-69.323694-0.283185-123.124803-16.768598-156.49209a423.487021 423.487021 0 0 1 72.216226 45.791018 13.617154 13.617154 0 0 0 6.658894 5.311742c65.059737 53.157875 127.627445 135.613262 170.655386 263.200252-56.940417-6.885442-218.388245-30.474754-324.627129-86.444251-65.759608-34.64971-122.441113-106.776936-137.850424-175.41694z" fill="#6E6E96" p-id="1438"></path><path d="M623.056719 64.196953c103.135986-36.098 228.679998 30.628483 280.430039 149.040278 51.745995 118.423932-11.234354 246.880704-114.374386 282.986794" fill="#FF9E9E" p-id="1439"></path><path d="M677.76402 67.510217s175.65967 29.321786 193.087686 190.53093c17.428015 161.205098-16.845463 21.335969-58.526253 21.335969 0 0 39.734904 117.436829 54.577845 164.599272 0 0 90.67989-74.833665 45.337922-220.791272-45.333877-145.957607-203.197391-158.858707-234.4772-155.674899z" fill="#CC5656" opacity=".33" p-id="1440"></path><path d="M627.377314 76.531683c96.65914-33.828474 215.139708 29.843656 264.134762 141.940425 23.071488 52.793779 23.265672 110.571615 0.546143 162.697888-21.299559 48.87369-60.395275 86.31075-107.270487 102.723344l8.64928 24.673507c53.708063-18.803486 98.386568-61.430923 122.586751-116.95137 25.656563-58.870121 25.454288-124.075496-0.562324-183.609078-54.335115-124.346544-187.444213-194.390337-296.721269-156.148222l8.637144 24.673506z" fill="#6E6E96" p-id="1441"></path><path d="M798.198566 283.552072c74.914575 73.729244 76.557048 249.409142-10.971397 346.201783-87.536536 96.796687-226.786704 79.975496-301.70937 20.53496" fill="#FF9E9E" p-id="1442"></path><path d="M804.723958 283.552072l-4.502642 5.291515c42.518209 78.810392 32.865645 207.085117-38.347298 282.946339-67.843041 72.289046-168.037948 76.002815-241.949239 45.811246l-27.869452 32.687643c74.926712 59.436491 214.164743 76.261727 301.705325-20.53496 87.532491-96.792641 85.885972-272.472539 10.963306-346.201783z" fill="#CC5656" opacity=".33" p-id="1443"></path><path d="M789.035507 292.872905c66.508026 65.464287 74.445297 233.081502-11.497312 328.126487-79.465763 87.839949-209.233278 78.276386-283.888941 19.046216l-16.25482 20.482368c83.903677 66.556572 229.917921 77.066782 319.533844-22.003476 88.766369-98.164066 94.037655-282.007783 10.445482-364.28517l-18.338253 18.633575z" fill="#6E6E96" p-id="1444"></path><path d="M602.165755 518.450004c18.02675 16.590597 20.296275 36.454004-5.449288 68.186908-68.627868 84.627822-203.084117 89.344875-300.3339 10.494028-126.296475-126.296475-109.56024-365.235862-4.494551-381.984233" fill="#FF9E9E" p-id="1445"></path><path d="M276.794254 257.106637s-106.064928 382.008506 291.648211 310.742972c0 0-122.259066 98.516024-277.743826-56.972781-155.48476-155.48476-44.852462-267.812123-15.490221-281.562779l1.585836 27.792588z" fill="#FFB0B0" p-id="1446"></path><path d="M615.544225 532.415071c-67.531537 73.264011-199.839626 77.354012-295.531891 9.082149-113.500558-99.863176-109.588559-281.024727-29.317741-322.750018-99.066212 25.583744-112.448728 256.974227 11.133217 380.568309 97.249783 78.842756 231.706032 74.133794 300.341991-10.494028 20.482368-25.268195 23.184762-42.991532 14.361526-57.543197-0.339822 0.388368-0.631098 0.748418-0.987102 1.136785z" fill="#CC5656" opacity=".33" p-id="1447"></path><path d="M593.318246 528.070204c7.767361 7.148399 19.511448 17.957976-6.747894 50.338161-63.987679 78.891302-190.470247 82.738573-281.951147 8.560278l1.00733 0.910238C225.715767 507.976204 205.071578 376.643081 231.282375 295.838257c7.383038-22.755939 25.341014-61.835473 62.660755-67.778313l-4.11832-25.818383c-37.853747 6.039932-67.4749 36.409503-83.40608 85.534014-28.245683 87.079395-9.551426 228.332085 80.719868 318.599334l0.481415 0.477369 0.52996 0.432868c102.678844 83.256397 245.650872 77.685743 318.716654-12.41564 10.328162-12.723099 41.733382-51.450673 4.142592-86.035656l-17.690973 19.236354z" fill="#6E6E96" p-id="1448"></path><path d="M324.632295 329.606048c-83.794449-92.625776-11.909953-242.689566 101.914245-294.933157C507.153134-2.319164 671.351902 0.41964 671.351902 102.649433" fill="#FF9E9E" p-id="1449"></path><path d="M314.453817 291.946485s-39.391037-119.038848 92.933233-205.462871c132.320225-86.424024 240.480722-19.64495 240.480723-19.64495s-83.171442-99.701356-250.869567 0C229.30008 166.544066 314.453817 291.946485 314.453817 291.946485z" fill="#FFB0B0" p-id="1450"></path><path d="M334.325314 320.835403c-36.445913-40.285092-36.292184-86.743618-29.750609-118.618115C317.75899 138.03947 368.966934 75.483899 431.999875 46.55048c53.517924-24.560233 146.948754-30.256297 195.438121 0.841464 20.466186 13.127649 30.838849 31.716723 30.838849 55.253444h26.133932c0-32.558187-14.818668-59.270626-42.866121-77.25692-56.406411-36.182955-159.530261-30.555664-220.45145-2.597211-71.334308 32.74428-127.117712 101.101099-142.126518 174.158789-10.967351 53.432969 1.804293 103.65381 35.968543 141.422601l19.390083-17.537244z" fill="#6E6E96" p-id="1451"></path><path d="M550.221531 217.444551c-95.311988-7.925135-127.10153-62.996531-75.650856-106.190338 69.906246-58.688073 192.456588-49.290376 273.686189 20.979964 81.245783 70.286523 62.960122 188.613362-6.933988 247.305482" fill="#FF9E9E" p-id="1452"></path><path d="M482.977224 121.274917s131.191531-80.703686 229.938149 18.038886c98.738527 98.742572 25.397651 150.885026-62.992486 108.54482l20.510687 49.391513s71.771222 36.777644 76.941371 76.937326c0 0 161.027096-201.619646-96.545866-290.42647 0 0.004046-104.288953-31.720768-167.851855 37.513925z" fill="#CC5656" opacity=".33" p-id="1453"></path><path d="M551.305725 204.422086c-45.908338-3.818952-80.019997-20.276048-86.897347-41.927566-5.590881-17.614108 9.235877-33.383469 18.568846-41.215558 65.092101-54.65471 180.26345-45.301513 256.731498 20.846464 31.959453 27.646949 49.387468 65.969974 49.075964 107.901585-0.327686 45.738427-21.218649 90.412887-55.860268 119.50408l16.809053 20.025227c40.422639-33.953884 64.80487-86.043747 65.197284-139.335123 0.36005-49.719199-20.280093-95.125895-58.117658-127.862084-85.764607-74.18234-216.147038-83.652856-290.644927-21.105375-24.410549 20.486414-34.131886 45.693926-26.671983 69.161874 10.413118 32.768553 51.398082 55.217034 109.64115 60.067589l2.168388-26.061113z" fill="#6E6E96" p-id="1454"></path><path d="M655.760544 283.151568c77.394467 23.12408 108.293999 98.532206 69.024327 168.446543-39.281808 69.910291-133.837288 121.48233-211.22771 98.370386" fill="#FF9E9E" p-id="1455"></path><path d="M627.494633 487.218742s114.091201-44.104045 49.654471-140.68632l-2.593165-56.333593s96.088724 63.692357 54.69921 155.189439c-41.389514 91.501127-139.169257 101.052553-139.169258 101.052553l37.408742-59.222079z" fill="#CC5656" opacity=".33" p-id="1456"></path><path d="M652.014411 295.672391c33.739473 10.081387 58.623345 31.211035 70.059975 59.489083 11.311219 27.954407 8.216411 59.925997-8.68569 90.040701-35.042124 62.365433-122.202429 114.317749-196.097538 92.245499l-7.48013 25.057829c85.873836 25.63229 186.380246-33.334923 226.365972-104.499319 20.882873-37.182194 24.479323-77.184101 10.133978-112.646958-14.4748-35.790542-45.305558-62.329024-86.804301-74.732527l-7.492266 25.045692z" fill="#6E6E96" p-id="1457"></path><path d="M549.44884 425.257858c69.153783 27.942271 87.694311 77.722153 33.91343 109.968836-71.71863 43.031987-183.297575 5.886203-236.58086-82.936802-53.291376-88.843233-28.087909-195.70917 43.630721-238.741158 44.358911-26.607256 57.142692 3.199991 73.045554 50.81553" fill="#FF9E9E" p-id="1458"></path><path d="M423.641871 217.387914S311.81615 265.715461 367.631919 388.743172c55.815768 123.039847 151.633444 125.034279 180.809592 95.854085 29.176148-29.172103-23.961499-45.746518-23.961499-45.746518s96.970643 2.532483 84.955508 63.170488c-12.007045 60.64205-163.377531 78.42607-246.160605-32.671461-82.779028-111.101576-7.791634-266.473062 60.366956-251.961852z" fill="#CC5656" opacity=".33" p-id="1459"></path><path d="M427.92201 219.892079s-147.976312 77.362103 10.065205 254.522654c0 0-194.535975-147.215757-25.976158-265.935011 0-0.004046 10.939033 1.94184 15.910953 11.412357z" fill="#FFB0B0" p-id="1460"></path><path d="M544.557831 437.378177c33.642381 13.592881 55.431446 33.468424 56.875689 51.879497 1.225787 15.708678-12.808054 27.57413-24.794872 34.762984-66.034702 39.613539-170.250836 2.216934-218.651202-78.458434-47.178625-78.652618-29.248967-179.773944 39.152352-220.807454 11.748133-7.047262 20.668461-9.527153 26.502073-7.370901 10.902623 4.029318 19.191854 26.473754 27.420401 51.110851l24.794872-8.277094c-11.100853-33.22974-21.323832-59.282762-43.149307-67.353535-13.835611-5.117558-29.871975-2.010614-49.019328 9.474562-38.047931 22.820667-65.302467 63.223079-74.789164 110.838618-9.773929 49.067874-0.299367 100.862415 26.667938 145.832197 56.422593 94.061928 175.356258 134.909345 254.518608 87.431353 25.891202-15.52663 39.176625-36.559187 37.408742-59.222079-2.293799-29.220649-28.945555-56.220318-73.146692-74.081203l-9.79011 24.240638z" fill="#6E6E96" p-id="1461"></path><path d="M550.177031 218.108013c64.331546 0 116.474 47.004668 116.474 104.988825 0 57.988202-52.142454 104.99287-116.474 104.99287-64.311319 0-116.453773-47.004668-116.453773-104.99287-0.004046-57.984156 52.138408-104.988825 116.453773-104.988825z" fill="#FF9E9E" p-id="1462"></path><path d="M627.437996 258.235331a87.342352 87.342352 0 0 1 4.397459 27.319264c0 53.101238-47.753086 96.145361-106.659617 96.145361-30.579937 0-58.129794-11.614631-77.572469-30.195614 13.062921 39.787496 53.886065 68.826097 102.258113 68.826097 58.910576 0 106.651526-43.048169 106.651525-96.149407 0-25.535198-11.060398-48.728052-29.075011-65.945701z" fill="#CC5656" opacity=".33" p-id="1463"></path><path d="M550.177031 231.179025c57.017282 0 103.398943 41.235785 103.398943 91.917813 0 50.686074-46.381661 91.921859-103.398943 91.921859-57.0011 0-103.386807-41.235785-103.386807-91.921859-0.004046-50.682028 46.381661-91.917813 103.386807-91.917813zM420.652246 323.096838c0 65.100192 58.101476 118.063882 129.524785 118.063882 71.4314 0 129.540966-52.959645 129.540966-118.063882 0-65.096146-58.109567-118.059837-129.540966-118.059836-71.423309 0.004046-129.524784 52.96369-129.524785 118.059836z" fill="#6E6E96" p-id="1464"></path><path d="M527.910597 201.197822s-85.445013-23.767315 0-68.96769c85.445013-45.19633 215.669669 2.593166 232.199583 89.866745 0 0-49.698972-189.56001-248.252129-119.463626 0 0-126.470432 62.960122 16.052546 98.564571z" fill="#FFB0B0" p-id="1465"></path></svg>